<svg width="32" height="32" viewBox="0 0 32 32" fill="none" xmlns="http://www.w3.org/2000/svg">
<circle cx="16" cy="16" r="16" fill="#F23045"/>
<path d="M21.8333 10.1667H20.1667V8.5H11.8333V10.1667H10.1667C9.25 10.1667 8.5 10.9167 8.5 11.8333V12.6667C8.5 14.7917 10.1 16.525 12.1583 16.7833C12.4219 17.4078 12.8335 17.9587 13.3576 18.3885C13.8818 18.8182 14.5027 19.1139 15.1667 19.25V21.8333H11.8333V23.5H20.1667V21.8333H16.8333V19.25C17.4973 19.1139 18.1182 18.8182 18.6424 18.3885C19.1665 17.9587 19.5781 17.4078 19.8417 16.7833C21.9 16.525 23.5 14.7917 23.5 12.6667V11.8333C23.5 10.9167 22.75 10.1667 21.8333 10.1667ZM10.1667 12.6667V11.8333H11.8333V15.0167C10.8667 14.6667 10.1667 13.75 10.1667 12.6667ZM16 17.6667C14.625 17.6667 13.5 16.5417 13.5 15.1667V10.1667H18.5V15.1667C18.5 16.5417 17.375 17.6667 16 17.6667ZM21.8333 12.6667C21.8333 13.75 21.1333 14.6667 20.1667 15.0167V11.8333H21.8333V12.6667Z" fill="white"/>
</svg>
