<svg width="32" height="32" viewBox="0 0 32 32" fill="none" xmlns="http://www.w3.org/2000/svg">
<circle cx="16" cy="16" r="16" fill="#2962FF"/>
<g clip-path="url(#clip0_563_1744)">
<path d="M17.6654 17.25H14.332C14.2215 17.25 14.1155 17.2939 14.0374 17.372C13.9593 17.4502 13.9154 17.5562 13.9154 17.6667C13.9154 17.7772 13.9593 17.8832 14.0374 17.9613C14.1155 18.0394 14.2215 18.0833 14.332 18.0833H17.6654C17.7759 18.0833 17.8819 18.0394 17.96 17.9613C18.0381 17.8832 18.082 17.7772 18.082 17.6667C18.082 17.5562 18.0381 17.4502 17.96 17.372C17.8819 17.2939 17.7759 17.25 17.6654 17.25ZM14.332 14.75H15.1654C15.2759 14.75 15.3819 14.7061 15.46 14.628C15.5381 14.5498 15.582 14.4438 15.582 14.3333C15.582 14.2228 15.5381 14.1168 15.46 14.0387C15.3819 13.9606 15.2759 13.9167 15.1654 13.9167H14.332C14.2215 13.9167 14.1155 13.9606 14.0374 14.0387C13.9593 14.1168 13.9154 14.2228 13.9154 14.3333C13.9154 14.4438 13.9593 14.5498 14.0374 14.628C14.1155 14.7061 14.2215 14.75 14.332 14.75ZM19.332 14.75C19.2216 14.7498 19.1157 14.7058 19.0376 14.6277C18.9596 14.5496 18.9156 14.4438 18.9154 14.3333V13.5C18.9145 12.7267 18.6069 11.9854 18.0601 11.4386C17.5133 10.8918 16.772 10.5842 15.9987 10.5833H14.332C13.3378 10.5844 12.3846 10.9799 11.6816 11.6829C10.9786 12.3859 10.5831 13.3391 10.582 14.3333V17.6667C10.5831 18.6609 10.9786 19.6141 11.6816 20.3171C12.3846 21.0201 13.3378 21.4156 14.332 21.4167H17.6654C18.6596 21.4156 19.6128 21.0201 20.3158 20.3171C21.0188 19.6141 21.4143 18.6609 21.4154 17.6667V16.8333C21.4149 16.2809 21.1953 15.7513 20.8047 15.3607C20.4141 14.9701 19.8844 14.7504 19.332 14.75ZM20.582 17.6667C20.5812 18.4399 20.2736 19.1813 19.7268 19.7281C19.18 20.2749 18.4386 20.5825 17.6654 20.5833H14.332C13.5588 20.5825 12.8174 20.2749 12.2706 19.7281C11.7238 19.1813 11.4162 18.4399 11.4154 17.6667V14.3333C11.4162 13.5601 11.7238 12.8187 12.2706 12.2719C12.8174 11.7251 13.5588 11.4175 14.332 11.4167H15.9987C16.5511 11.4171 17.0807 11.6367 17.4714 12.0273C17.862 12.418 18.0816 12.9476 18.082 13.5V14.3333C18.082 15.0233 18.642 15.5833 19.332 15.5833C20.022 15.5833 20.582 16.1433 20.582 16.8333V17.6667ZM22.6654 6.83333H9.33203C8.66919 6.83399 8.03369 7.0976 7.565 7.5663C7.0963 8.03499 6.83269 8.6705 6.83203 9.33333V22.6667C6.83269 23.3295 7.0963 23.965 7.565 24.4337C8.03369 24.9024 8.66919 25.166 9.33203 25.1667H22.6654C23.3282 25.166 23.9637 24.9024 24.4324 24.4337C24.9011 23.965 25.1647 23.3295 25.1654 22.6667V9.33333C25.1647 8.6705 24.9011 8.03499 24.4324 7.5663C23.9637 7.0976 23.3282 6.83399 22.6654 6.83333ZM24.332 22.6667C24.3314 23.1085 24.1556 23.532 23.8431 23.8444C23.5307 24.1569 23.1072 24.3327 22.6654 24.3333H9.33203C8.89021 24.3327 8.46667 24.1569 8.15425 23.8444C7.84183 23.532 7.66603 23.1085 7.66536 22.6667V9.33333C7.66603 8.89151 7.84183 8.46797 8.15425 8.15555C8.46667 7.84313 8.89021 7.66733 9.33203 7.66667H22.6654C23.1072 7.66733 23.5307 7.84313 23.8431 8.15555C24.1556 8.46797 24.3314 8.89151 24.332 9.33333V22.6667Z" fill="white"/>
</g>
<defs>
<clipPath id="clip0_563_1744">
<rect width="20" height="20" fill="white" transform="translate(6 6)"/>
</clipPath>
</defs>
</svg>
