<svg width="368" height="320" viewBox="0 0 368 320" fill="none" xmlns="http://www.w3.org/2000/svg">
<g opacity="0.8">
<path d="M357.921 184.153C357.921 184.153 360.338 90.1978 304.98 46.1382C256.11 7.22282 187.643 0.135995 140.242 46.5889C123.372 63.1326 113.752 91.511 92.8409 103.198C69.3503 116.307 37.7781 124.762 20.9081 167.321C4.03798 209.881 20.4185 258.277 55.6351 279.755C90.8516 301.233 140.7 266.584 189.15 256.723C237.6 246.862 350.655 300.806 357.921 184.153Z" fill="#D70E1A"/>
<path opacity="0.7" d="M357.921 184.153C357.921 184.153 360.338 90.1978 304.98 46.1382C256.11 7.22282 187.643 0.135995 140.242 46.5889C123.372 63.1326 113.752 91.511 92.8409 103.198C69.3503 116.307 37.7781 124.762 20.9081 167.321C4.03798 209.881 20.4185 258.277 55.6351 279.755C90.8516 301.233 140.7 266.584 189.15 256.723C237.6 246.862 350.655 300.806 357.921 184.153Z" fill="white"/>
</g>
<path opacity="0.3" d="M290.231 21.9872C290.231 21.9872 290.231 1.48043 266.601 1.00642C246.49 0.633425 245.62 16.6176 243.421 24.194C241.222 31.7704 237.624 24.194 229.154 25.9735C220.684 27.753 220.684 36.2308 219.34 41.5847C217.995 46.9387 212.191 40.6989 205.974 42.4939C199.758 44.2889 196.61 50.9639 195.274 53.6448C193.937 56.3257 184.737 52.2694 179.321 54.2431C173.905 56.2169 168.069 64.7879 168.069 64.7879H326.341C326.341 64.7879 332.558 50.0781 321.889 40.2637C311.22 30.4494 304.055 36.697 297.365 33.581C290.674 30.4649 290.231 21.9872 290.231 21.9872Z" stroke="black" stroke-width="0.346181" stroke-miterlimit="10"/>
<path opacity="0.3" d="M75.5827 100.004C75.5827 100.004 75.5827 87.4782 61.1603 87.2062C48.8827 86.9809 48.3699 96.733 47.0022 101.364C45.6346 105.996 43.4666 101.364 38.2913 102.452C33.1161 103.54 33.1238 108.715 32.3079 111.979C31.492 115.243 27.9486 111.435 24.141 112.523C20.3334 113.611 18.4218 117.698 17.6059 119.33C16.79 120.962 11.1718 118.491 7.86925 119.695C4.56673 120.9 1 126.176 1 126.176H97.6358C97.6358 126.176 101.443 117.193 94.916 111.202C88.3887 105.211 84.0371 109.026 79.942 107.122C75.8469 105.219 75.5827 100.004 75.5827 100.004Z" stroke="black" stroke-width="0.346181" stroke-miterlimit="10"/>
<g opacity="0.3">
<path d="M64.8278 200.067H57.0571V206.929H64.8278V200.067Z" stroke="black" stroke-width="0.346181" stroke-miterlimit="10"/>
<path d="M51.8043 204.224H48.6494V206.928H51.8043V204.224Z" stroke="black" stroke-width="0.346181" stroke-miterlimit="10"/>
<path d="M368 243.388H338.541V188.947H340.507V183.313H271.473V188.947H273.866V269.91H255.761V96.2123H193.673V227.575H170.967V213.028H176.912V206.882H127.273V118.763H130.482V114.147H70.2287V118.763H74.5492V207.029H26.9229V270.166H1.91699" stroke="black" stroke-width="0.346181" stroke-miterlimit="10"/>
<path d="M258.232 94.3162H190.907V96.2044H258.232V94.3162Z" stroke="black" stroke-width="0.346181" stroke-miterlimit="10"/>
<path d="M87.5265 123.884H79.9424V130.994H87.5265V123.884Z" stroke="black" stroke-width="0.346181" stroke-miterlimit="10"/>
<path d="M98.6462 123.884H91.062V130.994H98.6462V123.884Z" stroke="black" stroke-width="0.346181" stroke-miterlimit="10"/>
<path d="M109.766 123.884H102.182V130.994H109.766V123.884Z" stroke="black" stroke-width="0.346181" stroke-miterlimit="10"/>
<path d="M120.893 123.884H113.309V130.994H120.893V123.884Z" stroke="black" stroke-width="0.346181" stroke-miterlimit="10"/>
<path d="M87.5265 135.151H79.9424V142.261H87.5265V135.151Z" stroke="black" stroke-width="0.346181" stroke-miterlimit="10"/>
<path d="M98.6462 135.151H91.062V142.261H98.6462V135.151Z" stroke="black" stroke-width="0.346181" stroke-miterlimit="10"/>
<path d="M109.766 135.151H102.182V142.261H109.766V135.151Z" stroke="black" stroke-width="0.346181" stroke-miterlimit="10"/>
<path d="M120.893 135.151H113.309V142.261H120.893V135.151Z" stroke="black" stroke-width="0.346181" stroke-miterlimit="10"/>
<path d="M87.5265 146.426H79.9424V153.536H87.5265V146.426Z" stroke="black" stroke-width="0.346181" stroke-miterlimit="10"/>
<path d="M98.6462 146.426H91.062V153.536H98.6462V146.426Z" stroke="black" stroke-width="0.346181" stroke-miterlimit="10"/>
<path d="M109.766 146.426H102.182V153.536H109.766V146.426Z" stroke="black" stroke-width="0.346181" stroke-miterlimit="10"/>
<path d="M120.893 146.426H113.309V153.536H120.893V146.426Z" stroke="black" stroke-width="0.346181" stroke-miterlimit="10"/>
<path d="M87.5265 157.694H79.9424V164.804H87.5265V157.694Z" stroke="black" stroke-width="0.346181" stroke-miterlimit="10"/>
<path d="M98.6462 157.694H91.062V164.804H98.6462V157.694Z" stroke="black" stroke-width="0.346181" stroke-miterlimit="10"/>
<path d="M109.766 157.694H102.182V164.804H109.766V157.694Z" stroke="black" stroke-width="0.346181" stroke-miterlimit="10"/>
<path d="M120.893 157.694H113.309V164.804H120.893V157.694Z" stroke="black" stroke-width="0.346181" stroke-miterlimit="10"/>
<path d="M87.5265 168.969H79.9424V176.079H87.5265V168.969Z" stroke="black" stroke-width="0.346181" stroke-miterlimit="10"/>
<path d="M98.6462 168.969H91.062V176.079H98.6462V168.969Z" stroke="black" stroke-width="0.346181" stroke-miterlimit="10"/>
<path d="M109.766 168.969H102.182V176.079H109.766V168.969Z" stroke="black" stroke-width="0.346181" stroke-miterlimit="10"/>
<path d="M120.893 168.969H113.309V176.079H120.893V168.969Z" stroke="black" stroke-width="0.346181" stroke-miterlimit="10"/>
<path d="M87.5265 180.244H79.9424V187.354H87.5265V180.244Z" stroke="black" stroke-width="0.346181" stroke-miterlimit="10"/>
<path d="M98.6462 180.244H91.062V187.354H98.6462V180.244Z" stroke="black" stroke-width="0.346181" stroke-miterlimit="10"/>
<path d="M109.766 180.244H102.182V187.354H109.766V180.244Z" stroke="black" stroke-width="0.346181" stroke-miterlimit="10"/>
<path d="M120.893 180.244H113.309V187.354H120.893V180.244Z" stroke="black" stroke-width="0.346181" stroke-miterlimit="10"/>
<path d="M87.5265 191.511H79.9424V198.622H87.5265V191.511Z" stroke="black" stroke-width="0.346181" stroke-miterlimit="10"/>
<path d="M98.6462 191.511H91.062V198.622H98.6462V191.511Z" stroke="black" stroke-width="0.346181" stroke-miterlimit="10"/>
<path d="M109.766 191.511H102.182V198.622H109.766V191.511Z" stroke="black" stroke-width="0.346181" stroke-miterlimit="10"/>
<path d="M120.893 191.511H113.309V198.622H120.893V191.511Z" stroke="black" stroke-width="0.346181" stroke-miterlimit="10"/>
<path d="M87.5265 202.787H79.9424V209.897H87.5265V202.787Z" stroke="black" stroke-width="0.346181" stroke-miterlimit="10"/>
<path d="M98.6462 202.787H91.062V209.897H98.6462V202.787Z" stroke="black" stroke-width="0.346181" stroke-miterlimit="10"/>
<path d="M109.766 202.787H102.182V209.897H109.766V202.787Z" stroke="black" stroke-width="0.346181" stroke-miterlimit="10"/>
<path d="M120.893 202.787H113.309V209.897H120.893V202.787Z" stroke="black" stroke-width="0.346181" stroke-miterlimit="10"/>
<path d="M87.5265 213.091H79.9424V220.201H87.5265V213.091Z" stroke="black" stroke-width="0.346181" stroke-miterlimit="10"/>
<path d="M98.6462 213.091H91.062V220.201H98.6462V213.091Z" stroke="black" stroke-width="0.346181" stroke-miterlimit="10"/>
<path d="M109.766 213.091H102.182V220.201H109.766V213.091Z" stroke="black" stroke-width="0.346181" stroke-miterlimit="10"/>
<path d="M120.893 213.091H113.309V220.201H120.893V213.091Z" stroke="black" stroke-width="0.346181" stroke-miterlimit="10"/>
<path d="M87.5265 224.366H79.9424V231.476H87.5265V224.366Z" stroke="black" stroke-width="0.346181" stroke-miterlimit="10"/>
<path d="M98.6462 224.366H91.062V231.476H98.6462V224.366Z" stroke="black" stroke-width="0.346181" stroke-miterlimit="10"/>
<path d="M109.766 224.366H102.182V231.476H109.766V224.366Z" stroke="black" stroke-width="0.346181" stroke-miterlimit="10"/>
<path d="M120.893 224.366H113.309V231.476H120.893V224.366Z" stroke="black" stroke-width="0.346181" stroke-miterlimit="10"/>
<path d="M87.5265 235.633H79.9424V242.743H87.5265V235.633Z" stroke="black" stroke-width="0.346181" stroke-miterlimit="10"/>
<path d="M98.6462 235.633H91.062V242.743H98.6462V235.633Z" stroke="black" stroke-width="0.346181" stroke-miterlimit="10"/>
<path d="M109.766 235.633H102.182V242.743H109.766V235.633Z" stroke="black" stroke-width="0.346181" stroke-miterlimit="10"/>
<path d="M120.893 235.633H113.309V242.743H120.893V235.633Z" stroke="black" stroke-width="0.346181" stroke-miterlimit="10"/>
<path d="M87.5265 246.908H79.9424V254.019H87.5265V246.908Z" stroke="black" stroke-width="0.346181" stroke-miterlimit="10"/>
<path d="M98.6462 246.908H91.062V254.019H98.6462V246.908Z" stroke="black" stroke-width="0.346181" stroke-miterlimit="10"/>
<path d="M109.766 246.908H102.182V254.019H109.766V246.908Z" stroke="black" stroke-width="0.346181" stroke-miterlimit="10"/>
<path d="M120.893 246.908H113.309V254.019H120.893V246.908Z" stroke="black" stroke-width="0.346181" stroke-miterlimit="10"/>
<path d="M87.5265 258.184H79.9424V265.294H87.5265V258.184Z" stroke="black" stroke-width="0.346181" stroke-miterlimit="10"/>
<path d="M98.6462 258.184H91.062V265.294H98.6462V258.184Z" stroke="black" stroke-width="0.346181" stroke-miterlimit="10"/>
<path d="M109.766 258.184H102.182V265.294H109.766V258.184Z" stroke="black" stroke-width="0.346181" stroke-miterlimit="10"/>
<path d="M120.893 258.184H113.309V265.294H120.893V258.184Z" stroke="black" stroke-width="0.346181" stroke-miterlimit="10"/>
<path d="M87.5265 269.451H79.9424V276.561H87.5265V269.451Z" stroke="black" stroke-width="0.346181" stroke-miterlimit="10"/>
<path d="M98.6462 269.451H91.062V276.561H98.6462V269.451Z" stroke="black" stroke-width="0.346181" stroke-miterlimit="10"/>
<path d="M109.766 269.451H102.182V276.561H109.766V269.451Z" stroke="black" stroke-width="0.346181" stroke-miterlimit="10"/>
<path d="M120.893 269.451H113.309V276.561H120.893V269.451Z" stroke="black" stroke-width="0.346181" stroke-miterlimit="10"/>
<path d="M87.5265 280.726H79.9424V287.836H87.5265V280.726Z" stroke="black" stroke-width="0.346181" stroke-miterlimit="10"/>
<path d="M98.6462 280.726H91.062V287.836H98.6462V280.726Z" stroke="black" stroke-width="0.346181" stroke-miterlimit="10"/>
<path d="M109.766 280.726H102.182V287.836H109.766V280.726Z" stroke="black" stroke-width="0.346181" stroke-miterlimit="10"/>
<path d="M120.893 280.726H113.309V287.836H120.893V280.726Z" stroke="black" stroke-width="0.346181" stroke-miterlimit="10"/>
<path d="M87.5265 291.994H79.9424V299.104H87.5265V291.994Z" stroke="black" stroke-width="0.346181" stroke-miterlimit="10"/>
<path d="M98.6462 291.994H91.062V299.104H98.6462V291.994Z" stroke="black" stroke-width="0.346181" stroke-miterlimit="10"/>
<path d="M109.766 291.994H102.182V299.104H109.766V291.994Z" stroke="black" stroke-width="0.346181" stroke-miterlimit="10"/>
<path d="M120.893 291.994H113.309V299.104H120.893V291.994Z" stroke="black" stroke-width="0.346181" stroke-miterlimit="10"/>
<path d="M130.964 213.091H123.38V220.201H130.964V213.091Z" stroke="black" stroke-width="0.346181" stroke-miterlimit="10"/>
<path d="M142.091 213.091H134.507V220.201H142.091V213.091Z" stroke="black" stroke-width="0.346181" stroke-miterlimit="10"/>
<path d="M153.212 213.091H145.627V220.201H153.212V213.091Z" stroke="black" stroke-width="0.346181" stroke-miterlimit="10"/>
<path d="M164.331 213.091H156.747V220.201H164.331V213.091Z" stroke="black" stroke-width="0.346181" stroke-miterlimit="10"/>
<path d="M130.964 224.366H123.38V231.476H130.964V224.366Z" stroke="black" stroke-width="0.346181" stroke-miterlimit="10"/>
<path d="M142.091 224.366H134.507V231.476H142.091V224.366Z" stroke="black" stroke-width="0.346181" stroke-miterlimit="10"/>
<path d="M153.212 224.366H145.627V231.476H153.212V224.366Z" stroke="black" stroke-width="0.346181" stroke-miterlimit="10"/>
<path d="M164.331 224.366H156.747V231.476H164.331V224.366Z" stroke="black" stroke-width="0.346181" stroke-miterlimit="10"/>
<path d="M130.964 235.633H123.38V242.743H130.964V235.633Z" stroke="black" stroke-width="0.346181" stroke-miterlimit="10"/>
<path d="M142.091 235.633H134.507V242.743H142.091V235.633Z" stroke="black" stroke-width="0.346181" stroke-miterlimit="10"/>
<path d="M153.212 235.633H145.627V242.743H153.212V235.633Z" stroke="black" stroke-width="0.346181" stroke-miterlimit="10"/>
<path d="M164.331 235.633H156.747V242.743H164.331V235.633Z" stroke="black" stroke-width="0.346181" stroke-miterlimit="10"/>
<path d="M130.964 246.908H123.38V254.019H130.964V246.908Z" stroke="black" stroke-width="0.346181" stroke-miterlimit="10"/>
<path d="M142.091 246.908H134.507V254.019H142.091V246.908Z" stroke="black" stroke-width="0.346181" stroke-miterlimit="10"/>
<path d="M153.212 246.908H145.627V254.019H153.212V246.908Z" stroke="black" stroke-width="0.346181" stroke-miterlimit="10"/>
<path d="M164.331 246.908H156.747V254.019H164.331V246.908Z" stroke="black" stroke-width="0.346181" stroke-miterlimit="10"/>
<path d="M130.964 258.184H123.38V265.294H130.964V258.184Z" stroke="black" stroke-width="0.346181" stroke-miterlimit="10"/>
<path d="M142.091 258.184H134.507V265.294H142.091V258.184Z" stroke="black" stroke-width="0.346181" stroke-miterlimit="10"/>
<path d="M153.212 258.184H145.627V265.294H153.212V258.184Z" stroke="black" stroke-width="0.346181" stroke-miterlimit="10"/>
<path d="M164.331 258.184H156.747V265.294H164.331V258.184Z" stroke="black" stroke-width="0.346181" stroke-miterlimit="10"/>
<path d="M130.964 269.451H123.38V276.561H130.964V269.451Z" stroke="black" stroke-width="0.346181" stroke-miterlimit="10"/>
<path d="M142.091 269.451H134.507V276.561H142.091V269.451Z" stroke="black" stroke-width="0.346181" stroke-miterlimit="10"/>
<path d="M153.212 269.451H145.627V276.561H153.212V269.451Z" stroke="black" stroke-width="0.346181" stroke-miterlimit="10"/>
<path d="M164.331 269.451H156.747V276.561H164.331V269.451Z" stroke="black" stroke-width="0.346181" stroke-miterlimit="10"/>
<path d="M130.964 280.726H123.38V287.836H130.964V280.726Z" stroke="black" stroke-width="0.346181" stroke-miterlimit="10"/>
<path d="M142.091 280.726H134.507V287.836H142.091V280.726Z" stroke="black" stroke-width="0.346181" stroke-miterlimit="10"/>
<path d="M153.212 280.726H145.627V287.836H153.212V280.726Z" stroke="black" stroke-width="0.346181" stroke-miterlimit="10"/>
<path d="M164.331 280.726H156.747V287.836H164.331V280.726Z" stroke="black" stroke-width="0.346181" stroke-miterlimit="10"/>
<path d="M130.964 291.994H123.38V299.104H130.964V291.994Z" stroke="black" stroke-width="0.346181" stroke-miterlimit="10"/>
<path d="M142.091 291.994H134.507V299.104H142.091V291.994Z" stroke="black" stroke-width="0.346181" stroke-miterlimit="10"/>
<path d="M153.212 291.994H145.627V299.104H153.212V291.994Z" stroke="black" stroke-width="0.346181" stroke-miterlimit="10"/>
<path d="M164.331 291.994H156.747V299.104H164.331V291.994Z" stroke="black" stroke-width="0.346181" stroke-miterlimit="10"/>
<path d="M43.4665 213.091H35.8823V220.201H43.4665V213.091Z" stroke="black" stroke-width="0.346181" stroke-miterlimit="10"/>
<path d="M54.5939 213.091H47.0098V220.201H54.5939V213.091Z" stroke="black" stroke-width="0.346181" stroke-miterlimit="10"/>
<path d="M65.7145 213.091H58.1304V220.201H65.7145V213.091Z" stroke="black" stroke-width="0.346181" stroke-miterlimit="10"/>
<path d="M76.8341 213.091H69.25V220.201H76.8341V213.091Z" stroke="black" stroke-width="0.346181" stroke-miterlimit="10"/>
<path d="M43.4665 224.366H35.8823V231.476H43.4665V224.366Z" stroke="black" stroke-width="0.346181" stroke-miterlimit="10"/>
<path d="M54.5939 224.366H47.0098V231.476H54.5939V224.366Z" stroke="black" stroke-width="0.346181" stroke-miterlimit="10"/>
<path d="M65.7145 224.366H58.1304V231.476H65.7145V224.366Z" stroke="black" stroke-width="0.346181" stroke-miterlimit="10"/>
<path d="M76.8341 224.366H69.25V231.476H76.8341V224.366Z" stroke="black" stroke-width="0.346181" stroke-miterlimit="10"/>
<path d="M43.4665 235.633H35.8823V242.743H43.4665V235.633Z" stroke="black" stroke-width="0.346181" stroke-miterlimit="10"/>
<path d="M54.5939 235.633H47.0098V242.743H54.5939V235.633Z" stroke="black" stroke-width="0.346181" stroke-miterlimit="10"/>
<path d="M65.7145 235.633H58.1304V242.743H65.7145V235.633Z" stroke="black" stroke-width="0.346181" stroke-miterlimit="10"/>
<path d="M76.8341 235.633H69.25V242.743H76.8341V235.633Z" stroke="black" stroke-width="0.346181" stroke-miterlimit="10"/>
<path d="M43.4665 246.908H35.8823V254.019H43.4665V246.908Z" stroke="black" stroke-width="0.346181" stroke-miterlimit="10"/>
<path d="M54.5939 246.908H47.0098V254.019H54.5939V246.908Z" stroke="black" stroke-width="0.346181" stroke-miterlimit="10"/>
<path d="M65.7145 246.908H58.1304V254.019H65.7145V246.908Z" stroke="black" stroke-width="0.346181" stroke-miterlimit="10"/>
<path d="M76.8341 246.908H69.25V254.019H76.8341V246.908Z" stroke="black" stroke-width="0.346181" stroke-miterlimit="10"/>
<path d="M43.4665 258.184H35.8823V265.294H43.4665V258.184Z" stroke="black" stroke-width="0.346181" stroke-miterlimit="10"/>
<path d="M54.5939 258.184H47.0098V265.294H54.5939V258.184Z" stroke="black" stroke-width="0.346181" stroke-miterlimit="10"/>
<path d="M65.7145 258.184H58.1304V265.294H65.7145V258.184Z" stroke="black" stroke-width="0.346181" stroke-miterlimit="10"/>
<path d="M76.8341 258.184H69.25V265.294H76.8341V258.184Z" stroke="black" stroke-width="0.346181" stroke-miterlimit="10"/>
<path d="M43.4665 269.451H35.8823V276.561H43.4665V269.451Z" stroke="black" stroke-width="0.346181" stroke-miterlimit="10"/>
<path d="M54.5939 269.451H47.0098V276.561H54.5939V269.451Z" stroke="black" stroke-width="0.346181" stroke-miterlimit="10"/>
<path d="M65.7145 269.451H58.1304V276.561H65.7145V269.451Z" stroke="black" stroke-width="0.346181" stroke-miterlimit="10"/>
<path d="M76.8341 269.451H69.25V276.561H76.8341V269.451Z" stroke="black" stroke-width="0.346181" stroke-miterlimit="10"/>
<path d="M43.4665 280.726H35.8823V287.836H43.4665V280.726Z" stroke="black" stroke-width="0.346181" stroke-miterlimit="10"/>
<path d="M54.5939 280.726H47.0098V287.836H54.5939V280.726Z" stroke="black" stroke-width="0.346181" stroke-miterlimit="10"/>
<path d="M65.7145 280.726H58.1304V287.836H65.7145V280.726Z" stroke="black" stroke-width="0.346181" stroke-miterlimit="10"/>
<path d="M76.8341 280.726H69.25V287.836H76.8341V280.726Z" stroke="black" stroke-width="0.346181" stroke-miterlimit="10"/>
<path d="M43.4665 291.994H35.8823V299.104H43.4665V291.994Z" stroke="black" stroke-width="0.346181" stroke-miterlimit="10"/>
<path d="M54.5939 291.994H47.0098V299.104H54.5939V291.994Z" stroke="black" stroke-width="0.346181" stroke-miterlimit="10"/>
<path d="M65.7145 291.994H58.1304V299.104H65.7145V291.994Z" stroke="black" stroke-width="0.346181" stroke-miterlimit="10"/>
<path d="M76.8341 291.994H69.25V299.104H76.8341V291.994Z" stroke="black" stroke-width="0.346181" stroke-miterlimit="10"/>
<path d="M291.933 190.999H284.349V198.109H291.933V190.999Z" stroke="black" stroke-width="0.346181" stroke-miterlimit="10"/>
<path d="M303.053 190.999H295.469V198.109H303.053V190.999Z" stroke="black" stroke-width="0.346181" stroke-miterlimit="10"/>
<path d="M314.173 190.999H306.588V198.109H314.173V190.999Z" stroke="black" stroke-width="0.346181" stroke-miterlimit="10"/>
<path d="M325.3 190.999H317.716V198.109H325.3V190.999Z" stroke="black" stroke-width="0.346181" stroke-miterlimit="10"/>
<path d="M291.933 202.274H284.349V209.384H291.933V202.274Z" stroke="black" stroke-width="0.346181" stroke-miterlimit="10"/>
<path d="M303.053 202.274H295.469V209.384H303.053V202.274Z" stroke="black" stroke-width="0.346181" stroke-miterlimit="10"/>
<path d="M314.173 202.274H306.588V209.384H314.173V202.274Z" stroke="black" stroke-width="0.346181" stroke-miterlimit="10"/>
<path d="M325.3 202.274H317.716V209.384H325.3V202.274Z" stroke="black" stroke-width="0.346181" stroke-miterlimit="10"/>
<path d="M291.933 213.542H284.349V220.652H291.933V213.542Z" stroke="black" stroke-width="0.346181" stroke-miterlimit="10"/>
<path d="M303.053 213.542H295.469V220.652H303.053V213.542Z" stroke="black" stroke-width="0.346181" stroke-miterlimit="10"/>
<path d="M314.173 213.542H306.588V220.652H314.173V213.542Z" stroke="black" stroke-width="0.346181" stroke-miterlimit="10"/>
<path d="M325.3 213.542H317.716V220.652H325.3V213.542Z" stroke="black" stroke-width="0.346181" stroke-miterlimit="10"/>
<path d="M291.933 224.817H284.349V231.927H291.933V224.817Z" stroke="black" stroke-width="0.346181" stroke-miterlimit="10"/>
<path d="M303.053 224.817H295.469V231.927H303.053V224.817Z" stroke="black" stroke-width="0.346181" stroke-miterlimit="10"/>
<path d="M314.173 224.817H306.588V231.927H314.173V224.817Z" stroke="black" stroke-width="0.346181" stroke-miterlimit="10"/>
<path d="M325.3 224.817H317.716V231.927H325.3V224.817Z" stroke="black" stroke-width="0.346181" stroke-miterlimit="10"/>
<path d="M291.933 236.084H284.349V243.194H291.933V236.084Z" stroke="black" stroke-width="0.346181" stroke-miterlimit="10"/>
<path d="M303.053 236.084H295.469V243.194H303.053V236.084Z" stroke="black" stroke-width="0.346181" stroke-miterlimit="10"/>
<path d="M314.173 236.084H306.588V243.194H314.173V236.084Z" stroke="black" stroke-width="0.346181" stroke-miterlimit="10"/>
<path d="M325.3 236.084H317.716V243.194H325.3V236.084Z" stroke="black" stroke-width="0.346181" stroke-miterlimit="10"/>
<path d="M291.933 247.359H284.349V254.469H291.933V247.359Z" stroke="black" stroke-width="0.346181" stroke-miterlimit="10"/>
<path d="M303.053 247.359H295.469V254.469H303.053V247.359Z" stroke="black" stroke-width="0.346181" stroke-miterlimit="10"/>
<path d="M314.173 247.359H306.588V254.469H314.173V247.359Z" stroke="black" stroke-width="0.346181" stroke-miterlimit="10"/>
<path d="M325.3 247.359H317.716V254.469H325.3V247.359Z" stroke="black" stroke-width="0.346181" stroke-miterlimit="10"/>
<path d="M291.933 258.627H284.349V265.737H291.933V258.627Z" stroke="black" stroke-width="0.346181" stroke-miterlimit="10"/>
<path d="M303.053 258.627H295.469V265.737H303.053V258.627Z" stroke="black" stroke-width="0.346181" stroke-miterlimit="10"/>
<path d="M314.173 258.627H306.588V265.737H314.173V258.627Z" stroke="black" stroke-width="0.346181" stroke-miterlimit="10"/>
<path d="M325.3 258.627H317.716V265.737H325.3V258.627Z" stroke="black" stroke-width="0.346181" stroke-miterlimit="10"/>
<path d="M291.933 269.902H284.349V277.012H291.933V269.902Z" stroke="black" stroke-width="0.346181" stroke-miterlimit="10"/>
<path d="M303.053 269.902H295.469V277.012H303.053V269.902Z" stroke="black" stroke-width="0.346181" stroke-miterlimit="10"/>
<path d="M314.173 269.902H306.588V277.012H314.173V269.902Z" stroke="black" stroke-width="0.346181" stroke-miterlimit="10"/>
<path d="M325.3 269.902H317.716V277.012H325.3V269.902Z" stroke="black" stroke-width="0.346181" stroke-miterlimit="10"/>
<path d="M199.517 100.315V306.276" stroke="black" stroke-width="0.346181" stroke-miterlimit="10"/>
<path d="M207.039 100.315V306.276" stroke="black" stroke-width="0.346181" stroke-miterlimit="10"/>
<path d="M214.561 100.315V306.276" stroke="black" stroke-width="0.346181" stroke-miterlimit="10"/>
<path d="M222.083 100.315V306.276" stroke="black" stroke-width="0.346181" stroke-miterlimit="10"/>
<path d="M229.604 100.315V306.276" stroke="black" stroke-width="0.346181" stroke-miterlimit="10"/>
<path d="M237.126 100.315V306.276" stroke="black" stroke-width="0.346181" stroke-miterlimit="10"/>
<path d="M244.649 100.315V306.276" stroke="black" stroke-width="0.346181" stroke-miterlimit="10"/>
<path d="M252.171 100.315V306.276" stroke="black" stroke-width="0.346181" stroke-miterlimit="10"/>
</g>
<path d="M6.40861 267.679C8.67737 268.09 11.0013 268.09 13.2701 267.679C13.2701 269.07 13.2701 270.539 13.4333 272.062C13.609 274.287 13.9809 276.492 14.5445 278.652V278.729C14.1637 278.123 13.037 276.476 12.936 276.359C11.5139 274.72 7.79178 272.373 5.55384 273.329C5.18536 273.496 4.85647 273.74 4.58871 274.044C4.32094 274.348 4.12034 274.704 4.00004 275.091C3.87973 275.478 3.84243 275.885 3.89058 276.287C3.93873 276.689 4.07125 277.077 4.27945 277.424C5.10314 278.924 7.08466 279.67 8.69318 279.903C10.5037 280.167 14.3191 279.063 14.6222 278.978C15.2562 281.159 16.035 283.296 16.9534 285.373C17.474 286.593 18.0413 287.798 18.6241 289.002C18.2744 288.489 17.9636 288.039 17.9092 287.976C16.4871 286.337 12.7728 283.998 10.5348 284.946C10.1665 285.114 9.83774 285.357 9.56987 285.661C9.302 285.964 9.10105 286.321 8.9801 286.707C8.85915 287.094 8.82091 287.501 8.86787 287.903C8.91483 288.305 9.04594 288.693 9.25267 289.041C10.0841 290.548 12.0656 291.294 13.6742 291.528C15.2827 291.761 18.5774 290.883 19.44 290.642L20.116 292.017C21.2272 294.216 22.3384 296.407 23.3564 298.591C23.7216 299.368 24.048 300.145 24.3821 300.922C24.0713 300.472 23.8071 300.091 23.7605 300.036C22.3384 298.389 18.6241 296.05 16.3783 297.006C16.011 297.174 15.6831 297.417 15.4161 297.72C15.149 298.023 14.9489 298.379 14.8287 298.765C14.7084 299.151 14.6708 299.557 14.7182 299.958C14.7657 300.36 14.8971 300.746 15.104 301.093C15.9354 302.601 17.9169 303.347 19.5177 303.58C21.1184 303.813 24.1024 303.028 25.1281 302.741C25.4467 303.518 25.7575 304.341 26.0295 305.126C26.2004 305.67 26.4025 306.175 26.5424 306.735C26.6822 307.294 26.8454 307.815 27.0008 308.351C27.2495 309.392 27.5137 310.465 27.7313 311.459C27.8867 312.166 28.0265 312.85 28.1664 313.534C27.809 312.757 27.0941 311.273 27.0164 311.156C25.8585 309.315 22.5482 306.439 20.186 307.038C19.7925 307.147 19.4268 307.339 19.1133 307.601C18.7997 307.862 18.5455 308.188 18.3676 308.555C18.1897 308.923 18.0921 309.324 18.0814 309.733C18.0707 310.141 18.1471 310.547 18.3055 310.923C18.896 312.532 20.7377 313.573 22.2918 314.031C24.0014 314.552 27.7857 314.078 28.2597 314.031C28.485 315.158 28.6948 316.261 28.8813 317.303C29.0212 318.08 29.1455 318.857 29.2621 319.634H30.7774C30.6297 318.818 30.4743 317.963 30.2956 317.077C30.0702 315.927 29.806 314.707 29.5185 313.449C30.6574 312.998 31.768 312.479 32.8444 311.894C34.0877 313.246 37.2814 314.824 37.701 315.003C37.2658 316.067 36.8307 317.101 36.4033 318.072C36.178 318.608 35.9526 319.113 35.7273 319.626H37.3513C37.4834 319.3 37.6233 318.981 37.7554 318.647C38.2061 317.559 38.6568 316.394 39.1153 315.189C39.5737 315.29 43.3192 316.052 45.0676 315.655C46.6217 315.298 48.5721 314.404 49.2793 312.835C49.4585 312.474 49.5605 312.081 49.5784 311.679C49.5964 311.277 49.5301 310.876 49.3837 310.501C49.2374 310.126 49.0142 309.786 48.7285 309.503C48.4429 309.22 48.1011 308.999 47.7251 308.856C45.3939 308.079 41.8972 310.698 40.6072 312.446C40.5295 312.547 39.8302 313.759 39.395 314.536C39.5815 314.039 39.768 313.565 39.9467 313.06C40.3197 312.058 40.6539 311.04 41.0191 309.952C41.1823 309.423 41.3454 308.887 41.5008 308.343C41.6563 307.799 41.7884 307.216 41.936 306.657C42.2546 305.336 42.5033 303.984 42.7131 302.616C43.5989 302.943 46.7383 304.03 48.3623 303.922C49.9864 303.813 52.0145 303.207 52.9548 301.769C53.1872 301.438 53.3471 301.061 53.4242 300.663C53.5013 300.266 53.4937 299.857 53.4021 299.462C53.3105 299.068 53.1368 298.697 52.8923 298.374C52.6479 298.051 52.3382 297.784 51.9835 297.589C49.7844 296.4 45.899 298.459 44.3449 299.99C44.2517 300.083 43.2726 301.311 42.7442 301.995C42.8685 301.171 43.0084 300.347 43.1094 299.516C43.4047 297.099 43.6378 294.644 43.8864 292.204L44.1196 289.958C44.4382 290.074 48.137 291.458 49.9631 291.325C51.5794 291.217 53.6153 290.618 54.5555 289.181C54.7879 288.849 54.9479 288.472 55.0249 288.075C55.102 287.677 55.0945 287.268 55.0028 286.874C54.9112 286.479 54.7375 286.109 54.4931 285.786C54.2487 285.463 53.939 285.195 53.5842 285C51.424 283.889 47.5386 285.94 46.0001 287.479C45.8835 287.596 44.4459 289.36 44.1351 289.81C44.3138 288.163 44.5003 286.523 44.749 284.915C45.0809 282.742 45.5533 280.593 46.1632 278.481C46.3031 278.535 50.1651 280.035 52.0378 279.864C53.6541 279.747 55.6901 279.149 56.6225 277.711C56.8539 277.38 57.0132 277.005 57.0901 276.608C57.167 276.212 57.1598 275.804 57.069 275.411C56.9781 275.017 56.8057 274.647 56.5628 274.325C56.3199 274.002 56.012 273.734 55.659 273.538C53.491 272.42 49.6134 274.479 48.0748 276.01C47.9738 276.111 46.8937 277.455 46.3964 278.108L46.272 278.038C46.9386 275.931 47.7943 273.89 48.8286 271.938C49.3803 270.85 49.9709 269.847 50.5692 268.884C51.2608 269.226 54.4545 270.772 56.133 270.834C57.8114 270.896 59.8396 270.531 60.9275 269.202C61.1943 268.899 61.3942 268.542 61.5142 268.156C61.6342 267.769 61.6716 267.362 61.624 266.961C61.5763 266.559 61.4447 266.172 61.2377 265.825C61.0307 265.477 60.7529 265.177 60.4224 264.944C58.3942 263.6 54.3146 265.216 52.6517 266.576C52.5896 266.623 52.1622 267.05 51.7037 267.508C51.7037 267.407 51.7037 267.291 51.7037 267.159C51.7037 267.027 51.8358 266.941 51.9058 266.84C52.9237 265.286 53.9494 263.965 54.8664 262.784C55.3948 262.116 55.8843 261.525 56.3506 260.973C57.2053 260.973 60.6555 260.857 62.163 260.15C63.6705 259.443 65.2713 258.168 65.6676 256.49C65.7651 256.097 65.7788 255.688 65.7078 255.289C65.6368 254.891 65.4826 254.512 65.2554 254.177C65.0281 253.842 64.7329 253.558 64.3889 253.345C64.0448 253.132 63.6598 252.993 63.2587 252.938C60.8342 252.682 57.9591 256 57.0421 257.982C56.9644 258.153 56.0786 260.981 56.1252 260.981H56.1796C55.7211 261.502 55.2316 262.069 54.7187 262.691C53.7707 263.848 52.7217 265.169 51.6726 266.669C51.6726 264.338 51.2375 259.466 48.1448 259.171C44.0652 258.782 42.8996 263.444 45.425 265.97C46.874 267.32 48.7993 268.041 50.779 267.975C50.0019 269.14 49.2249 270.391 48.4478 271.759C47.3667 273.709 46.4592 275.75 45.7359 277.859V277.937C45.7359 277.222 45.7359 275.232 45.7359 275.077C45.4561 272.917 43.6533 268.915 41.2522 268.472C40.8526 268.409 40.4444 268.432 40.054 268.537C39.6637 268.643 39.3 268.83 38.9869 269.086C38.6737 269.342 38.4181 269.661 38.2367 270.023C38.0553 270.384 37.9522 270.78 37.9341 271.184C37.7943 272.901 39.0376 274.611 40.2653 275.699C41.6329 276.919 45.425 278.1 45.7048 278.193C45.0238 280.359 44.489 282.568 44.104 284.806C43.8709 286.104 43.6766 287.425 43.4979 288.753C43.4979 288.132 43.4979 287.58 43.4979 287.502C43.2182 285.35 41.4154 281.348 39.0142 280.905C38.6147 280.842 38.2064 280.865 37.8161 280.97C37.4257 281.076 37.0621 281.263 36.7489 281.519C36.4358 281.775 36.1802 282.094 35.9987 282.456C35.8173 282.817 35.7142 283.213 35.6962 283.617C35.5563 285.327 36.7996 287.044 38.0274 288.124C39.2551 289.204 42.4722 290.292 43.327 290.564C43.2648 291.077 43.1949 291.582 43.1327 292.118C42.8452 294.558 42.5577 296.998 42.2158 299.384C42.0914 300.223 41.936 301.047 41.7884 301.87C41.7884 301.326 41.7884 300.86 41.7884 300.79C41.5086 298.638 39.7058 294.636 37.3125 294.193C36.9125 294.13 36.5039 294.152 36.1131 294.258C35.7223 294.364 35.3582 294.551 35.0445 294.807C34.7307 295.063 34.4744 295.382 34.2921 295.743C34.1098 296.105 34.0058 296.5 33.9866 296.905C33.8468 298.614 35.0901 300.332 36.3178 301.412C37.5456 302.492 40.444 303.471 41.4542 303.805C41.2755 304.644 41.1045 305.484 40.8947 306.292C40.7393 306.836 40.6228 307.372 40.4363 307.916L39.9234 309.517C39.5582 310.519 39.1463 311.56 38.8044 312.532C38.5402 313.208 38.2838 313.853 38.0274 314.498C38.1595 313.658 38.3848 312.019 38.3848 311.879C38.3641 309.966 37.8473 308.092 36.8851 306.439C36.9097 305.985 36.8305 305.53 36.6534 305.111C36.4763 304.691 36.2061 304.318 35.8631 304.018C35.5201 303.718 35.1134 303.501 34.6738 303.382C34.2343 303.263 33.7734 303.246 33.3261 303.331C30.9949 303.961 29.4408 308.087 29.3709 310.263C29.3709 310.387 29.4486 311.817 29.5107 312.671C29.3942 312.159 29.2854 311.661 29.1533 311.117C28.9124 310.076 28.6327 309.043 28.3374 307.931C28.182 307.403 28.0188 306.867 27.8556 306.323C27.6924 305.779 27.4748 305.235 27.2806 304.675C26.8221 303.409 26.2859 302.142 25.7264 300.876C26.6356 300.658 29.8604 299.834 31.1659 298.84C32.4714 297.845 33.8157 296.237 33.8079 294.519C33.819 294.115 33.7449 293.713 33.5905 293.339C33.4361 292.966 33.2048 292.629 32.9117 292.35C32.6186 292.072 32.2701 291.858 31.889 291.723C31.5079 291.588 31.1027 291.535 30.6996 291.566C28.283 291.831 26.1771 295.685 25.742 297.783C25.742 297.915 25.571 299.485 25.5089 300.339C25.1592 299.562 24.8173 298.824 24.4443 298.07C23.3642 295.895 22.1986 293.719 21.0485 291.551C20.6988 290.883 20.3569 290.214 20.0072 289.554C20.3336 289.476 24.1878 288.582 25.6332 287.471C26.9231 286.484 28.2908 284.868 28.2752 283.143C28.2864 282.739 28.2123 282.337 28.0578 281.964C27.9034 281.591 27.6719 281.254 27.3787 280.976C27.0854 280.699 26.7369 280.486 26.3558 280.351C25.9747 280.217 25.5696 280.165 25.167 280.198C22.7425 280.462 20.6444 284.316 20.2015 286.414C20.2015 286.578 19.9684 288.823 19.9451 289.398C19.168 287.93 18.4376 286.461 17.7615 284.985C16.8346 282.993 16.0403 280.942 15.3837 278.846C15.5313 278.846 19.5565 277.898 21.0407 276.756C22.3307 275.769 23.6983 274.152 23.6828 272.435C23.6938 272.031 23.6197 271.629 23.4653 271.255C23.3109 270.882 23.0797 270.545 22.7865 270.266C22.4934 269.988 22.145 269.774 21.7639 269.639C21.3828 269.504 20.9776 269.45 20.5745 269.482C18.1501 269.746 16.052 273.601 15.6091 275.699C15.6091 275.839 15.4303 277.556 15.3682 278.372H15.2361C14.63 276.245 14.2139 274.068 13.9928 271.868C13.8607 270.656 13.7985 269.498 13.7596 268.363C14.5367 268.27 18.0257 267.804 19.4788 266.926C20.9319 266.048 22.4006 264.594 22.5871 262.916C22.643 262.516 22.6138 262.108 22.5014 261.719C22.3891 261.331 22.1961 260.971 21.935 260.662C21.6739 260.353 21.3507 260.103 20.9864 259.928C20.6221 259.752 20.2249 259.656 19.8207 259.645C17.3808 259.645 14.8708 263.242 14.2026 265.309C14.2026 265.418 13.9228 266.607 13.7596 267.47C13.7596 266.957 13.7596 266.428 13.7596 265.915C13.7596 264.074 13.8762 262.388 13.9928 260.896C14.0627 260.049 14.1482 259.287 14.2337 258.564C14.933 258.075 17.7538 256.093 18.6163 254.679C19.4788 253.265 20.1704 251.291 19.5255 249.69C19.389 249.309 19.174 248.961 18.8945 248.669C18.615 248.376 18.2772 248.145 17.9029 247.992C17.5286 247.838 17.1262 247.764 16.7217 247.776C16.3172 247.787 15.9196 247.884 15.5547 248.059C13.3944 249.178 12.8272 253.498 13.1846 255.674C13.1846 255.86 14.0316 258.704 14.0705 258.681H14.1093C14.0161 259.373 13.9228 260.103 13.8373 260.911C13.6897 262.403 13.5343 264.097 13.4877 265.947C13.4877 266.281 13.4877 266.63 13.4877 266.98C12.5552 265.55 9.60235 261.541 6.49409 262.395C2.42227 263.553 3.30812 266.949 6.40861 267.679Z" fill="#263238"/>
<path d="M61.3162 286.438C62.7657 286.696 64.2493 286.696 65.6988 286.438C65.6861 287.371 65.7224 288.305 65.8076 289.235C65.9142 290.655 66.1482 292.062 66.507 293.439C66.5095 293.457 66.5095 293.475 66.507 293.494C66.2661 293.105 65.5434 292.056 65.4812 291.978C64.5721 290.929 62.202 289.437 60.7722 290.043C60.5401 290.155 60.3339 290.313 60.1669 290.509C59.9999 290.705 59.8757 290.934 59.8025 291.18C59.7293 291.427 59.7086 291.686 59.7418 291.942C59.775 292.197 59.8613 292.442 59.9952 292.662C60.3269 293.108 60.7503 293.477 61.2369 293.745C61.7235 294.013 62.262 294.174 62.8159 294.216C64.1003 294.208 65.3761 294.007 66.6002 293.618C66.9964 295.013 67.4897 296.379 68.0766 297.705C68.4108 298.482 68.776 299.259 69.149 300.036L68.6905 299.384C67.7813 298.335 65.4113 296.843 63.9815 297.449C63.7496 297.559 63.5436 297.717 63.3766 297.912C63.2096 298.107 63.0855 298.335 63.0122 298.581C62.939 298.828 62.9182 299.086 62.9513 299.341C62.9845 299.596 63.0707 299.84 63.2044 300.06C63.5336 300.508 63.9564 300.879 64.4436 301.148C64.9307 301.416 65.4704 301.575 66.0252 301.614C67.2719 301.618 68.5117 301.429 69.7007 301.054C69.8483 301.342 69.9882 301.637 70.1359 301.932C70.843 303.339 71.5501 304.73 72.2028 306.129C72.436 306.618 72.6458 307.108 72.8556 307.597C72.6613 307.31 72.4904 307.069 72.4593 307.038C71.5501 305.989 69.1801 304.489 67.7503 305.095C67.5068 305.198 67.2881 305.352 67.109 305.546C66.9299 305.74 66.7946 305.971 66.7121 306.222C66.6297 306.473 66.602 306.739 66.6309 307.002C66.6599 307.264 66.7448 307.518 66.88 307.745C67.2117 308.191 67.6351 308.56 68.1217 308.828C68.6083 309.096 69.1467 309.257 69.7007 309.299C70.9153 309.307 72.1238 309.126 73.283 308.763C73.485 309.268 73.687 309.781 73.858 310.317C73.9668 310.659 74.0989 310.985 74.1844 311.343C74.2698 311.7 74.3786 312.034 74.4719 312.376C74.6351 313.037 74.806 313.721 74.9381 314.373C75.0391 314.824 75.1324 315.259 75.2179 315.694C74.9925 315.205 74.534 314.257 74.4874 314.179C73.7104 313.006 71.6278 311.164 70.1281 311.552C69.8795 311.622 69.6484 311.744 69.4499 311.909C69.2515 312.074 69.0901 312.279 68.9764 312.511C68.8627 312.743 68.7992 312.996 68.7901 313.254C68.7811 313.512 68.8265 313.769 68.9236 314.008C69.1765 314.507 69.5358 314.945 69.9762 315.29C70.4166 315.635 70.9273 315.879 71.4724 316.005C72.7344 316.197 74.0181 316.197 75.28 316.005C75.4277 316.72 75.5598 317.427 75.6763 318.095C75.7618 318.6 75.8473 319.082 75.9172 319.556H76.8885C76.7953 319.036 76.6943 318.492 76.5777 317.924C76.4378 317.194 76.2669 316.409 76.0882 315.593C76.815 315.303 77.5235 314.968 78.2096 314.591C79.1483 315.397 80.1944 316.069 81.3178 316.588C81.0381 317.272 80.7661 317.932 80.4941 318.554L80.059 319.541H81.0847L81.3411 318.911C81.6286 318.22 81.9162 317.474 82.2114 316.712C83.4566 316.998 84.737 317.097 86.0113 317.007C86.5627 316.918 87.0883 316.711 87.5523 316.399C88.0163 316.088 88.4077 315.681 88.6999 315.205C88.815 314.973 88.8799 314.72 88.8903 314.462C88.9007 314.204 88.8564 313.946 88.7602 313.706C88.6641 313.466 88.5184 313.249 88.3325 313.07C88.1467 312.89 87.925 312.752 87.682 312.664C86.2055 312.166 83.9598 313.837 83.1361 314.956C83.0895 315.026 82.6388 315.795 82.3591 316.293C82.4756 315.974 82.5922 315.671 82.7088 315.345C82.9419 314.707 83.1595 314.062 83.3926 313.363C83.4936 313.021 83.5946 312.679 83.7034 312.337C83.8122 311.995 83.8821 311.622 83.9754 311.257C84.1774 310.418 84.3406 309.555 84.4805 308.685C85.6355 309.144 86.8542 309.421 88.0938 309.509C88.6522 309.508 89.2036 309.385 89.7096 309.148C90.2156 308.912 90.6639 308.569 91.0234 308.141C91.1709 307.929 91.2722 307.689 91.3209 307.436C91.3695 307.182 91.3644 306.921 91.3058 306.67C91.2471 306.419 91.1364 306.183 90.9806 305.977C90.8249 305.771 90.6276 305.6 90.4017 305.476C89.0185 304.761 86.5164 306.074 85.5606 307.03C85.4984 307.092 84.869 307.869 84.5349 308.312C84.6203 307.784 84.7058 307.263 84.768 306.758C84.9622 305.204 85.1099 303.65 85.2575 302.096C85.3042 301.614 85.3585 301.14 85.4052 300.666C85.6072 300.744 87.9695 301.622 89.1351 301.536C89.6935 301.535 90.2449 301.412 90.7509 301.176C91.2568 300.94 91.7052 300.596 92.0646 300.168C92.2136 299.958 92.3164 299.718 92.3663 299.464C92.4162 299.211 92.412 298.95 92.3541 298.698C92.2962 298.447 92.1857 298.21 92.0301 298.004C91.8744 297.798 91.677 297.628 91.4507 297.503C90.0676 296.788 87.5654 298.102 86.6096 299.057C86.5319 299.127 85.6305 300.254 85.4129 300.557C85.5295 299.508 85.6461 298.459 85.8092 297.449C86.0184 296.063 86.3169 294.693 86.7029 293.346C86.7961 293.346 89.2594 294.309 90.4561 294.224C91.0145 294.223 91.5659 294.1 92.0719 293.864C92.5778 293.627 93.0262 293.284 93.3856 292.856C93.5333 292.644 93.6347 292.403 93.6834 292.149C93.7322 291.895 93.7271 291.634 93.6685 291.382C93.6099 291.13 93.4991 290.893 93.3433 290.687C93.1875 290.48 92.9902 290.309 92.764 290.183C91.3808 289.476 88.8787 290.789 87.9229 291.737C87.8607 291.8 87.1458 292.654 86.8583 293.074L86.7728 293.035C87.1998 291.694 87.7459 290.394 88.4046 289.15C88.7621 288.458 89.1351 287.813 89.5158 287.199C90.6287 287.795 91.8263 288.217 93.067 288.45C93.6222 288.507 94.183 288.443 94.7113 288.263C95.2396 288.084 95.7231 287.792 96.1287 287.409C96.2992 287.215 96.4271 286.988 96.5041 286.741C96.581 286.495 96.6052 286.235 96.5752 285.978C96.5451 285.722 96.4615 285.474 96.3297 285.252C96.1979 285.03 96.0208 284.839 95.8101 284.689C94.5124 283.827 91.9247 284.86 90.8213 285.731L90.2152 286.321C90.2152 286.259 90.2152 286.181 90.2152 286.096L90.3395 285.902C90.9923 284.922 91.645 284.06 92.2356 283.306C92.5697 282.879 92.8883 282.529 93.1836 282.156C94.4386 282.167 95.6881 281.988 96.8902 281.628C97.4086 281.422 97.8769 281.108 98.263 280.706C98.6492 280.304 98.9442 279.823 99.1281 279.297C99.1905 279.045 99.1989 278.783 99.1526 278.528C99.1063 278.273 99.0064 278.03 98.8595 277.816C98.7126 277.603 98.5221 277.423 98.3005 277.288C98.0789 277.153 97.8313 277.067 97.574 277.035C96.0199 276.864 94.1938 278.986 93.6265 280.252C93.5799 280.361 93.0126 282.164 93.0437 282.164C92.7484 282.49 92.4376 282.856 92.1112 283.252C91.5129 284.029 90.8369 284.806 90.1686 285.793C90.1686 284.301 89.8888 281.193 87.9151 281.006C85.3119 280.757 84.5659 283.734 86.1822 285.35C87.1081 286.211 88.3378 286.669 89.6013 286.624C89.0962 287.401 88.5989 288.178 88.1249 289.041C87.4365 290.283 86.8592 291.583 86.3998 292.926C86.3998 292.926 86.3998 292.965 86.3998 292.981C86.3998 292.522 86.3998 291.248 86.3998 291.155C86.2211 289.771 85.0633 287.223 83.5402 286.935C83.2849 286.896 83.0242 286.91 82.7749 286.978C82.5256 287.046 82.2934 287.165 82.0934 287.329C81.8933 287.492 81.7298 287.696 81.6136 287.927C81.4974 288.157 81.431 288.41 81.4188 288.668C81.439 289.226 81.5817 289.773 81.8368 290.27C82.092 290.767 82.4533 291.201 82.8953 291.543C83.9665 292.251 85.1408 292.788 86.3765 293.136C85.9454 294.522 85.6028 295.934 85.3508 297.363C85.2031 298.195 85.0788 299.034 84.97 299.881C84.97 299.485 84.97 299.104 84.97 299.104C84.7913 297.721 83.6412 295.172 82.1104 294.884C81.8551 294.845 81.5944 294.86 81.3451 294.927C81.0958 294.995 80.8636 295.115 80.6636 295.278C80.4635 295.442 80.3 295.645 80.1838 295.876C80.0676 296.107 80.0013 296.359 79.989 296.617C80.0144 297.174 80.1593 297.72 80.4141 298.216C80.6689 298.712 81.0274 299.147 81.4655 299.492C82.5042 300.184 83.6448 300.708 84.8457 301.047C84.8457 301.373 84.7602 301.699 84.7214 302.018C84.5349 303.572 84.3561 305.126 84.1386 306.68C84.0609 307.216 83.9598 307.737 83.8666 308.234C83.8666 307.885 83.8666 307.589 83.8666 307.543C83.6956 306.167 82.5378 303.611 81.007 303.331C80.7519 303.293 80.4916 303.308 80.2428 303.377C79.994 303.445 79.7623 303.565 79.5625 303.728C79.3628 303.891 79.1993 304.094 79.0827 304.324C78.9662 304.554 78.899 304.806 78.8856 305.064C78.9109 305.621 79.0559 306.166 79.3107 306.662C79.5654 307.158 79.924 307.594 80.362 307.939C81.3715 308.623 82.4801 309.147 83.649 309.493C83.5324 310.029 83.4237 310.566 83.2838 311.047C83.1905 311.397 83.1128 311.739 82.9963 312.081C82.8797 312.423 82.7787 312.765 82.6699 313.107C82.4368 313.744 82.1959 314.412 81.955 315.034L81.4577 316.285C81.5354 315.756 81.683 314.731 81.683 314.614C81.6672 313.394 81.3381 312.197 80.7272 311.141C80.7389 311.006 80.7389 310.871 80.7272 310.737C80.695 310.481 80.6092 310.235 80.4755 310.015C80.3419 309.794 80.1633 309.605 79.9514 309.458C79.7395 309.311 79.4991 309.211 79.2458 309.164C78.9926 309.116 78.7321 309.123 78.4815 309.182C76.9818 309.579 76.026 312.221 75.9561 313.604C75.9561 313.689 76.0027 314.575 76.0493 315.158C75.9716 314.832 75.9017 314.513 75.824 314.179C75.6608 313.511 75.4898 312.858 75.2956 312.143C75.1945 311.809 75.0935 311.467 74.9847 311.117C74.8759 310.768 74.7438 310.418 74.6273 310.068C74.3242 309.252 73.9901 308.444 73.6249 307.636C74.8404 307.386 76.0096 306.948 77.0906 306.338C77.5554 306.029 77.9471 305.622 78.2383 305.145C78.5295 304.669 78.7133 304.135 78.7768 303.58C78.7842 303.322 78.7372 303.066 78.6389 302.828C78.5405 302.589 78.3931 302.374 78.2061 302.197C78.0191 302.02 77.7968 301.883 77.5537 301.798C77.3107 301.712 77.0522 301.678 76.7953 301.699C75.2412 301.862 73.9046 304.326 73.6249 305.686C73.6249 305.771 73.5161 306.766 73.4772 307.317C73.2519 306.836 73.0343 306.354 72.8012 305.872C72.1096 304.481 71.3636 303.09 70.6332 301.707L69.9649 300.433C70.1747 300.378 72.6302 299.811 73.5549 299.104C74.0185 298.791 74.4091 298.382 74.7001 297.905C74.9912 297.427 75.1757 296.893 75.2412 296.338C75.2486 296.08 75.2016 295.824 75.1032 295.585C75.0049 295.347 74.8574 295.132 74.6704 294.955C74.4835 294.777 74.2612 294.641 74.0181 294.556C73.775 294.47 73.5166 294.436 73.2597 294.457C71.7055 294.628 70.369 297.084 70.0892 298.443C70.0892 298.552 69.9416 299.998 69.926 300.355C69.4365 299.415 68.9625 298.474 68.5273 297.534C67.9263 296.274 67.4072 294.976 66.9732 293.649C67.0664 293.649 69.6385 293.043 70.5865 292.312C71.0513 292.003 71.443 291.596 71.7343 291.119C72.0255 290.643 72.2093 290.109 72.2728 289.554C72.2802 289.295 72.233 289.038 72.1342 288.799C72.0355 288.559 71.8875 288.344 71.6998 288.165C71.5121 287.987 71.2889 287.851 71.0449 287.765C70.8009 287.678 70.5414 287.645 70.2835 287.666C68.7294 287.836 67.4006 290.3 67.1208 291.66C67.1208 291.745 67.0043 292.841 66.9654 293.361H66.88C66.496 292.005 66.2359 290.616 66.1029 289.212C66.0174 288.435 65.9786 287.658 65.9552 286.974C67.212 286.855 68.4434 286.546 69.6075 286.057C70.1027 285.8 70.536 285.438 70.8769 284.997C71.2178 284.555 71.4582 284.045 71.5812 283.5C71.6174 283.245 71.5992 282.984 71.5278 282.736C71.4565 282.488 71.3335 282.258 71.167 282.061C71.0005 281.863 70.7942 281.703 70.5616 281.591C70.329 281.479 70.0753 281.417 69.8173 281.41C68.2631 281.41 66.6624 283.703 66.2272 285.024C66.2272 285.093 66.0485 285.855 65.9475 286.407C65.9475 286.08 65.9475 285.738 65.9475 285.428C65.9475 284.254 66.0252 283.174 66.0951 282.226C66.1417 281.682 66.1961 281.193 66.2505 280.742C67.3031 280.059 68.2463 279.221 69.048 278.255C69.3686 277.797 69.5866 277.276 69.6872 276.726C69.7877 276.176 69.7685 275.611 69.6308 275.069C69.544 274.826 69.4071 274.604 69.2289 274.417C69.0506 274.23 68.8351 274.082 68.5962 273.984C68.3573 273.886 68.1004 273.839 67.8422 273.847C67.584 273.854 67.3303 273.916 67.0975 274.028C65.7144 274.743 65.3491 277.525 65.5434 278.892C65.5434 279.009 66.0796 280.827 66.1029 280.812C66.0407 281.255 65.9786 281.721 65.9242 282.242C65.8309 283.19 65.7299 284.27 65.7066 285.451C65.7066 285.668 65.7066 285.886 65.7066 286.111C65.116 285.202 63.2511 282.638 61.2307 283.182C58.7752 283.804 59.3424 285.964 61.3162 286.438Z" fill="#263238"/>
<path d="M51.2295 267.975L51.0508 268.153C51.0896 268.099 51.1207 268.037 51.1596 267.975H51.2295Z" fill="#263238"/>
<path d="M180.634 24.8545H75.1707C66.5875 24.8545 59.6294 31.8126 59.6294 40.3958V275.038C59.6294 283.621 66.5875 290.58 75.1707 290.58H180.634C189.217 290.58 196.175 283.621 196.175 275.038V40.3958C196.175 31.8126 189.217 24.8545 180.634 24.8545Z" fill="#0074E4" stroke="#263238" stroke-width="0.346181" stroke-miterlimit="10"/>
<path d="M196.175 49.3243V41.2428C196.176 39.091 195.753 36.9601 194.931 34.9718C194.108 32.9836 192.901 31.1769 191.38 29.655C189.859 28.1331 188.053 26.9258 186.065 26.1021C184.077 25.2784 181.946 24.8545 179.795 24.8545H76.0177C71.6712 24.8545 67.5028 26.5811 64.4294 29.6545C61.356 32.7279 59.6294 36.8963 59.6294 41.2428V49.3243H196.175Z" fill="white" stroke="#263238" stroke-width="0.346181" stroke-miterlimit="10"/>
<path d="M60.3516 279.001C61.3796 282.354 63.4563 285.288 66.2763 287.372C69.0962 289.456 72.5106 290.581 76.0172 290.58H179.794C183.3 290.579 186.714 289.455 189.534 287.371C192.354 285.287 194.431 282.353 195.46 279.001H60.3516Z" fill="white" stroke="#263238" stroke-width="0.346181" stroke-miterlimit="10"/>
<path d="M180.385 34.2183H167.432V41.3206H180.385V34.2183Z" stroke="#263238" stroke-width="0.284238" stroke-linecap="round" stroke-linejoin="round"/>
<path d="M177.533 34.2183H167.432V41.3206H177.533V34.2183Z" fill="#263238" stroke="#263238" stroke-width="0.251007" stroke-linecap="round" stroke-linejoin="round"/>
<path d="M182.188 36.2075H180.362V39.3391H182.188V36.2075Z" fill="#263238" stroke="#263238" stroke-width="0.251007" stroke-linecap="round" stroke-linejoin="round"/>
<path d="M74.0907 36.4252H71.7129V40.497H74.0907V36.4252Z" fill="#263238" stroke="#263238" stroke-width="0.305708" stroke-linecap="round" stroke-linejoin="round"/>
<path d="M77.8212 34.9952H75.4434V40.4969H77.8212V34.9952Z" fill="#263238" stroke="#263238" stroke-width="0.305708" stroke-linecap="round" stroke-linejoin="round"/>
<path d="M81.5507 33.3014H79.1729V40.4892H81.5507V33.3014Z" fill="#263238" stroke="#263238" stroke-width="0.305708" stroke-linecap="round" stroke-linejoin="round"/>
<path d="M183.02 22.671H70.9124C67.2955 22.671 63.8268 24.1078 61.2692 26.6653C58.7117 29.2229 57.2749 32.6916 57.2749 36.3085V281.208C57.2749 282.999 57.6277 284.772 58.3131 286.426C58.9986 288.08 60.0032 289.583 61.2697 290.849C62.5362 292.114 64.0396 293.118 65.6941 293.803C67.3487 294.487 69.1219 294.839 70.9124 294.838H183.02C186.634 294.838 190.101 293.402 192.657 290.846C195.213 288.29 196.649 284.823 196.649 281.208V36.3085C196.65 34.518 196.298 32.7448 195.614 31.0902C194.929 29.4357 193.926 27.9323 192.66 26.6658C191.394 25.3994 189.891 24.3947 188.237 23.7093C186.583 23.0238 184.81 22.671 183.02 22.671ZM190.588 274.704C190.588 278.319 189.152 281.786 186.596 284.342C184.04 286.898 180.573 288.334 176.958 288.334H76.9813C73.3664 288.334 69.8997 286.898 67.3436 284.342C64.7875 281.786 63.3515 278.319 63.3515 274.704V42.8125C63.3505 41.022 63.7023 39.2488 64.3868 37.5943C65.0713 35.9398 66.0751 34.4363 67.3409 33.1698C68.6066 31.9034 70.1095 30.8987 71.7636 30.2133C73.4177 29.5279 75.1907 29.175 76.9813 29.175H95.5842L96.742 34.5523C97.076 36.1246 97.9413 37.5338 99.1924 38.5429C100.443 39.552 102.004 40.0993 103.611 40.0928H153.367C154.973 40.0975 156.531 39.5494 157.781 38.5404C159.03 37.5315 159.895 36.1233 160.228 34.5523L161.386 29.175H176.927C178.72 29.171 180.497 29.5207 182.155 30.2044C183.812 30.888 185.319 31.892 186.588 33.1588C187.857 34.4257 188.863 35.9305 189.55 37.5871C190.236 39.2437 190.589 41.0194 190.588 42.8125V274.704Z" fill="#263238" stroke="#263238" stroke-width="0.586258" stroke-miterlimit="10"/>
<path d="M169.77 65.7125H83.3064C79.7315 65.7125 76.8335 68.6106 76.8335 72.1855V260.243C76.8335 263.818 79.7315 266.716 83.3064 266.716H169.77C173.345 266.716 176.243 263.818 176.243 260.243V72.1855C176.243 68.6106 173.345 65.7125 169.77 65.7125Z" fill="white" stroke="#263238" stroke-width="0.346181" stroke-miterlimit="10"/>
<path d="M113.558 77.5475C115.19 77.5475 116.029 78.5188 116.029 80.2284V80.5625H114.475V80.1196C114.475 79.3425 114.172 79.0705 113.636 79.0705C113.099 79.0705 112.804 79.358 112.804 80.1196C112.804 82.3109 116.076 82.7227 116.076 85.7688C116.076 87.4706 115.221 88.4497 113.581 88.4497C111.942 88.4497 111.079 87.4706 111.079 85.7688V85.1161H112.633V85.8932C112.633 86.6702 112.967 86.9267 113.504 86.9267C114.04 86.9267 114.366 86.6547 114.366 85.8932C114.366 83.7018 111.095 83.29 111.095 80.2439C111.095 78.5188 111.949 77.5475 113.558 77.5475Z" fill="#263238"/>
<path d="M117.008 77.6638H118.679V88.3251H117.008V77.6638Z" fill="#263238"/>
<path d="M122.409 82.3886H124.74V85.7688C124.74 87.4706 123.885 88.4497 122.246 88.4497C120.606 88.4497 119.744 87.4706 119.744 85.7688V80.2284C119.744 78.5188 120.598 77.5475 122.246 77.5475C123.893 77.5475 124.74 78.5188 124.74 80.2284V81.2619H123.186V80.1196C123.186 79.3425 122.852 79.0705 122.324 79.0705C121.795 79.0705 121.453 79.358 121.453 80.1196V85.8776C121.453 86.6547 121.787 86.9111 122.324 86.9111C122.86 86.9111 123.186 86.6391 123.186 85.8776V83.9116H122.409V82.3886Z" fill="#263238"/>
<path d="M127.327 80.6089V88.3251H125.82V77.6638H127.926L129.643 84.0513V77.6638H131.135V88.3251H129.418L127.327 80.6089Z" fill="#263238"/>
<path d="M134.702 77.6638H136.38V88.3251H134.702V77.6638Z" fill="#263238"/>
<path d="M139.093 80.6089V88.3251H137.593V77.6638H139.691L141.416 84.0513V77.6638H142.908V88.3251H141.183L139.093 80.6089Z" fill="#263238"/>
<path d="M85.615 118.258V119.035H83.649V121.894H86.0579V122.671H82.7554V114.707H86.0579V115.484H83.649V118.227L85.615 118.258Z" fill="#263238"/>
<path d="M89.8492 122.726H88.9867L87.6501 116.331V122.734H86.873V114.707H88.1241L89.4451 121.117L90.7195 114.707H91.9706V122.734H91.1158V116.276L89.8492 122.726Z" fill="#263238"/>
<path d="M93.7893 121.117L93.4785 122.734H92.6548L94.2089 114.707H95.5066L97.0607 122.734H96.1593L95.8563 121.117H93.7893ZM93.9059 120.34H95.6931L94.7917 115.678L93.9059 120.34Z" fill="#263238"/>
<path d="M98.6226 114.707V122.734H97.7212V114.707H98.6226Z" fill="#263238"/>
<path d="M99.5166 122.734V114.707H100.41V121.925H102.703V122.703L99.5166 122.734Z" fill="#263238"/>
<path d="M106.082 121.117L105.779 122.734H104.956L106.51 114.707H107.807L109.362 122.734H108.468L108.157 121.117H106.082ZM106.199 120.34H107.994L107.085 115.678L106.199 120.34Z" fill="#263238"/>
<path d="M111.903 114.707C113.154 114.707 113.729 115.484 113.729 116.704V120.737C113.729 121.964 113.154 122.718 111.903 122.718H110.022V114.707H111.903ZM111.903 121.925C112.548 121.925 112.859 121.521 112.859 120.783V116.657C112.859 115.919 112.548 115.515 111.895 115.515H110.932V121.925H111.903Z" fill="#263238"/>
<path d="M116.441 114.707C117.692 114.707 118.267 115.484 118.267 116.704V120.737C118.267 121.964 117.692 122.718 116.441 122.718H114.56V114.707H116.441ZM116.441 121.925C117.086 121.925 117.396 121.521 117.396 120.783V116.657C117.396 115.919 117.086 115.515 116.425 115.515H115.461V121.925H116.441Z" fill="#263238"/>
<path d="M120.893 114.707C122.16 114.707 122.688 115.344 122.688 116.54V117.193C122.688 118.079 122.377 118.631 121.686 118.848C122.424 119.066 122.696 119.664 122.696 120.519V121.77C122.667 122.1 122.723 122.432 122.859 122.734H121.95C121.825 122.426 121.775 122.093 121.802 121.762V120.496C121.802 119.594 121.375 119.307 120.629 119.307H120V122.734H119.106V114.707H120.893ZM120.668 118.491C121.375 118.491 121.802 118.258 121.802 117.387V116.61C121.802 115.888 121.538 115.507 120.87 115.507H120V118.483L120.668 118.491Z" fill="#263238"/>
<path d="M126.481 118.258V119.035H124.522V121.894H126.931V122.671H123.605V114.707H126.916V115.484H124.507V118.227L126.481 118.258Z" fill="#263238"/>
<path d="M131.228 116.634V116.851H130.381V116.587C130.381 115.865 130.101 115.437 129.464 115.437C128.827 115.437 128.547 115.865 128.547 116.572C128.547 118.374 131.244 118.545 131.244 120.807C131.244 122.027 130.653 122.819 129.425 122.819C128.198 122.819 127.623 122.042 127.623 120.807V120.348H128.462V120.853C128.462 121.576 128.765 122.003 129.402 122.003C130.039 122.003 130.342 121.576 130.342 120.853C130.342 119.066 127.661 118.895 127.661 116.634C127.661 115.391 128.236 114.621 129.441 114.621C130.645 114.621 131.228 115.414 131.228 116.634Z" fill="#263238"/>
<path d="M135.494 116.634V116.851H134.647V116.587C134.647 115.865 134.375 115.437 133.73 115.437C133.085 115.437 132.813 115.865 132.813 116.572C132.813 118.374 135.51 118.545 135.51 120.807C135.51 122.027 134.919 122.819 133.692 122.819C132.464 122.819 131.896 122.042 131.896 120.807V120.348H132.728V120.853C132.728 121.576 133.031 122.003 133.668 122.003C134.305 122.003 134.616 121.576 134.616 120.853C134.616 119.066 131.928 118.895 131.928 116.634C131.928 115.391 132.503 114.621 133.707 114.621C134.911 114.621 135.494 115.414 135.494 116.634Z" fill="#263238"/>
<path d="M84.5111 154.85C85.77 154.85 86.3139 155.627 86.3139 156.808V157.779C86.3561 158.037 86.3373 158.302 86.2591 158.552C86.1809 158.801 86.0454 159.029 85.8635 159.217C85.6815 159.405 85.4582 159.548 85.2112 159.634C84.9643 159.72 84.7006 159.748 84.4412 159.714H83.6641V162.885H82.7705V154.85H84.5111ZM84.4412 158.914C85.1095 158.914 85.4281 158.603 85.4281 157.834V156.769C85.4281 155.992 85.1639 155.666 84.5111 155.666H83.6486V158.914H84.4412Z" fill="#263238"/>
<path d="M87.7673 161.261L87.4565 162.885H86.6328L88.1869 154.85H89.4846L91.0388 162.885H90.1141L89.8032 161.261H87.7673ZM87.8839 160.483H89.6711L88.7697 155.821L87.8839 160.483Z" fill="#263238"/>
<path d="M95.1798 156.777V156.994H94.3328V156.73C94.3328 156.007 94.0531 155.58 93.4159 155.58C92.7787 155.58 92.4912 156.007 92.4912 156.722C92.4912 158.525 95.1876 158.696 95.1876 160.957C95.1876 162.17 94.6048 162.962 93.377 162.962C92.1493 162.962 91.5742 162.185 91.5742 160.957V160.499H92.4134V161.004C92.4134 161.727 92.7087 162.146 93.3537 162.146C93.9987 162.146 94.2939 161.727 94.2939 161.004C94.2939 159.209 91.6131 159.038 91.6131 156.777C91.6131 155.541 92.1803 154.772 93.3925 154.772C94.6048 154.772 95.1798 155.557 95.1798 156.777Z" fill="#263238"/>
<path d="M99.4464 156.777V156.994H98.5994V156.73C98.5994 156.007 98.3197 155.58 97.6825 155.58C97.0453 155.58 96.7578 156.007 96.7578 156.722C96.7578 158.525 99.4542 158.696 99.4542 160.957C99.4542 162.17 98.8714 162.962 97.6436 162.962C96.4158 162.962 95.8408 162.185 95.8408 160.957V160.499H96.6801V161.004C96.6801 161.727 96.9831 162.146 97.6203 162.146C98.2575 162.146 98.5605 161.727 98.5605 161.004C98.5605 159.209 95.8797 159.038 95.8797 156.777C95.8797 155.541 96.4547 154.772 97.6591 154.772C98.8636 154.772 99.4464 155.557 99.4464 156.777Z" fill="#263238"/>
<path d="M102.368 162.885H101.141L100.045 154.85H100.915L101.855 161.688L102.749 154.858H103.635L104.521 161.703L105.422 154.85H106.199L105.104 162.885H103.922L103.145 157.445L102.368 162.885Z" fill="#263238"/>
<path d="M106.852 156.792C106.852 155.557 107.465 154.772 108.693 154.772C109.921 154.772 110.535 155.549 110.535 156.792V160.942C110.535 162.162 109.929 162.962 108.693 162.962C107.458 162.962 106.852 162.185 106.852 160.942V156.792ZM107.737 160.988C107.737 161.727 108.048 162.146 108.693 162.146C109.338 162.146 109.641 161.727 109.641 160.988V156.746C109.641 156.023 109.346 155.58 108.693 155.58C108.04 155.58 107.737 156.023 107.737 156.746V160.988Z" fill="#263238"/>
<path d="M113.177 154.85C114.436 154.85 114.964 155.495 114.964 156.684V157.336C114.964 158.222 114.653 158.774 113.969 158.991C114.7 159.209 114.98 159.807 114.98 160.67V161.921C114.953 162.25 115.006 162.581 115.135 162.885H114.234C114.102 162.576 114.048 162.24 114.078 161.905V160.647C114.078 159.737 113.659 159.45 112.913 159.45H112.283V162.885H111.382V154.85H113.177ZM112.944 158.634C113.659 158.634 114.078 158.409 114.078 157.538V156.761C114.078 156.039 113.814 155.658 113.154 155.658H112.283V158.626L112.944 158.634Z" fill="#263238"/>
<path d="M117.785 154.85C119.036 154.85 119.611 155.627 119.611 156.847V160.895C119.611 162.123 119.036 162.885 117.785 162.885H115.905V154.85H117.785ZM117.785 162.069C118.422 162.069 118.733 161.665 118.733 160.934V156.8C118.733 156.062 118.422 155.666 117.77 155.666H116.806V162.069H117.785Z" fill="#263238"/>
<path d="M98.2032 193.905C99.4621 193.905 99.9905 194.542 99.9905 195.739V196.392C99.9905 197.277 99.6796 197.829 98.9958 198.047C99.7263 198.264 100.006 198.863 100.006 199.717V200.969C99.9789 201.3 100.032 201.633 100.161 201.94H99.26C99.129 201.631 99.0756 201.295 99.1046 200.961V199.702C99.1046 198.793 98.685 198.505 97.939 198.505H97.3096V201.94H96.4082V193.905H98.2032ZM97.9623 197.666C98.6772 197.666 99.0969 197.441 99.0969 196.563V195.786C99.0969 195.063 98.8326 194.69 98.1721 194.69H97.3018V197.666H97.9623Z" fill="#263238"/>
<path d="M103.79 197.464V198.241H101.848V201.101H104.257V201.917H100.954V193.905H104.257V194.682H101.848V197.425L103.79 197.464Z" fill="#263238"/>
<path d="M108.017 201.924H107.162L105.826 195.529V201.94H105.049V193.905H106.3L107.621 200.316L108.895 193.905H110.146V201.94H109.292V195.475L108.017 201.924Z" fill="#263238"/>
<path d="M113.915 197.464V198.241H111.949V201.101H114.366V201.917H111.056V193.905H114.366V194.682H111.949V197.425L113.915 197.464Z" fill="#263238"/>
<path d="M118.165 201.924H117.303L115.974 195.529V201.94H115.197V193.905H116.448L117.769 200.316L119.043 193.905H120.294V201.94H119.447V195.475L118.165 201.924Z" fill="#263238"/>
<path d="M122.984 193.905C124.235 193.905 124.732 194.496 124.732 195.685V196.057C124.732 196.912 124.491 197.441 123.792 197.658C124.569 197.876 124.872 198.49 124.872 199.376V200.052C124.909 200.304 124.886 200.561 124.807 200.804C124.728 201.046 124.595 201.267 124.417 201.45C124.239 201.632 124.021 201.771 123.781 201.856C123.54 201.941 123.284 201.97 123.031 201.94H121.189V193.905H122.984ZM122.766 197.309C123.481 197.309 123.847 197.083 123.847 196.244V195.77C123.847 195.063 123.606 194.721 122.968 194.721H122.052V197.309H122.766ZM123.031 201.124C123.691 201.124 123.986 200.774 123.986 200.028V199.321C123.986 198.428 123.629 198.124 122.86 198.124H122.083V201.124H123.031Z" fill="#263238"/>
<path d="M128.539 197.464V198.241H126.573V201.101H128.99V201.917H125.68V193.905H128.99V194.682H126.573V197.425L128.539 197.464Z" fill="#263238"/>
<path d="M131.601 193.905C132.86 193.905 133.389 194.542 133.389 195.739V196.392C133.389 197.277 133.078 197.829 132.394 198.047C133.124 198.264 133.404 198.863 133.404 199.717V200.969C133.375 201.301 133.432 201.635 133.567 201.94H132.658C132.534 201.629 132.484 201.294 132.51 200.961V199.702C132.51 198.793 132.083 198.505 131.337 198.505H130.708V201.94H129.822V193.905H131.601ZM131.376 197.666C132.091 197.666 132.518 197.441 132.518 196.563V195.786C132.518 195.063 132.254 194.69 131.586 194.69H130.715V197.666H131.376Z" fill="#263238"/>
<path d="M137.29 201.924H136.427L135.098 195.529V201.94H134.321V193.905H135.572L136.893 200.316L138.16 193.905H139.411V201.94H138.564V195.475L137.29 201.924Z" fill="#263238"/>
<path d="M143.188 197.464V198.241H141.222V201.101H143.631V201.917H140.328V193.905H143.631V194.682H141.222V197.425L143.188 197.464Z" fill="#263238"/>
<path d="M167.105 221.374H88.1633C86.7342 221.374 85.5757 222.533 85.5757 223.962V236.263C85.5757 237.692 86.7342 238.85 88.1633 238.85H167.105C168.534 238.85 169.693 237.692 169.693 236.263V223.962C169.693 222.533 168.534 221.374 167.105 221.374Z" fill="#263238" stroke="#263238" stroke-width="0.346181" stroke-miterlimit="10"/>
<path d="M116.335 225.531L115.951 225.64C115.927 225.576 115.891 225.514 115.844 225.453C115.798 225.392 115.735 225.341 115.655 225.301C115.575 225.261 115.473 225.241 115.348 225.241C115.178 225.241 115.036 225.28 114.922 225.359C114.809 225.436 114.753 225.535 114.753 225.655C114.753 225.761 114.792 225.845 114.869 225.907C114.947 225.969 115.068 226.02 115.232 226.061L115.646 226.163C115.895 226.223 116.081 226.316 116.203 226.441C116.325 226.564 116.386 226.723 116.386 226.918C116.386 227.077 116.34 227.22 116.248 227.346C116.158 227.472 116.031 227.571 115.867 227.644C115.704 227.716 115.514 227.753 115.298 227.753C115.013 227.753 114.778 227.691 114.592 227.567C114.405 227.444 114.287 227.264 114.238 227.027L114.644 226.925C114.683 227.075 114.756 227.188 114.864 227.263C114.973 227.338 115.115 227.375 115.29 227.375C115.49 227.375 115.648 227.333 115.766 227.248C115.884 227.162 115.944 227.059 115.944 226.94C115.944 226.843 115.91 226.762 115.842 226.696C115.774 226.63 115.67 226.58 115.53 226.548L115.065 226.439C114.81 226.378 114.622 226.285 114.503 226.157C114.384 226.029 114.325 225.869 114.325 225.677C114.325 225.519 114.369 225.38 114.457 225.259C114.547 225.138 114.668 225.043 114.822 224.974C114.977 224.905 115.152 224.871 115.348 224.871C115.624 224.871 115.841 224.931 115.998 225.052C116.156 225.173 116.269 225.333 116.335 225.531ZM118.787 226.555V224.907H119.216V227.694H118.787V227.223H118.758C118.693 227.364 118.591 227.485 118.454 227.584C118.316 227.682 118.141 227.731 117.931 227.731C117.757 227.731 117.602 227.693 117.466 227.616C117.331 227.539 117.224 227.423 117.147 227.268C117.07 227.112 117.031 226.915 117.031 226.678V224.907H117.459V226.649C117.459 226.852 117.516 227.015 117.63 227.136C117.745 227.257 117.891 227.317 118.069 227.317C118.175 227.317 118.284 227.29 118.394 227.235C118.505 227.181 118.598 227.097 118.673 226.985C118.749 226.872 118.787 226.729 118.787 226.555ZM120.058 227.694V223.978H120.486V225.35H120.523C120.554 225.302 120.598 225.24 120.653 225.165C120.71 225.089 120.791 225.021 120.897 224.962C121.003 224.901 121.147 224.871 121.328 224.871C121.563 224.871 121.77 224.93 121.949 225.047C122.128 225.164 122.268 225.331 122.368 225.546C122.469 225.761 122.519 226.015 122.519 226.308C122.519 226.603 122.469 226.859 122.368 227.076C122.268 227.291 122.129 227.458 121.951 227.577C121.773 227.694 121.568 227.753 121.336 227.753C121.157 227.753 121.013 227.723 120.906 227.664C120.798 227.603 120.715 227.535 120.657 227.459C120.599 227.381 120.554 227.317 120.523 227.266H120.472V227.694H120.058ZM120.479 226.301C120.479 226.511 120.51 226.697 120.572 226.858C120.633 227.018 120.724 227.143 120.842 227.234C120.961 227.323 121.106 227.368 121.278 227.368C121.457 227.368 121.606 227.321 121.726 227.226C121.847 227.131 121.937 227.002 121.998 226.842C122.06 226.679 122.091 226.499 122.091 226.301C122.091 226.105 122.06 225.928 122 225.771C121.941 225.612 121.85 225.487 121.729 225.395C121.61 225.302 121.459 225.256 121.278 225.256C121.103 225.256 120.957 225.3 120.838 225.388C120.72 225.475 120.63 225.597 120.57 225.755C120.509 225.911 120.479 226.093 120.479 226.301ZM123.174 227.694V224.907H123.588V225.343H123.624C123.682 225.194 123.776 225.078 123.905 224.996C124.035 224.913 124.19 224.871 124.371 224.871C124.555 224.871 124.708 224.913 124.831 224.996C124.954 225.078 125.05 225.194 125.119 225.343H125.148C125.22 225.199 125.327 225.084 125.469 225C125.612 224.914 125.783 224.871 125.983 224.871C126.232 224.871 126.436 224.949 126.594 225.105C126.753 225.26 126.832 225.501 126.832 225.829V227.694H126.404V225.829C126.404 225.623 126.348 225.476 126.235 225.388C126.123 225.3 125.99 225.256 125.838 225.256C125.642 225.256 125.49 225.315 125.382 225.433C125.275 225.551 125.221 225.7 125.221 225.88V227.694H124.785V225.785C124.785 225.627 124.734 225.499 124.631 225.403C124.528 225.305 124.396 225.256 124.234 225.256C124.122 225.256 124.018 225.285 123.921 225.345C123.826 225.404 123.748 225.486 123.689 225.591C123.631 225.695 123.602 225.816 123.602 225.952V227.694H123.174ZM127.615 227.694V224.907H128.043V227.694H127.615ZM127.833 224.443C127.749 224.443 127.677 224.414 127.617 224.357C127.558 224.301 127.528 224.232 127.528 224.152C127.528 224.072 127.558 224.004 127.617 223.947C127.677 223.89 127.749 223.862 127.833 223.862C127.916 223.862 127.988 223.89 128.047 223.947C128.107 224.004 128.138 224.072 128.138 224.152C128.138 224.232 128.107 224.301 128.047 224.357C127.988 224.414 127.916 224.443 127.833 224.443ZM130.04 224.907V225.27H128.595V224.907H130.04ZM129.016 224.239H129.445V226.896C129.445 227.017 129.462 227.108 129.497 227.168C129.534 227.227 129.58 227.267 129.635 227.288C129.692 227.307 129.752 227.317 129.815 227.317C129.862 227.317 129.901 227.315 129.931 227.31C129.961 227.304 129.985 227.299 130.004 227.295L130.091 227.68C130.062 227.691 130.021 227.702 129.969 227.713C129.917 227.725 129.851 227.731 129.771 227.731C129.65 227.731 129.532 227.705 129.416 227.653C129.301 227.601 129.205 227.521 129.129 227.415C129.054 227.309 129.016 227.174 129.016 227.012V224.239Z" fill="white"/>
<path d="M169.141 126.883H82.8403V139.992H169.141V126.883Z" fill="white" stroke="#263238" stroke-width="0.346181" stroke-miterlimit="10"/>
<path d="M169.141 167.578H82.8403V180.687H169.141V167.578Z" fill="white" stroke="#263238" stroke-width="0.346181" stroke-miterlimit="10"/>
<path d="M91.5823 193.524H83.936V201.17H91.5823V193.524Z" fill="white" stroke="#263238" stroke-width="0.346181" stroke-miterlimit="10"/>
<path d="M250.422 300.953C246.839 301.491 243.191 301.431 239.628 300.775C233.505 299.695 227.032 294.48 227.032 294.48L221.818 294.838V272.179C221.818 272.179 230.84 270.555 233.691 270.71C236.543 270.865 250.422 284.565 250.422 284.565V300.953Z" fill="white" stroke="#263238" stroke-width="0.346181" stroke-miterlimit="10"/>
<path d="M226.924 303.355H210.232L207.427 270.259H229.729L226.924 303.355Z" fill="#002761" stroke="#263238" stroke-width="0.346181" stroke-miterlimit="10"/>
<path d="M229.224 264.696H208.453V266.522H229.224V264.696Z" fill="white" stroke="#263238" stroke-width="0.346181" stroke-miterlimit="10"/>
<path d="M230.452 266.18H206.705V272.653H230.452V266.18Z" fill="white" stroke="#263238" stroke-width="0.346181" stroke-miterlimit="10"/>
<path d="M240.701 295.739C232.433 294.838 231.532 285.847 231.532 285.847C231.532 285.847 225.238 290.168 222.533 290.168C219.829 290.168 219.114 288.186 218.578 286.803C218.042 285.42 230.63 277.214 230.63 277.214C230.63 277.214 232.962 274.883 234.951 274.883C236.94 274.883 245.379 286.391 247.003 288.373" fill="white"/>
<path d="M240.701 295.739C232.433 294.838 231.532 285.847 231.532 285.847C231.532 285.847 225.238 290.168 222.533 290.168C219.829 290.168 219.114 288.186 218.578 286.803C218.042 285.42 230.63 277.214 230.63 277.214C230.63 277.214 232.962 274.883 234.951 274.883C236.94 274.883 245.379 286.391 247.003 288.373" stroke="#263238" stroke-width="0.346181" stroke-miterlimit="10"/>
<path d="M344.967 319.673L344.315 245.743L341.02 264.867L342.318 319.673H344.967Z" fill="#263238" stroke="#263238" stroke-width="0.346181" stroke-miterlimit="10"/>
<path d="M339.761 319.665L340.188 279.46C340.188 279.46 346.467 266.654 346.949 260.655C347.431 254.656 350.788 240.024 347.672 233.31C344.556 226.596 347.291 203.859 347.291 203.859L344.377 193.493C342.457 188.458 323.994 176.709 317.04 174.307C310.157 172.087 302.882 171.351 295.694 172.147C289.477 172.87 286.097 176.468 285.374 177.664C284.652 178.861 280.821 190.377 276.259 196.617C271.698 202.857 267.867 207.41 264.51 212.205C261.153 216.999 258.993 226.837 256.833 232.595C254.672 238.353 251.075 264.012 249.396 277.665C247.92 289.709 248.86 314.024 249.109 319.626L339.761 319.665Z" fill="#808080" stroke="#263238" stroke-width="0.346181" stroke-miterlimit="10"/>
<path d="M273.921 217.031C276.338 214.535 279.058 212.353 282.018 210.534C289.454 206.214 294.731 202.375 294.731 202.375L293.293 193.983L300.971 197.581C300.971 197.581 302.649 192.304 307.443 183.189C312.238 174.074 312.479 172.155 312.479 172.155" stroke="#263238" stroke-width="0.346181" stroke-miterlimit="10"/>
<path d="M267.689 224.141C269.228 222.126 270.875 220.196 272.623 218.359" stroke="#263238" stroke-width="0.346181" stroke-miterlimit="10"/>
<path d="M301.126 214.101L289.92 319.587H293.876L303.768 217.396L301.126 214.101Z" fill="#263238" stroke="#263238" stroke-width="0.346181" stroke-miterlimit="10"/>
<path d="M257.02 319.665C256.802 309.874 256.11 269.311 259.475 254.182C263.314 236.908 266.671 217.481 272.421 209.33C278.171 201.178 289.936 190.859 296.168 184.86C300.134 180.86 303.299 176.138 305.493 170.951L296.891 147.693C296.891 147.693 289.213 160.647 286.789 161.602C286.789 161.602 289.19 172.396 287.512 178.636C285.833 184.876 274.799 202.616 271.442 206.936C268.085 211.257 257.797 234.965 255.636 250.825C253.733 264.812 253.507 309.354 253.484 319.673L257.02 319.665Z" fill="white" stroke="#263238" stroke-width="0.346181" stroke-miterlimit="10"/>
<path d="M287.527 165.527L299.641 165.27L295.515 156.248L287.527 165.527Z" fill="#263238" stroke="#263238" stroke-width="0.346181" stroke-miterlimit="10"/>
<path d="M257.02 319.665C256.802 309.874 256.111 269.311 259.475 254.182C263.314 236.908 266.671 217.481 272.421 209.33C278.172 201.178 289.936 190.859 296.168 184.86C298.175 182.903 299.963 180.732 301.499 178.387C294.653 183.049 289.214 183.205 285.958 182.599C282.352 190.416 274.232 203.331 271.434 206.929C268.077 211.249 257.766 234.988 255.606 250.817C253.702 264.804 253.476 309.346 253.453 319.665H257.02Z" fill="#002761" stroke="#263238" stroke-width="0.346181" stroke-miterlimit="10"/>
<path d="M286.968 163.802C286.968 163.802 289.299 172.715 289.066 176.639C288.832 180.563 285.398 191.838 281.202 197.868C277.006 203.898 270.198 213.067 264.697 215.43C259.195 217.792 257.097 217.761 257.097 217.761C260.502 216.099 263.451 213.631 265.688 210.573C267.925 207.514 269.382 203.956 269.934 200.207C272.032 187.098 265.217 155.394 264.953 153.296C264.689 151.198 286.968 163.802 286.968 163.802Z" fill="#263238" stroke="#263238" stroke-width="0.346181" stroke-miterlimit="10"/>
<path d="M256.825 127.505C256.825 127.505 256.305 137.879 257.346 139.689C258.387 141.5 261.231 142.798 261.231 145.906C261.231 149.014 258.636 154.726 259.934 156.536C261.231 158.347 265.894 158.354 265.894 158.354C265.894 158.354 272.887 166.389 274.713 168.208C276.54 170.026 279.119 172.87 280.417 172.357C281.715 171.844 291.568 161.727 293.899 157.834C296.23 153.941 297.528 140.202 296.495 134.242C295.461 128.282 280.953 118.421 272.895 117.924C267.746 117.663 262.587 118.188 257.595 119.478L256.825 127.505Z" fill="white" stroke="#263238" stroke-width="0.346181" stroke-miterlimit="10"/>
<path d="M265.901 139.176L267.548 143.528L273.609 139.783" stroke="#263238" stroke-width="0.346181" stroke-miterlimit="10"/>
<path d="M262.972 137.467C262.972 137.467 261.324 131.297 270.385 132.944" stroke="#263238" stroke-width="0.346181" stroke-miterlimit="10"/>
<path d="M269.273 159.403C269.273 159.403 273.679 158.106 277.044 152.658" stroke="#263238" stroke-width="0.346181" stroke-miterlimit="10"/>
<path d="M270.518 142.494C270.766 142.968 270.416 143.644 269.74 144.049C269.064 144.453 268.295 144.328 268.046 143.862C267.798 143.396 268.147 142.712 268.824 142.308C269.5 141.904 270.261 142.051 270.518 142.494Z" fill="#263238"/>
<path d="M262.529 103.906C262.529 103.906 245.674 114.785 246.987 118.429C248.301 122.073 256.841 127.505 256.841 127.505L257.618 121.801C257.618 121.801 266.437 126.207 274.713 129.323L283.012 132.432C284.24 133.792 285.537 135.089 286.898 136.317C287.939 137.094 291.56 137.094 291.56 137.094C291.56 137.094 292.858 164.835 297.776 171.324C302.695 177.812 316.962 183.757 326.528 187.914C336.094 192.071 340.344 192.39 342.939 196.019C345.535 199.648 346.623 211.195 346.623 211.195C346.623 211.195 362.304 195.001 340.095 156.544C323.987 128.647 325.836 125.461 320.389 116.098C314.942 106.734 301.739 93.0189 288.755 92.0087C275.77 90.9986 262.529 103.906 262.529 103.906Z" fill="#263238" stroke="#263238" stroke-width="0.346181" stroke-miterlimit="10"/>
<path d="M324.414 169.816C326.206 170.778 328.053 171.631 329.947 172.372" stroke="#787878" stroke-width="0.346181" stroke-miterlimit="10"/>
<path d="M283.938 102.258C292.106 109.161 297.416 118.855 298.834 129.455C300.567 143.31 306.402 157.165 318.727 166.257" stroke="#787878" stroke-width="0.346181" stroke-miterlimit="10"/>
<path d="M276.617 115.88C279.901 116.876 283.086 118.177 286.128 119.765" stroke="#787878" stroke-width="0.346181" stroke-miterlimit="10"/>
<path d="M253.701 119.346C253.701 119.346 249.319 117.597 254.144 114.093C256.996 112.01 264.627 112.71 272.196 114.621" stroke="#787878" stroke-width="0.346181" stroke-miterlimit="10"/>
<path d="M291.576 134.763C291.576 134.763 289.501 117.395 284.582 110.674" stroke="#787878" stroke-width="0.346181" stroke-miterlimit="10"/>
<path d="M202.391 250.351L183.811 236.146C183.662 236.032 183.55 235.877 183.489 235.699C183.428 235.522 183.422 235.33 183.47 235.148C183.518 234.967 183.619 234.804 183.76 234.68C183.901 234.556 184.076 234.477 184.262 234.452L194.022 233.131C194.695 233.038 195.381 233.083 196.036 233.262C196.692 233.441 197.305 233.75 197.838 234.173L216.782 249.147L202.391 250.351Z" fill="#263238" stroke="#263238" stroke-width="0.346181" stroke-miterlimit="10"/>
<path d="M240.048 251.284C240.048 251.284 235.728 247.445 234.29 245.293C233.471 244.198 232.366 243.35 231.097 242.842C229.828 242.333 228.443 242.184 227.095 242.41C224.453 242.891 218.461 241.454 217.498 242.65C216.534 243.847 216.542 246.971 216.542 246.971C216.542 246.971 201.669 247.927 200.472 247.686C199.276 247.445 198.312 249.364 199.268 251.043C200.224 252.721 207.194 254.586 207.194 254.586C207.19 255.933 207.496 257.262 208.088 258.472C209.113 260.554 210.815 263.787 212.222 265.185C214.382 267.346 218.935 268.294 223.738 269.265C228.54 270.236 236.21 269.024 236.21 269.024L240.048 251.284Z" fill="white" stroke="#263238" stroke-width="0.346181" stroke-miterlimit="10"/>
<path d="M216.542 246.994L227.81 246.271" stroke="#263238" stroke-width="0.346181" stroke-miterlimit="10"/>
<path d="M207.194 254.609C209.831 254.465 212.475 254.553 215.097 254.874C218.259 255.394 220.893 255.923 222.735 255.394" stroke="#263238" stroke-width="0.346181" stroke-miterlimit="10"/>
<path d="M208.088 258.502C210.368 258.908 212.621 259.455 214.833 260.142C216.939 260.919 220.366 263.033 223.785 261.984" stroke="#263238" stroke-width="0.346181" stroke-miterlimit="10"/>
<path d="M211.414 263.825C211.414 263.825 217.21 266.459 221.686 266.195" stroke="#263238" stroke-width="0.346181" stroke-miterlimit="10"/>
<path d="M341.743 204.294C341.743 204.294 342.737 215.539 342.737 223.729C342.737 231.919 341.782 248.432 336.264 259.699C330.747 270.967 332.185 278.893 326.668 290.168C321.151 301.443 317.343 301.676 301.483 300.27C285.623 298.863 267.665 292.833 266.709 292.833C265.754 292.833 251.557 290.137 244.827 286.803C240.258 284.453 235.846 281.811 231.617 278.893C231.829 276.916 232.312 274.978 233.055 273.135C234.259 270.259 238.098 249.387 238.098 249.387C242.514 251.993 247.172 254.163 252.007 255.868C256.248 257.204 260.576 258.243 264.961 258.976C264.961 258.976 269.515 256.101 270.952 255.62C272.39 255.138 275.273 258.495 279.352 259.458C283.086 260.318 286.866 260.962 290.674 261.385C291.638 261.385 301.436 260.22 300.776 260.422C299.898 260.686 299.082 258.868 299.338 257.314C300.142 254.821 301.183 252.411 302.447 250.118C303.162 249.154 303.162 245.557 303.162 243.163C303.162 240.77 299.805 215.577 301.483 208.623C303.162 201.668 313.209 187.269 313.209 187.269C313.209 187.269 313.652 185.101 318.967 185.109C324.282 185.116 332.876 190.867 336.474 193.983" fill="#808080"/>
<path d="M341.743 204.294C341.743 204.294 342.737 215.539 342.737 223.729C342.737 231.919 341.782 248.432 336.264 259.699C330.747 270.967 332.185 278.893 326.668 290.168C321.151 301.443 317.343 301.676 301.483 300.27C285.623 298.863 267.665 292.833 266.709 292.833C265.754 292.833 251.557 290.137 244.827 286.803C240.258 284.453 235.846 281.811 231.617 278.893C231.829 276.916 232.312 274.978 233.055 273.135C234.259 270.259 238.098 249.387 238.098 249.387C242.514 251.993 247.172 254.163 252.007 255.868C256.248 257.204 260.576 258.243 264.961 258.976C264.961 258.976 269.515 256.101 270.952 255.62C272.39 255.138 275.273 258.495 279.352 259.458C283.086 260.318 286.866 260.962 290.674 261.385C291.638 261.385 301.436 260.22 300.776 260.422C299.898 260.686 299.082 258.868 299.338 257.314C300.142 254.821 301.183 252.411 302.447 250.118C303.162 249.154 303.162 245.557 303.162 243.163C303.162 240.77 299.805 215.577 301.483 208.623C303.162 201.668 313.209 187.269 313.209 187.269C313.209 187.269 313.652 185.101 318.967 185.109C324.282 185.116 332.876 190.867 336.474 193.983" stroke="#263238" stroke-width="0.346181" stroke-miterlimit="10"/>
<path d="M335.923 217.924C334.031 215.947 331.782 214.347 329.294 213.207C326.351 211.968 323.07 211.787 320.008 212.695" stroke="#263238" stroke-width="0.346181" stroke-miterlimit="10"/>
<path d="M339.085 221.475C339.085 221.475 338.371 220.52 337.189 219.237" stroke="#263238" stroke-width="0.346181" stroke-miterlimit="10"/>
<path d="M237.749 276.274C237.749 276.55 237.667 276.821 237.513 277.051C237.359 277.281 237.141 277.46 236.885 277.566C236.63 277.672 236.348 277.7 236.077 277.646C235.806 277.592 235.556 277.459 235.361 277.263C235.165 277.067 235.032 276.818 234.978 276.547C234.924 276.275 234.952 275.994 235.058 275.739C235.164 275.483 235.343 275.265 235.573 275.111C235.803 274.957 236.073 274.875 236.35 274.875C236.72 274.877 237.075 275.025 237.337 275.287C237.599 275.549 237.747 275.904 237.749 276.274Z" stroke="#263238" stroke-width="0.346181" stroke-miterlimit="10"/>
<path d="M310.715 269.747C311.613 270.729 312.604 271.622 313.675 272.412" stroke="#263238" stroke-width="0.346181" stroke-miterlimit="10"/>
<path d="M301.204 259.225C301.204 259.225 305.47 264.198 309.114 268.068" stroke="#263238" stroke-width="0.346181" stroke-miterlimit="10"/>
<path d="M285.235 272.443C286.009 273.6 286.847 274.713 287.745 275.776" stroke="#263238" stroke-width="0.346181" stroke-miterlimit="10"/>
<path d="M277.705 259.94C277.705 259.94 280.774 265.519 283.859 270.322" stroke="#263238" stroke-width="0.346181" stroke-miterlimit="10"/>
<path d="M246.056 273.865C245.069 278.527 243.965 282.677 242.947 284.41" stroke="#263238" stroke-width="0.346181" stroke-miterlimit="10"/>
<path d="M249.156 256.109C249.156 256.109 248.192 262.885 246.825 269.91" stroke="#263238" stroke-width="0.346181" stroke-miterlimit="10"/>
<path d="M62.9946 319.673H8.6001" stroke="#263238" stroke-width="0.346181" stroke-miterlimit="10"/>
<path d="M358.582 319.673H70.7651" stroke="#263238" stroke-width="0.346181" stroke-miterlimit="10"/>
</svg>
