<?xml version="1.0" encoding="utf-8"?>
<!-- Generator: Adobe Illustrator 27.5.0, SVG Export Plug-In . SVG Version: 6.00 Build 0)  -->
<svg version="1.1" xmlns="http://www.w3.org/2000/svg" xmlns:xlink="http://www.w3.org/1999/xlink" x="0px" y="0px"
	 viewBox="0 0 500 500" style="enable-background:new 0 0 500 500;" xml:space="preserve">
<g id="Background_complete">
	<g>
		<g>
			<g>
				<g>
					<path style="fill:#E0E0E0;" d="M443.92,340.946H263.174c-3.232,0-5.862-2.63-5.862-5.862V71.81c0-3.232,2.63-5.862,5.862-5.862
						H443.92c3.232,0,5.862,2.629,5.862,5.862v263.273C449.783,338.316,447.153,340.946,443.92,340.946z M263.174,66.199
						c-3.095,0-5.612,2.518-5.612,5.612v263.273c0,3.095,2.518,5.612,5.612,5.612H443.92c3.095,0,5.612-2.518,5.612-5.612V71.81
						c0-3.094-2.518-5.612-5.612-5.612H263.174z"/>
				</g>
			</g>
			<g>
				<g>
					<path style="fill:#E0E0E0;" d="M235.493,340.946H54.746c-3.232,0-5.862-2.63-5.862-5.862V71.81
						c0-3.232,2.629-5.862,5.862-5.862h180.747c3.232,0,5.862,2.629,5.862,5.862v263.273
						C241.355,338.316,238.725,340.946,235.493,340.946z M54.746,66.199c-3.094,0-5.612,2.518-5.612,5.612v263.273
						c0,3.095,2.518,5.612,5.612,5.612h180.747c3.095,0,5.612-2.518,5.612-5.612V71.81c0-3.094-2.518-5.612-5.612-5.612H54.746z"/>
				</g>
			</g>
		</g>
		<g>
			<g>
				<rect x="0" y="402.016" style="fill:#E0E0E0;" width="500" height="0.25"/>
			</g>
		</g>
	</g>
	<path style="fill:#EBEBEB;" d="M151.775,107.769c-1.485,2.262-2.484,4.746-3.016,7.309l-4.081,0.384l0,7.904l4.082,0.385
		c0.531,2.562,1.531,5.046,3.016,7.309l-2.607,3.149l5.589,5.589l3.148-2.607c2.262,1.485,4.747,2.484,7.309,3.016l0.384,4.082
		l7.904,0l0.385-4.081c2.563-0.532,5.047-1.531,7.309-3.016l3.149,2.607l5.589-5.589l-2.607-3.149
		c1.485-2.262,2.484-4.746,3.016-7.309l4.081-0.385l0.001-7.904l-4.081-0.385c-0.532-2.562-1.531-5.046-3.016-7.308l2.607-3.149
		l-5.589-5.589l-3.148,2.607c-2.262-1.485-4.747-2.485-7.309-3.017l-0.385-4.081l-7.904,0l-0.384,4.081
		c-2.562,0.532-5.047,1.531-7.308,3.016l-3.149-2.607l-5.589,5.589L151.775,107.769z M177.117,111.848
		c4.178,4.178,4.178,10.953,0,15.132c-4.179,4.179-10.954,4.178-15.132,0c-4.179-4.179-4.179-10.953,0-15.132
		C166.164,107.67,172.938,107.669,177.117,111.848z"/>
	<g>
		<path style="fill:#E0E0E0;" d="M86.53,213.303l-49.24,6.149c-5.959,0.744-10.49-5.242-8.154-10.775L48.43,162.96l19.295-45.718
			c2.335-5.533,9.785-6.463,13.409-1.674l29.945,39.569l29.945,39.569c3.624,4.789,0.705,11.705-5.254,12.449L86.53,213.303z"/>
		<path style="fill:#F5F5F5;" d="M85.625,206.057l-45.914,5.734c-2.027,0.253-3.567-1.783-2.773-3.664l17.992-42.63L72.696,123.4
			c0.894-2.118,3.746-2.475,5.133-0.641l27.574,36.435l28.029,37.037c1.185,1.566,0.231,3.827-1.718,4.07L85.625,206.057z"/>
		<g>
			<path style="fill:#E0E0E0;" d="M72.563,154.161l11.055-1.381l1.55,27.393l-7.37,0.92L72.563,154.161z M79.077,194.483
				c-1.222-0.913-1.925-2.122-2.113-3.629c-0.188-1.505,0.19-2.831,1.134-3.974c0.943-1.145,2.248-1.82,3.912-2.028
				c1.664-0.208,3.094,0.127,4.29,1.004c1.196,0.876,1.888,2.068,2.075,3.572c0.188,1.508-0.197,2.853-1.155,4.037
				c-0.959,1.188-2.25,1.883-3.874,2.085C81.721,195.753,80.298,195.397,79.077,194.483z"/>
		</g>
	</g>
	<g id="freepik--Bitcoin--inject-488">
		<path style="fill:#E0E0E0;" d="M42.571,289.242c0,20.41,15.533,36.956,34.695,36.956h6.819v-73.911h-6.819
			C58.105,252.287,42.571,268.832,42.571,289.242z"/>
		<circle style="fill:#F5F5F5;" cx="84.085" cy="289.242" r="36.956"/>
		<circle style="fill:#F0F0F0;" cx="84.085" cy="289.242" r="29.588"/>
		<path style="fill:#E0E0E0;enable-background:new    ;" d="M64.101,266.733c12.439-11.028,31.463-9.884,42.491,2.556
			c11.028,12.439,9.884,31.463-2.556,42.491c10.092-11.396,10.087-28.533-0.011-39.923c-11.028-12.439-30.052-13.583-42.491-2.556
			C62.338,268.394,63.195,267.536,64.101,266.733z"/>
		<path style="fill:#E0E0E0;enable-background:new    ;" d="M96.947,290.902c-1.052-1.067-2.594-1.741-4.625-2.021
			c1.102-0.458,2.064-1.197,2.791-2.143c0.9-1.261,1.296-2.814,1.109-4.352c-0.149-1.874-1.109-3.589-2.628-4.696
			c-1.558-1.167-3.667-1.617-6.327-1.351l-1.637,0.164l-0.464-4.638l-3.097,0.309l0.464,4.638l-3.84,0.384l-0.464-4.638
			l-3.093,0.309l0.464,4.638l-6.727,0.672l0.559,5.594l2.419-0.242l1.641,16.422l-2.419,0.242l0.559,5.594l6.727-0.672l0.464,4.638
			l3.093-0.309l-0.463-4.638l3.84-0.384l0.463,4.638l3.097-0.31l-0.464-4.638l0.393-0.039c1.274-0.187,2.538-0.44,3.786-0.759
			c1.426-0.33,2.476-0.739,3.15-1.227c1.07-0.759,1.919-1.788,2.459-2.983c0.55-1.243,0.755-2.611,0.596-3.961
			C98.608,293.385,98,291.972,96.947,290.902z M80.461,282.668l3.768-0.376c1.294-0.129,2.223,0.006,2.788,0.406
			c0.58,0.425,0.937,1.089,0.971,1.807c0.122,0.741-0.092,1.498-0.584,2.065c-0.474,0.51-1.377,0.832-2.71,0.965l-3.709,0.371
			L80.461,282.668z M89.448,297.242c-0.55,0.582-1.56,0.946-3.028,1.093l-4.35,0.435l-0.561-5.61l4.331-0.433
			c1.497-0.15,2.567-0.006,3.21,0.43c0.636,0.421,1.04,1.114,1.093,1.874C90.266,295.835,90.009,296.652,89.448,297.242z"/>
		<path style="fill:#FFFFFF;" d="M95.913,291.005c-1.052-1.067-2.594-1.741-4.625-2.021c1.102-0.459,2.066-1.198,2.794-2.144
			c0.898-1.262,1.292-2.814,1.106-4.352c-0.149-1.874-1.109-3.589-2.628-4.696c-1.558-1.167-3.667-1.617-6.327-1.351l-1.637,0.164
			l-0.463-4.638l-3.093,0.309l0.464,4.638l-3.843,0.384l-0.464-4.638l-3.093,0.309l0.464,4.638l-6.727,0.672l0.559,5.594
			l2.419-0.242l1.641,16.422l-2.419,0.242l0.559,5.594l6.727-0.672l0.463,4.638l3.093-0.309l-0.464-4.638l3.843-0.384l0.464,4.638
			l3.093-0.309l-0.464-4.638l0.393-0.039c1.274-0.187,2.538-0.44,3.786-0.759c1.424-0.33,2.474-0.739,3.15-1.227
			c1.071-0.758,1.92-1.788,2.459-2.983c0.55-1.243,0.756-2.611,0.596-3.961C97.574,293.489,96.965,292.075,95.913,291.005z
			 M79.426,282.771l3.768-0.376c1.294-0.129,2.223,0.006,2.788,0.406c0.58,0.425,0.937,1.089,0.971,1.807
			c0.122,0.741-0.092,1.498-0.584,2.065c-0.476,0.51-1.379,0.832-2.71,0.965l-3.709,0.371L79.426,282.771z M88.414,297.345
			c-0.55,0.582-1.56,0.946-3.028,1.093l-4.35,0.435l-0.561-5.611l4.331-0.433c1.495-0.149,2.565-0.006,3.21,0.43
			c0.637,0.42,1.041,1.113,1.093,1.874C89.231,295.939,88.975,296.755,88.414,297.345z"/>
	</g>
	<g id="freepik--Bitcoin--inject-488_00000143575303994690491580000012769091274647980929_">
		<path style="fill:#E0E0E0;" d="M270.038,112.812c-4.523,19.55,6.689,38.841,25.043,43.088l6.532,1.511l16.38-70.797l-6.532-1.511
			C293.107,80.856,274.561,93.262,270.038,112.812z"/>
		
			<ellipse transform="matrix(0.999 -0.0447 0.0447 0.999 -5.1496 13.9857)" style="fill:#F5F5F5;" cx="309.803" cy="122.012" rx="36.334" ry="36.334"/>
		
			<ellipse transform="matrix(0.7071 -0.7071 0.7071 0.7071 4.4636 254.8005)" style="fill:#F0F0F0;" cx="309.803" cy="122.012" rx="29.09" ry="29.09"/>
		<path style="fill:#E0E0E0;enable-background:new    ;" d="M295.65,96.022c14.359-7.807,32.328-2.494,40.135,11.865
			c7.806,14.359,2.494,32.328-11.865,40.134c12.192-8.679,15.986-25.095,8.837-38.244c-7.807-14.359-25.775-19.671-40.135-11.865
			C293.592,97.223,294.603,96.591,295.65,96.022z"/>
		<path style="fill:#E0E0E0;enable-background:new    ;" d="M321.755,126.452c-0.771-1.256-2.099-2.243-3.983-2.961
			c1.157-0.194,2.243-0.689,3.148-1.435c1.142-1.009,1.865-2.408,2.027-3.923c0.272-1.828-0.267-3.684-1.477-5.081
			c-1.234-1.463-3.154-2.362-5.761-2.697l-1.604-0.206l0.584-4.546l-3.035-0.39l-0.584,4.546l-3.763-0.483l0.584-4.546l-3.031-0.389
			l-0.584,4.546l-6.592-0.847l-0.704,5.482l2.371,0.304l-2.067,16.094l-2.371-0.305l-0.704,5.482l6.592,0.847l-0.584,4.546
			l3.031,0.389l0.584-4.546l3.763,0.483l-0.584,4.546l3.035,0.39l0.584-4.546l0.385,0.049c1.262,0.103,2.528,0.141,3.794,0.112
			c1.439,0,2.536-0.159,3.29-0.477c1.193-0.489,2.234-1.287,3.017-2.312c0.802-1.069,1.302-2.333,1.449-3.662
			C322.796,129.199,322.526,127.71,321.755,126.452z M307.788,114.911l3.692,0.474c1.268,0.163,2.128,0.498,2.581,1.007
			c0.461,0.535,0.656,1.251,0.529,1.946c-0.047,0.737-0.42,1.414-1.017,1.849c-0.567,0.384-1.503,0.492-2.81,0.324l-3.634-0.467
			L307.788,114.911z M313.167,130.863c-0.656,0.435-1.704,0.561-3.143,0.376l-4.263-0.548l0.706-5.498l4.244,0.545
			c1.467,0.188,2.46,0.563,2.98,1.123c0.516,0.544,0.749,1.297,0.632,2.038C314.262,129.697,313.836,130.423,313.167,130.863z"/>
		<path style="fill:#FFFFFF;" d="M320.742,126.322c-0.771-1.256-2.099-2.242-3.983-2.96c1.158-0.195,2.244-0.689,3.152-1.434
			c1.14-1.01,1.862-2.409,2.024-3.924c0.272-1.828-0.267-3.684-1.477-5.081c-1.234-1.463-3.154-2.362-5.761-2.697l-1.604-0.206
			l0.584-4.546l-3.032-0.39l-0.584,4.546l-3.766-0.484l0.584-4.546l-3.031-0.389l-0.584,4.546l-6.592-0.847l-0.704,5.482
			l2.371,0.305l-2.068,16.094l-2.371-0.305l-0.704,5.482l6.592,0.847l-0.584,4.546l3.032,0.389l0.584-4.546l3.766,0.484
			l-0.584,4.546l3.031,0.389l0.584-4.546l0.385,0.049c1.262,0.103,2.528,0.141,3.794,0.112c1.437,0,2.533-0.159,3.289-0.477
			c1.193-0.489,2.235-1.287,3.017-2.313c0.802-1.069,1.302-2.333,1.449-3.662C321.782,129.069,321.513,127.58,320.742,126.322z
			 M306.775,114.781l3.692,0.474c1.268,0.163,2.128,0.498,2.581,1.007c0.461,0.535,0.656,1.251,0.529,1.946
			c-0.047,0.737-0.42,1.415-1.017,1.849c-0.569,0.383-1.505,0.491-2.81,0.324l-3.634-0.467L306.775,114.781z M312.154,130.733
			c-0.656,0.435-1.703,0.561-3.143,0.376l-4.263-0.548l0.706-5.498l4.244,0.545c1.465,0.188,2.458,0.563,2.98,1.123
			c0.517,0.543,0.751,1.297,0.632,2.038C313.249,129.567,312.822,130.292,312.154,130.733z"/>
	</g>
	<g id="freepik--Bitcoin--inject-488_00000080888128035505840300000009175377559567137426_">
		<path style="fill:#E0E0E0;" d="M214.352,81.711c2.274,14.233,14.951,24.041,28.313,21.906l4.755-0.76l-8.236-51.544l-4.755,0.76
			C221.066,54.209,212.077,67.478,214.352,81.711z"/>
		
			<ellipse transform="matrix(0.9922 -0.1245 0.1245 0.9922 -7.7042 30.8913)" style="fill:#F5F5F5;" cx="243.303" cy="77.085" rx="26.099" ry="26.099"/>
		
			<ellipse transform="matrix(0.9124 -0.4093 0.4093 0.9124 -10.2384 106.3307)" style="fill:#F0F0F0;" cx="243.303" cy="77.085" rx="20.896" ry="20.896"/>
		<path style="fill:#E0E0E0;enable-background:new    ;" d="M226.858,63.615c7.446-9.077,20.84-10.399,29.917-2.953
			c9.077,7.446,10.399,20.84,2.953,29.917c5.768-9.072,3.855-21.022-4.456-27.84c-9.077-7.446-22.471-6.124-29.917,2.953
			C225.813,64.97,226.315,64.276,226.858,63.615z"/>
		<path style="fill:#E0E0E0;enable-background:new    ;" d="M252.457,76.81c-0.853-0.627-2.003-0.925-3.451-0.894
			c0.717-0.442,1.306-1.065,1.708-1.806c0.487-0.98,0.59-2.107,0.288-3.159c-0.313-1.29-1.173-2.379-2.356-2.982
			c-1.216-0.64-2.737-0.719-4.563-0.237l-1.123,0.296l-0.84-3.183l-2.125,0.561l0.84,3.183l-2.635,0.696l-0.84-3.183l-2.123,0.56
			l0.84,3.183l-4.616,1.218l1.013,3.839l1.66-0.438l2.974,11.27l-1.66,0.438l1.013,3.839l4.616-1.218l0.84,3.183l2.123-0.56
			l-0.84-3.183l2.635-0.695l0.84,3.183l2.125-0.561l-0.84-3.183l0.27-0.071c0.868-0.273,1.721-0.59,2.555-0.951
			c0.958-0.389,1.645-0.791,2.06-1.207c0.662-0.648,1.139-1.461,1.383-2.354c0.245-0.928,0.236-1.905-0.026-2.828
			C253.892,78.356,253.31,77.438,252.457,76.81z M240.042,72.905l2.586-0.682c0.888-0.234,1.551-0.244,1.989-0.028
			c0.452,0.232,0.775,0.655,0.878,1.152c0.168,0.503,0.103,1.055-0.177,1.505c-0.273,0.409-0.868,0.733-1.783,0.975l-2.545,0.672
			L240.042,72.905z M247.934,82.066c-0.319,0.467-0.982,0.834-1.99,1.1l-2.985,0.788l-1.016-3.85l2.972-0.784
			c1.027-0.271,1.789-0.29,2.286-0.058c0.49,0.223,0.849,0.661,0.971,1.185C248.347,80.994,248.259,81.592,247.934,82.066z"/>
		<path style="fill:#FFFFFF;" d="M251.747,76.997c-0.853-0.627-2.003-0.925-3.451-0.894c0.718-0.443,1.307-1.065,1.71-1.807
			c0.486-0.98,0.588-2.107,0.286-3.158c-0.313-1.29-1.173-2.379-2.356-2.982c-1.217-0.64-2.738-0.719-4.563-0.237l-1.123,0.296
			l-0.84-3.183l-2.123,0.56l0.84,3.183l-2.637,0.696l-0.84-3.183l-2.123,0.56l0.84,3.183l-4.616,1.218l1.013,3.839l1.66-0.438
			l2.974,11.27l-1.66,0.438l1.013,3.839l4.616-1.218l0.84,3.183l2.123-0.56l-0.84-3.183l2.637-0.696l0.84,3.183l2.123-0.56
			l-0.84-3.183l0.269-0.071c0.868-0.272,1.721-0.59,2.556-0.951c0.956-0.389,1.643-0.791,2.06-1.207
			c0.662-0.648,1.139-1.461,1.382-2.354c0.245-0.928,0.236-1.905-0.026-2.828C253.182,78.544,252.6,77.626,251.747,76.997z
			 M239.332,73.092l2.585-0.682c0.888-0.234,1.551-0.244,1.989-0.028c0.452,0.231,0.775,0.655,0.878,1.152
			c0.168,0.503,0.103,1.055-0.177,1.505c-0.275,0.409-0.869,0.734-1.783,0.975l-2.545,0.672L239.332,73.092z M247.224,82.254
			c-0.319,0.467-0.982,0.834-1.99,1.1l-2.985,0.788l-1.016-3.85l2.972-0.784c1.026-0.271,1.788-0.29,2.287-0.058
			c0.491,0.222,0.85,0.66,0.971,1.185C247.638,81.182,247.55,81.78,247.224,82.254z"/>
	</g>
	<g>
		<rect x="415.82" y="135.29" style="fill:#F5F5F5;" width="37.849" height="12.977"/>
		<path style="fill:#E0E0E0;" d="M412.652,135.897v27.443c0,0.762,0.618,1.381,1.38,1.381h40.39c0.762,0,1.38-0.618,1.38-1.381
			v-24.741c0-0.762-0.618-1.381-1.38-1.381h-24.564c-0.497,0-0.955-0.267-1.201-0.699l-0.772-1.36
			c-0.199-0.35-0.578-0.568-0.989-0.568h-12.904C413.253,134.59,412.652,135.175,412.652,135.897z"/>
	</g>
	<path style="fill:#EBEBEB;" d="M124.846,357.07l-1.788,0.168l0,3.462l1.787,0.168c0.233,1.122,0.671,2.211,1.321,3.201
		l-1.142,1.379l2.448,2.448l1.379-1.142c0.991,0.65,2.079,1.088,3.201,1.321l0.168,1.787l3.462,0l0.168-1.787
		c1.122-0.233,2.21-0.671,3.201-1.321l1.379,1.142l2.447-2.448l-1.141-1.379c0.65-0.991,1.088-2.079,1.321-3.201l1.788-0.168
		l0-3.462l-1.788-0.168c-0.233-1.122-0.67-2.21-1.321-3.201l1.141-1.379l-2.448-2.448l-1.379,1.141
		c-0.991-0.65-2.079-1.088-3.201-1.321l-0.168-1.787l-3.462,0l-0.168,1.788c-1.122,0.233-2.21,0.67-3.201,1.321l-1.379-1.142
		l-2.448,2.448l1.142,1.379C125.517,354.86,125.079,355.948,124.846,357.07z M137.266,355.655c1.83,1.83,1.83,4.797,0,6.627
		c-1.83,1.83-4.797,1.83-6.627,0c-1.83-1.83-1.83-4.797,0-6.627C132.469,353.825,135.436,353.825,137.266,355.655z"/>
	<path style="fill:#EBEBEB;" d="M122.915,86.057l-2.022,0.19l0,3.915l2.022,0.19c0.263,1.269,0.758,2.5,1.494,3.62l-1.291,1.56
		l2.768,2.769l1.56-1.291c1.121,0.736,2.351,1.231,3.62,1.494l0.19,2.022l3.915,0l0.19-2.022c1.269-0.264,2.5-0.759,3.62-1.494
		l1.56,1.291l2.768-2.769l-1.291-1.559c0.736-1.121,1.23-2.352,1.494-3.62l2.022-0.19l0-3.915l-2.022-0.19
		c-0.263-1.269-0.758-2.5-1.494-3.62l1.291-1.56l-2.768-2.768l-1.559,1.291c-1.12-0.735-2.351-1.231-3.62-1.494l-0.19-2.022
		l-3.915,0l-0.19,2.022c-1.269,0.263-2.5,0.758-3.621,1.494l-1.56-1.291l-2.769,2.769l1.291,1.56
		C123.673,83.557,123.178,84.788,122.915,86.057z M136.962,84.457c2.07,2.07,2.07,5.425,0,7.495c-2.07,2.07-5.426,2.07-7.495,0
		c-2.07-2.07-2.07-5.426,0-7.496C131.536,82.387,134.892,82.387,136.962,84.457z"/>
	<path style="fill:#F0F0F0;" d="M374.533,86.132c-1.073,1.633-1.794,3.427-2.178,5.278l-2.947,0.277l0,5.707l2.947,0.278
		c0.384,1.85,1.105,3.644,2.178,5.277l-1.882,2.274l4.036,4.036l2.273-1.882c1.633,1.072,3.427,1.794,5.277,2.178l0.278,2.947
		l5.707,0l0.278-2.947c1.85-0.384,3.644-1.106,5.277-2.178l2.274,1.882l4.036-4.036l-1.882-2.274
		c1.072-1.633,1.793-3.427,2.178-5.277l2.947-0.278l0-5.707l-2.947-0.278c-0.384-1.85-1.106-3.644-2.178-5.277l1.882-2.274
		l-4.036-4.036l-2.273,1.882c-1.634-1.072-3.427-1.794-5.277-2.178l-0.278-2.947l-5.707,0l-0.278,2.947
		c-1.85,0.384-3.644,1.105-5.277,2.178l-2.274-1.882l-4.036,4.036L374.533,86.132z M392.832,89.077
		c3.017,3.017,3.017,7.909,0,10.926c-3.018,3.017-7.91,3.017-10.927,0c-3.017-3.017-3.017-7.909,0-10.926
		C384.923,86.06,389.815,86.06,392.832,89.077z"/>
	<path style="fill:#F5F5F5;" d="M443.401,231.698c-1.072,1.633-1.794,3.427-2.178,5.277l-2.947,0.278l0,5.707l2.947,0.278
		c0.384,1.85,1.105,3.644,2.178,5.277l-1.882,2.274l4.036,4.036l2.273-1.882c1.633,1.072,3.427,1.794,5.277,2.178l0.277,2.947
		l5.707,0l0.278-2.947c1.85-0.384,3.644-1.106,5.277-2.178l2.274,1.882l4.036-4.036l-1.882-2.274
		c1.072-1.633,1.794-3.427,2.178-5.277l2.947-0.278l0-5.707l-2.947-0.278c-0.384-1.85-1.106-3.644-2.178-5.277l1.882-2.274
		l-4.036-4.036l-2.273,1.882c-1.634-1.072-3.427-1.794-5.277-2.178l-0.278-2.947l-5.707,0l-0.277,2.947
		c-1.85,0.384-3.644,1.105-5.277,2.178l-2.274-1.882l-4.036,4.036L443.401,231.698z M461.7,234.643
		c3.017,3.017,3.017,7.909,0,10.926c-3.018,3.017-7.91,3.017-10.927,0c-3.017-3.017-3.017-7.909,0-10.926
		C453.791,231.626,458.682,231.626,461.7,234.643z"/>
</g>
<g id="Background_simple" style="display:none;">
	<g id="freepik--background-simple--inject-175" style="display:inline;">
		<path style="fill:#407BFF;" d="M114.791,375.275c92.875,45.885,203.915-48.953,257.666-116.786
			c25.185-31.791,50.423-72.306,41.854-114.615c-9.453-46.704-53.309-82.486-101.132-77.793
			c-64.244,6.306-54.142,54.506-72.215,100.013c-20.557,51.827-57.418,21.389-99.246,21.35
			C38.533,187.34,34.164,335.449,114.791,375.275z M105.754,260.465l-0.117,0.091L105.754,260.465z M104.272,261.622l-0.117,0.091
			L104.272,261.622z M104.09,261.765l-0.169,0.13L104.09,261.765z"/>
	</g>
	
		<g id="freepik--background-simple--inject-175_00000029737917736333010190000002731858825743952804_" style="display:inline;opacity:0.9;">
		<path style="fill:#FFFFFF;" d="M114.791,375.275c92.875,45.885,203.915-48.953,257.666-116.786
			c25.185-31.791,50.423-72.306,41.854-114.615c-9.453-46.704-53.309-82.486-101.132-77.793
			c-64.244,6.306-54.142,54.506-72.215,100.013c-20.557,51.827-57.418,21.389-99.246,21.35
			C38.533,187.34,34.164,335.449,114.791,375.275z M105.754,260.465l-0.117,0.091L105.754,260.465z M104.272,261.622l-0.117,0.091
			L104.272,261.622z M104.09,261.765l-0.169,0.13L104.09,261.765z"/>
	</g>
</g>
<g id="Shadow">
	<g>
		<g>
			<path style="fill:#F5F5F5;" d="M464.335,448.645c0,3.387-93.516,6.132-208.875,6.132s-208.875-2.745-208.875-6.132
				c0-3.387,93.516-6.132,208.875-6.132S464.335,445.258,464.335,448.645z"/>
		</g>
	</g>
</g>
<g id="Speech_Bubble">
	<g>
		<g>
			<g>
				<g>
					<circle style="fill:#407BFF;" cx="425.587" cy="202.46" r="19.397"/>
				</g>
				<g>
					<polygon style="fill:#407BFF;" points="422.669,217.376 418.496,220.119 420.735,226.007 425.296,221.812 					"/>
				</g>
			</g>
			
				<text transform="matrix(1 0 0 1 421.8963 212.2223)" style="fill:#FFFFFF; font-family:'Montserrat-Bold'; font-size:25.7509px;">!</text>
		</g>
		<path style="fill:none;stroke:#407BFF;stroke-width:0.5;stroke-linecap:round;stroke-linejoin:round;stroke-miterlimit:10;" d="
			M436.809,183.638c5.641,2.82,9.671,8.636,10.33,14.908"/>
		<path style="fill:none;stroke:#407BFF;stroke-width:0.5;stroke-linecap:round;stroke-linejoin:round;stroke-miterlimit:10;" d="
			M447.339,201.432c0.171,0.947,0.144,1.928-0.079,2.864"/>
	</g>
</g>
<g id="Device">
	<g>
		<g>
			<g>
				<g>
					<path style="fill:#263238;" d="M287.977,397.098v4.02c0,0.501-0.407,0.898-0.908,0.898h-113.5
						c-4.197,0-7.058-4.239-5.492-8.123l35.968-89.08l58.123,0.397l-1.984,11.558l-12.821,74.807
						c-0.418,2.412,1.441,4.625,3.894,4.625h35.812C287.569,396.2,287.977,396.597,287.977,397.098z"/>
				</g>
				<g style="opacity:0.6;">
					<path style="fill:#FFFFFF;" d="M287.977,397.098v4.02c0,0.501-0.407,0.898-0.908,0.898h-113.5
						c-4.197,0-7.058-4.239-5.492-8.123l22.301-55.221l13.667-33.859l58.123,0.397l-1.984,11.558l-5.575,32.533l-7.246,42.274
						c-0.418,2.412,1.441,4.625,3.894,4.625h35.812C287.569,396.2,287.977,396.597,287.977,397.098z"/>
				</g>
				<g style="opacity:0.4;enable-background:new    ;">
					<path style="fill:#FFFFFF;" d="M251.257,396.2h-73.848c-1.848,0-3.102-1.879-2.392-3.585l31.533-75.847h53.634l-12.821,74.807
						C246.945,393.987,248.803,396.2,251.257,396.2z"/>
				</g>
				<g style="opacity:0.2;enable-background:new    ;">
					<polygon points="262.167,305.21 260.184,316.768 254.608,349.301 190.377,338.672 204.044,304.813 					"/>
				</g>
			</g>
			<g>
				<g>
					<g>
						<path style="fill:#263238;" d="M375.192,139.153h-5.704H111.805h-5.703c-3.803,0-6.886,3.083-6.886,6.886v182.17
							c0,3.803,3.083,6.886,6.886,6.886h5.703h257.683h5.704c3.803,0,6.886-3.083,6.886-6.886v-182.17
							C382.078,142.236,378.995,139.153,375.192,139.153z"/>
					</g>
					<g style="opacity:0.8;">
						<path style="fill:#FFFFFF;" d="M375.192,139.153h-5.704H111.805h-5.703c-3.803,0-6.886,3.083-6.886,6.886v182.17
							c0,3.803,3.083,6.886,6.886,6.886h5.703h257.683h5.704c3.803,0,6.886-3.083,6.886-6.886v-182.17
							C382.078,142.236,378.995,139.153,375.192,139.153z"/>
					</g>
					<g style="opacity:0.2;enable-background:new    ;">
						<path d="M111.802,335.091h-5.704c-3.799,0-6.878-3.08-6.878-6.878v-182.17c0-3.81,3.08-6.89,6.878-6.89h5.704
							c-3.799,0-6.879,3.08-6.879,6.89v182.17C104.924,332.011,108.004,335.091,111.802,335.091z"/>
					</g>
				</g>
			</g>
			<g>
				<g>
					<rect x="111.133" y="145.069" style="fill:#407BFF;" width="264.744" height="175.664"/>
				</g>
			</g>
			<g style="opacity:0.4;">
				<g>
					<rect x="111.133" y="145.069" style="fill:#FFFFFF;" width="264.744" height="175.664"/>
				</g>
			</g>
		</g>
		<g>
			<g>
				<g>
					<rect x="110.921" y="145.069" style="fill:#407BFF;" width="265.057" height="175.872"/>
				</g>
				<g style="opacity:0.5;">
					<rect x="110.921" y="145.069" style="fill:#FFFFFF;" width="265.057" height="175.872"/>
				</g>
				<g>
					<rect x="110.921" y="145.069" style="fill:#407BFF;" width="265.06" height="17.057"/>
				</g>
				<g style="opacity:0.3;">
					<path style="fill:#FFFFFF;" d="M370.954,153.597c0,1.657-1.343,3-2.999,3c-1.657,0-3-1.343-3-3s1.343-3,3-3
						C369.612,150.598,370.954,151.941,370.954,153.597z"/>
				</g>
				<g style="opacity:0.3;">
					<path style="fill:#FFFFFF;" d="M362.43,153.597c0,1.657-1.343,3-3,3c-1.657,0-3-1.343-3-3s1.343-3,3-3
						C361.087,150.598,362.43,151.941,362.43,153.597z"/>
				</g>
				<g style="opacity:0.3;">
					<path style="fill:#FFFFFF;" d="M353.905,153.597c0,1.657-1.343,3-3,3s-3-1.343-3-3s1.343-3,3-3
						S353.905,151.941,353.905,153.597z"/>
				</g>
				<g style="opacity:0.1;">
					<rect x="372.217" y="162.126" width="3.761" height="158.781"/>
				</g>
				<g>
					<rect x="372.217" y="162.126" style="fill:#FFFFFF;" width="3.761" height="35.997"/>
				</g>
			</g>
			<g>
				<g>
					<rect x="324.888" y="180.352" style="fill:#FFFFFF;" width="28.435" height="9.75"/>
				</g>
				<g>
					<path style="fill:#407BFF;" d="M322.508,180.808v20.617c0,0.573,0.464,1.037,1.037,1.037h30.345
						c0.573,0,1.037-0.464,1.037-1.037v-18.588c0-0.573-0.464-1.037-1.037-1.037h-18.455c-0.373,0-0.718-0.201-0.902-0.525
						l-0.58-1.022c-0.149-0.263-0.434-0.427-0.743-0.427h-9.694C322.959,179.827,322.508,180.266,322.508,180.808z"/>
				</g>
			</g>
			<g>
				<g>
					<rect x="324.888" y="220.158" style="fill:#FFFFFF;" width="28.435" height="9.75"/>
				</g>
				<g>
					<path style="fill:#407BFF;" d="M322.508,220.615v20.617c0,0.573,0.464,1.037,1.037,1.037h30.345
						c0.573,0,1.037-0.464,1.037-1.037v-18.588c0-0.573-0.464-1.037-1.037-1.037h-18.455c-0.373,0-0.718-0.201-0.902-0.525
						l-0.58-1.022c-0.149-0.263-0.434-0.427-0.743-0.427h-9.694C322.959,219.633,322.508,220.072,322.508,220.615z"/>
				</g>
			</g>
			<g>
				<g>
					<rect x="324.888" y="256.294" style="fill:#FFFFFF;" width="28.435" height="9.75"/>
				</g>
				<g>
					<path style="fill:#407BFF;" d="M322.508,256.751v20.617c0,0.573,0.464,1.037,1.037,1.037h30.345
						c0.573,0,1.037-0.464,1.037-1.037V258.78c0-0.573-0.464-1.037-1.037-1.037h-18.455c-0.373,0-0.718-0.201-0.902-0.525
						l-0.58-1.022c-0.149-0.263-0.434-0.427-0.743-0.427h-9.694C322.959,255.769,322.508,256.209,322.508,256.751z"/>
				</g>
			</g>
			<g>
				<g>
					<rect x="124.084" y="180.352" style="fill:#FFFFFF;" width="28.435" height="9.75"/>
				</g>
				<g>
					<path style="fill:#407BFF;" d="M121.704,180.808v20.617c0,0.573,0.464,1.037,1.037,1.037h30.345
						c0.573,0,1.037-0.464,1.037-1.037v-18.588c0-0.573-0.464-1.037-1.037-1.037h-18.455c-0.373,0-0.718-0.201-0.902-0.525
						l-0.58-1.022c-0.149-0.263-0.434-0.427-0.743-0.427h-9.694C122.155,179.827,121.704,180.266,121.704,180.808z"/>
				</g>
			</g>
			<g>
				<g>
					<rect x="124.084" y="222.611" style="fill:#FFFFFF;" width="28.435" height="9.75"/>
				</g>
				<g>
					<path style="fill:#407BFF;" d="M121.704,223.067v20.618c0,0.573,0.464,1.037,1.037,1.037h30.345
						c0.573,0,1.037-0.464,1.037-1.037v-18.588c0-0.573-0.464-1.037-1.037-1.037h-18.455c-0.373,0-0.718-0.201-0.902-0.525
						l-0.58-1.022c-0.149-0.263-0.434-0.427-0.743-0.427h-9.694C122.155,222.086,121.704,222.525,121.704,223.067z"/>
				</g>
			</g>
			<g>
				<g>
					<rect x="124.084" y="261.25" style="fill:#FFFFFF;" width="28.435" height="9.75"/>
				</g>
				<g>
					<path style="fill:#407BFF;" d="M121.704,261.707v20.617c0,0.573,0.464,1.037,1.037,1.037h30.345
						c0.573,0,1.037-0.464,1.037-1.037v-18.588c0-0.573-0.464-1.037-1.037-1.037h-18.455c-0.373,0-0.718-0.201-0.902-0.525
						l-0.58-1.022c-0.149-0.263-0.434-0.427-0.743-0.427h-9.694C122.155,260.725,121.704,261.164,121.704,261.707z"/>
				</g>
			</g>
			<g>
				<g>
					<rect x="184.215" y="179.395" style="fill:#FFFFFF;" width="116.161" height="40.853"/>
				</g>
				<g>
					<path style="fill:#407BFF;" d="M174.491,181.307v86.391c0,2.4,1.897,4.346,4.237,4.346h123.961c2.34,0,4.237-1.946,4.237-4.346
						v-77.886c0-2.4-1.897-4.346-4.237-4.346h-75.388c-1.525,0-2.932-0.841-3.685-2.201l-2.37-4.283
						c-0.611-1.103-1.773-1.788-3.035-1.788h-39.602C176.335,177.194,174.491,179.035,174.491,181.307z"/>
				</g>
			</g>
			<g>
				<g>
					<path style="fill:#407BFF;" d="M170.056,214.581c-0.276,0-0.5-0.224-0.5-0.5v-26.196c0-0.276,0.224-0.5,0.5-0.5
						c0.276,0,0.5,0.224,0.5,0.5v26.196C170.556,214.358,170.332,214.581,170.056,214.581z"/>
				</g>
				<g>
					<path style="fill:#407BFF;" d="M170.056,184.944c-0.276,0-0.5-0.224-0.5-0.5v-3.256c0-0.276,0.224-0.5,0.5-0.5
						c0.276,0,0.5,0.224,0.5,0.5v3.256C170.556,184.721,170.332,184.944,170.056,184.944z"/>
				</g>
			</g>
			<g>
				<g>
					<g>
						<path style="fill:#E0E0E0;" d="M262.176,248.969h-37.363v-11.76c0-10.446,8.381-18.945,18.682-18.945
							s18.681,8.499,18.681,18.945V248.969z M228.973,244.75h29.042v-7.541c0-8.12-6.514-14.726-14.521-14.726
							c-8.007,0-14.521,6.606-14.521,14.726V244.75z"/>
					</g>
				</g>
				<g>
					<path style="fill:#407BFF;" d="M263.096,283.913h-39.211c-2.803,0-5.075-2.272-5.075-5.075v-29.684
						c0-2.803,2.272-5.075,5.075-5.075h39.211c2.803,0,5.075,2.272,5.075,5.075v29.684
						C268.17,281.641,265.898,283.913,263.096,283.913z"/>
				</g>
				<g style="opacity:0.3;">
					<path d="M263.096,279.281h-39.211c-2.803,0-5.075-2.272-5.075-5.075v-25.052c0-2.803,2.272-5.075,5.075-5.075h39.211
						c2.803,0,5.075,2.272,5.075,5.075v25.052C268.17,277.009,265.898,279.281,263.096,279.281z"/>
				</g>
				<g>
					<g>
						<path style="fill:#263238;" d="M249.138,258.581c0,3.281-2.623,5.941-5.859,5.941c-3.236,0-5.859-2.66-5.859-5.941
							c0-3.281,2.623-5.941,5.859-5.941C246.515,252.64,249.138,255.3,249.138,258.581z"/>
					</g>
					<g>
						<polygon style="fill:#263238;" points="242.102,260.367 239.744,270.722 247.779,270.722 244.612,260.306 						"/>
					</g>
				</g>
				<g>
					<g>
						<g>
							<path style="fill:#E0E0E0;" d="M287.693,240.106c-5.388,0-10.282-3.745-11.575-9.287c-0.731-3.135-0.215-6.372,1.454-9.113
								c1.669-2.741,4.291-4.659,7.383-5.401l12.856-3.083c3.091-0.742,6.284-0.217,8.987,1.475
								c2.703,1.693,4.595,4.352,5.326,7.487c1.509,6.472-2.456,12.983-8.837,14.514l-12.855,3.083
								C289.514,240.001,288.596,240.106,287.693,240.106z M300.548,217.82c-0.535,0-1.078,0.062-1.62,0.192l-12.856,3.083
								c-3.778,0.906-6.124,4.76-5.231,8.591c0.893,3.83,4.694,6.213,8.472,5.305l12.855-3.083c3.778-0.906,6.124-4.759,5.231-8.591
								C306.634,220.036,303.737,217.82,300.548,217.82z"/>
						</g>
					</g>
					<g>
						<g>
							<path style="fill:#E0E0E0;" d="M255.447,234.664c-1.194,0-2.235-0.894-2.401-2.127c-0.182-1.347,0.748-2.588,2.076-2.772
								l28.584-3.964c1.33-0.177,2.552,0.759,2.733,2.105c0.181,1.347-0.748,2.588-2.076,2.772l-28.584,3.964
								C255.668,234.656,255.557,234.664,255.447,234.664z"/>
						</g>
					</g>
					<g style="opacity:0.3;">
						<g>
							<polygon points="255.951,229.648 260.337,229.043 260.005,228.35 255.673,229.196 							"/>
						</g>
					</g>
					<g style="opacity:0.3;">
						<g>
							<polygon points="257.743,234.371 261.882,233.788 262,234.609 257.866,235.092 							"/>
						</g>
					</g>
					<g style="opacity:0.3;">
						<g>
							<polygon points="276.359,231.806 281.323,231.107 281.688,231.806 276.704,232.689 							"/>
						</g>
					</g>
					<g style="opacity:0.3;">
						<g>
							<polygon points="275.833,226.813 280.918,226.176 281.1,225.539 275.934,226.074 							"/>
						</g>
					</g>
				</g>
				<g>
					<g>
						<g>
							<path style="fill:#E0E0E0;" d="M338.128,227.47c-5.38,0.281-10.458-3.204-12.03-8.672c-0.889-3.093-0.537-6.352,0.991-9.177
								c1.528-2.825,4.05-4.876,7.1-5.778l12.682-3.749c3.049-0.902,6.264-0.544,9.049,1.005c2.785,1.55,4.809,4.107,5.698,7.2
								c1.835,6.385-1.795,13.093-8.091,14.955l-12.682,3.749C339.941,227.271,339.03,227.423,338.128,227.47z M349.838,204.544
								c-0.534,0.028-1.073,0.118-1.609,0.276l-12.683,3.749c-3.727,1.101-5.875,5.072-4.789,8.852
								c1.086,3.779,5.002,5.96,8.729,4.857l12.682-3.749c3.727-1.101,5.875-5.072,4.789-8.852
								C356.028,206.44,353.022,204.378,349.838,204.544z"/>
						</g>
					</g>
					<g>
						<g>
							<path style="fill:#E0E0E0;" d="M305.649,223.714c-1.193,0.062-2.278-0.777-2.506-2c-0.249-1.336,0.616-2.624,1.933-2.877
								l28.345-5.447c1.319-0.246,2.587,0.625,2.836,1.96c0.249,1.336-0.616,2.624-1.933,2.877l-28.345,5.447
								C305.869,223.695,305.759,223.708,305.649,223.714z"/>
						</g>
					</g>
					<g style="opacity:0.3;">
						<g>
							<polygon points="304.878,218.942 310.126,217.882 309.69,217.168 304.558,218.577 							"/>
						</g>
					</g>
					<g style="opacity:0.3;">
						<g>
							<polygon points="307.244,223.427 312.036,222.511 312.091,223.299 307.244,224.224 							"/>
						</g>
					</g>
					<g style="opacity:0.3;">
						<g>
							<polygon points="326.389,219.771 331.311,218.815 331.711,219.493 326.778,220.635 							"/>
						</g>
					</g>
					<g style="opacity:0.3;">
						<g>
							<polygon points="325.61,214.812 330.657,213.911 330.806,213.266 325.674,214.068 							"/>
						</g>
					</g>
				</g>
				<g>
					<g>
						<g>
							<path style="fill:#E0E0E0;" d="M356.717,212.05c-1.193,0.062-2.278-0.776-2.506-1.999c-0.25-1.336,0.616-2.624,1.933-2.877
								l28.345-5.447c1.319-0.246,2.587,0.625,2.836,1.96c0.25,1.336-0.616,2.624-1.933,2.877l-28.345,5.447
								C356.937,212.031,356.827,212.045,356.717,212.05z"/>
						</g>
					</g>
					<g style="opacity:0.3;">
						<g>
							<polygon points="355.946,207.278 361.194,206.218 360.758,205.505 355.626,206.914 							"/>
						</g>
					</g>
					<g style="opacity:0.3;">
						<g>
							<polygon points="358.312,211.764 363.104,210.848 363.159,211.635 358.312,212.561 							"/>
						</g>
					</g>
				</g>
				<g>
					<g>
						<g>
							<g>
								<path style="fill:#E0E0E0;" d="M196.263,239.469l-12.855-3.083c-6.382-1.531-10.346-8.042-8.837-14.514
									c0.731-3.135,2.623-5.794,5.326-7.487c2.703-1.692,5.896-2.217,8.987-1.475l12.856,3.083
									c3.092,0.742,5.714,2.66,7.383,5.401c1.669,2.741,2.186,5.978,1.454,9.113c-1.293,5.542-6.187,9.287-11.575,9.287
									C198.097,239.793,197.18,239.688,196.263,239.469z M179.295,223.004c-0.894,3.831,1.453,7.685,5.231,8.591l12.855,3.083
									c3.778,0.908,7.579-1.474,8.472-5.305c0.894-3.831-1.453-7.685-5.231-8.591l-12.856-3.083
									c-0.543-0.13-1.086-0.192-1.62-0.192C182.957,217.507,180.059,219.723,179.295,223.004z"/>
							</g>
						</g>
						<g>
							<g>
								<path style="fill:#E0E0E0;" d="M231.246,234.351c1.194,0,2.235-0.894,2.401-2.127c0.182-1.347-0.748-2.588-2.076-2.772
									l-28.584-3.964c-1.33-0.177-2.552,0.759-2.733,2.105c-0.182,1.347,0.748,2.588,2.076,2.772l28.584,3.964
									C231.026,234.343,231.137,234.351,231.246,234.351z"/>
							</g>
						</g>
						<g style="opacity:0.3;">
							<g>
								<polygon points="231.152,229.389 226.596,228.761 227.015,228.073 231.484,228.946 								"/>
							</g>
						</g>
						<g style="opacity:0.3;">
							<g>
								<polygon points="229.35,234.111 225.211,233.555 225.101,234.377 229.234,234.867 								"/>
							</g>
						</g>
						<g style="opacity:0.3;">
							<g>
								<polygon points="210.334,231.493 205.37,230.794 205.006,231.493 209.99,232.376 								"/>
							</g>
						</g>
						<g style="opacity:0.3;">
							<g>
								<polygon points="210.861,226.5 205.776,225.863 205.593,225.226 210.76,225.76 								"/>
							</g>
						</g>
					</g>
					<g>
						<g>
							<g>
								<path style="fill:#E0E0E0;" d="M145.504,227.905l-12.682-3.749c-6.296-1.862-9.925-8.57-8.091-14.955
									c0.889-3.093,2.913-5.65,5.698-7.2c2.785-1.549,6-1.907,9.049-1.005l12.683,3.749c3.05,0.902,5.571,2.954,7.1,5.778
									c1.528,2.825,1.88,6.084,0.991,9.177c-1.572,5.468-6.649,8.952-12.03,8.672
									C147.319,228.325,146.408,228.172,145.504,227.905z M129.391,210.579c-1.086,3.779,1.062,7.75,4.789,8.852l12.682,3.749
									c3.727,1.103,7.643-1.078,8.729-4.857c1.086-3.779-1.062-7.75-4.789-8.852l-12.682-3.749
									c-0.535-0.158-1.074-0.248-1.609-0.276C133.327,205.279,130.321,207.342,129.391,210.579z"/>
							</g>
						</g>
						<g>
							<g>
								<path style="fill:#E0E0E0;" d="M180.7,224.615c1.193,0.062,2.278-0.776,2.506-1.999c0.249-1.336-0.616-2.624-1.933-2.877
									l-28.345-5.447c-1.319-0.246-2.587,0.625-2.836,1.96c-0.249,1.336,0.616,2.624,1.933,2.877l28.345,5.447
									C180.48,224.596,180.59,224.61,180.7,224.615z"/>
							</g>
						</g>
						<g style="opacity:0.3;">
							<g>
								<polygon points="181.075,219.697 175.827,218.637 176.263,217.923 181.395,219.332 								"/>
							</g>
						</g>
						<g style="opacity:0.3;">
							<g>
								<polygon points="179.105,224.329 174.313,223.413 174.258,224.201 179.105,225.126 								"/>
							</g>
						</g>
						<g style="opacity:0.3;">
							<g>
								<polygon points="159.96,220.672 155.038,219.716 154.638,220.395 159.571,221.536 								"/>
							</g>
						</g>
						<g style="opacity:0.3;">
							<g>
								<polygon points="160.739,215.714 155.692,214.813 155.543,214.167 160.675,214.97 								"/>
							</g>
						</g>
					</g>
				</g>
				<g>
					<g>
						<g>
							<path style="fill:#E0E0E0;" d="M130.889,211.182c1.178,0.199,2.35-0.51,2.713-1.699c0.397-1.299-0.32-2.678-1.6-3.08
								l-27.557-8.66c-1.283-0.396-2.64,0.324-3.036,1.622c-0.397,1.299,0.319,2.678,1.6,3.08l27.557,8.66
								C130.673,211.138,130.781,211.164,130.889,211.182z"/>
						</g>
					</g>
					<g style="opacity:0.3;">
						<g>
							<polygon points="132.187,206.529 127.09,204.875 127.604,204.216 132.546,206.204 							"/>
						</g>
					</g>
					<g style="opacity:0.3;">
						<g>
							<polygon points="129.336,210.715 124.677,209.256 124.535,210.032 129.247,211.507 							"/>
						</g>
					</g>
				</g>
			</g>
		</g>
		<g>
			<g>
				<path style="fill:#407BFF;" d="M281.859,310.344h-80.316c-4.916,0-8.902-3.985-8.902-8.901l0,0c0-4.916,3.985-8.902,8.902-8.902
					h80.316c4.916,0,8.901,3.985,8.901,8.902l0,0C290.761,306.359,286.776,310.344,281.859,310.344z"/>
			</g>
			<g style="opacity:0.3;">
				<path d="M281.859,310.344h-80.316c-4.916,0-8.902-3.985-8.902-8.901l0,0c0-4.916,3.985-8.902,8.902-8.902h80.316
					c4.916,0,8.901,3.985,8.901,8.902l0,0C290.761,306.359,286.776,310.344,281.859,310.344z"/>
			</g>
			<g>
				<path style="fill:#407BFF;" d="M284.121,310.344h-80.19c-4.916,0-8.902-3.985-8.902-8.901l0,0c0-4.916,3.985-8.902,8.902-8.902
					h80.19c4.916,0,8.902,3.985,8.902,8.902l0,0C293.022,306.359,289.037,310.344,284.121,310.344z"/>
			</g>
			<g>
				<path style="fill:#FFFFFF;" d="M214.588,299.407c0.38,0.214,0.678,0.514,0.895,0.899c0.216,0.387,0.324,0.836,0.324,1.35
					c0,0.513-0.108,0.963-0.324,1.349c-0.217,0.387-0.515,0.686-0.895,0.899c-0.38,0.214-0.802,0.32-1.266,0.32
					c-0.637,0-1.137-0.201-1.502-0.603v2.327h-1.447v-6.787h1.382v0.574c0.358-0.433,0.881-0.648,1.567-0.648
					C213.787,299.088,214.208,299.194,214.588,299.407z M213.986,302.662c0.238-0.25,0.357-0.586,0.357-1.006
					c0-0.421-0.119-0.756-0.357-1.006c-0.238-0.251-0.542-0.376-0.913-0.376c-0.371,0-0.675,0.125-0.913,0.376
					c-0.238,0.25-0.357,0.585-0.357,1.006c0,0.42,0.119,0.756,0.357,1.006c0.238,0.25,0.542,0.376,0.913,0.376
					C213.443,303.038,213.748,302.912,213.986,302.662z"/>
				<path style="fill:#FFFFFF;" d="M220.481,299.64c0.414,0.367,0.621,0.922,0.621,1.664v2.847h-1.354v-0.621
					c-0.272,0.464-0.779,0.695-1.52,0.695c-0.383,0-0.716-0.065-0.997-0.194c-0.281-0.13-0.496-0.31-0.645-0.538
					c-0.148-0.228-0.222-0.488-0.222-0.779c0-0.463,0.174-0.828,0.524-1.094c0.349-0.266,0.888-0.398,1.618-0.398h1.15
					c0-0.315-0.096-0.559-0.288-0.729c-0.191-0.17-0.479-0.255-0.862-0.255c-0.266,0-0.527,0.042-0.783,0.125
					c-0.257,0.084-0.475,0.196-0.654,0.339l-0.52-1.011c0.272-0.191,0.598-0.34,0.979-0.445c0.38-0.104,0.771-0.157,1.173-0.157
					C219.474,299.088,220.067,299.272,220.481,299.64z M219.248,303.079c0.191-0.114,0.327-0.282,0.408-0.505v-0.51h-0.992
					c-0.593,0-0.89,0.194-0.89,0.584c0,0.186,0.073,0.332,0.218,0.44c0.145,0.108,0.345,0.162,0.598,0.162
					C218.836,303.251,219.056,303.194,219.248,303.079z"/>
				<path style="fill:#FFFFFF;" d="M227.269,299.162l-2.253,5.294c-0.229,0.575-0.511,0.98-0.848,1.215
					c-0.337,0.235-0.744,0.353-1.219,0.353c-0.26,0-0.517-0.04-0.77-0.12c-0.253-0.081-0.46-0.192-0.621-0.334l0.529-1.029
					c0.111,0.099,0.239,0.176,0.385,0.232c0.145,0.056,0.289,0.084,0.431,0.084c0.198,0,0.358-0.048,0.482-0.145
					c0.124-0.096,0.235-0.255,0.334-0.478l0.019-0.046l-2.161-5.025h1.493l1.4,3.384l1.409-3.384H227.269z"/>
				<path style="fill:#FFFFFF;" d="M232.072,299.273h1.279v1.112h-1.242v3.765h-1.447v-3.765h-0.77v-1.112h0.77v-0.223
					c0-0.569,0.169-1.021,0.505-1.355c0.337-0.333,0.811-0.5,1.423-0.5c0.216,0,0.422,0.023,0.617,0.069
					c0.195,0.046,0.357,0.113,0.487,0.199l-0.38,1.048c-0.167-0.117-0.361-0.176-0.584-0.176c-0.439,0-0.658,0.24-0.658,0.723
					V299.273z"/>
				<path style="fill:#FFFFFF;" d="M234.97,303.896c-0.417-0.22-0.744-0.524-0.979-0.913c-0.235-0.39-0.352-0.832-0.352-1.326
					c0-0.495,0.117-0.937,0.352-1.326c0.235-0.39,0.561-0.693,0.979-0.913c0.417-0.22,0.889-0.329,1.414-0.329
					c0.525,0,0.995,0.109,1.409,0.329c0.414,0.22,0.739,0.523,0.974,0.913c0.235,0.39,0.352,0.831,0.352,1.326
					c0,0.494-0.118,0.936-0.352,1.326c-0.235,0.389-0.56,0.693-0.974,0.913c-0.414,0.22-0.884,0.329-1.409,0.329
					C235.858,304.225,235.387,304.115,234.97,303.896z M237.297,302.662c0.238-0.25,0.357-0.586,0.357-1.006
					c0-0.421-0.119-0.756-0.357-1.006c-0.238-0.251-0.542-0.376-0.913-0.376c-0.371,0-0.677,0.125-0.918,0.376
					c-0.241,0.25-0.362,0.585-0.362,1.006c0,0.42,0.121,0.756,0.362,1.006c0.241,0.25,0.547,0.376,0.918,0.376
					C236.754,303.038,237.059,302.912,237.297,302.662z"/>
				<path style="fill:#FFFFFF;" d="M242.165,299.273c0.294-0.124,0.632-0.186,1.015-0.186v1.335
					c-0.161-0.013-0.269-0.019-0.325-0.019c-0.414,0-0.739,0.116-0.974,0.348c-0.235,0.231-0.352,0.58-0.352,1.043v2.355h-1.447
					v-4.988h1.382v0.658C241.638,299.579,241.871,299.397,242.165,299.273z"/>
				<path style="fill:#FFFFFF;" d="M251.729,299.162v4.988h-1.373v-0.594c-0.191,0.217-0.42,0.382-0.686,0.496
					c-0.266,0.114-0.553,0.172-0.862,0.172c-0.655,0-1.174-0.189-1.558-0.565c-0.383-0.377-0.575-0.937-0.575-1.679v-2.818h1.447
					v2.605c0,0.804,0.337,1.205,1.011,1.205c0.346,0,0.624-0.112,0.834-0.338c0.21-0.226,0.315-0.562,0.315-1.007v-2.466H251.729z"
					/>
				<path style="fill:#FFFFFF;" d="M257.603,299.644c0.381,0.371,0.57,0.922,0.57,1.651v2.855h-1.447v-2.634
					c0-0.396-0.086-0.69-0.259-0.885c-0.173-0.195-0.424-0.292-0.751-0.292c-0.365,0-0.656,0.112-0.872,0.338
					c-0.216,0.226-0.324,0.562-0.324,1.006v2.467h-1.446v-4.988h1.381v0.584c0.191-0.21,0.43-0.372,0.715-0.487
					c0.283-0.114,0.596-0.171,0.936-0.171C256.725,299.088,257.223,299.273,257.603,299.644z"/>
				<path style="fill:#FFFFFF;" d="M259.48,297.271h1.447v6.88h-1.447V297.271z"/>
				<path style="fill:#FFFFFF;" d="M263.232,303.896c-0.418-0.22-0.744-0.524-0.978-0.913c-0.235-0.39-0.353-0.832-0.353-1.326
					c0-0.495,0.117-0.937,0.353-1.326c0.234-0.39,0.561-0.693,0.978-0.913c0.416-0.22,0.889-0.329,1.414-0.329
					c0.525,0,0.994,0.109,1.408,0.329s0.739,0.523,0.975,0.913c0.234,0.39,0.352,0.831,0.352,1.326c0,0.494-0.117,0.936-0.352,1.326
					c-0.235,0.389-0.561,0.693-0.975,0.913s-0.883,0.329-1.408,0.329C264.121,304.225,263.648,304.115,263.232,303.896z
					 M265.559,302.662c0.238-0.25,0.357-0.586,0.357-1.006c0-0.421-0.119-0.756-0.357-1.006c-0.237-0.251-0.542-0.376-0.912-0.376
					c-0.371,0-0.678,0.125-0.918,0.376c-0.242,0.25-0.362,0.585-0.362,1.006c0,0.42,0.12,0.756,0.362,1.006
					c0.24,0.25,0.547,0.376,0.918,0.376C265.017,303.038,265.321,302.912,265.559,302.662z"/>
				<path style="fill:#FFFFFF;" d="M269.324,303.896c-0.424-0.22-0.755-0.524-0.992-0.913c-0.238-0.39-0.357-0.832-0.357-1.326
					c0-0.495,0.119-0.937,0.357-1.326c0.237-0.39,0.568-0.693,0.992-0.913c0.423-0.22,0.9-0.329,1.432-0.329
					c0.525,0,0.984,0.109,1.377,0.329c0.393,0.22,0.679,0.533,0.857,0.941l-1.121,0.603c-0.26-0.458-0.634-0.686-1.122-0.686
					c-0.378,0-0.69,0.124-0.937,0.371c-0.248,0.247-0.371,0.584-0.371,1.011c0,0.427,0.123,0.764,0.371,1.011
					c0.247,0.247,0.559,0.371,0.937,0.371c0.494,0,0.868-0.229,1.122-0.686l1.121,0.612c-0.179,0.396-0.465,0.704-0.857,0.927
					c-0.393,0.223-0.852,0.334-1.377,0.334C270.225,304.225,269.747,304.115,269.324,303.896z"/>
				<path style="fill:#FFFFFF;" d="M275.93,302.194l-0.695,0.686v1.27h-1.446v-6.88h1.446v3.895l2.114-2.003h1.726l-2.078,2.114
					l2.263,2.874h-1.753L275.93,302.194z"/>
			</g>
		</g>
	</g>
</g>
<g id="Plant">
	<g>
		<g>
			<g>
				<path style="fill:#407BFF;" d="M115.311,394.52c0,0,6.628-11.002,12.567-7.297c5.939,3.706,4.814,13.734-1.162,14.994
					c-5.976,1.26-10.422-1.468-10.422-1.468L115.311,394.52z"/>
				<path style="opacity:0.4;fill:#FFFFFF;enable-background:new    ;" d="M115.311,394.52c0,0,6.628-11.002,12.567-7.297
					c5.939,3.706,4.814,13.734-1.162,14.994c-5.976,1.26-10.422-1.468-10.422-1.468L115.311,394.52z"/>
				<path style="fill:#407BFF;" d="M111.064,424.851c0,0,17.662-34.374-1.606-37.731c-19.268-3.357-17.633,28.196-11.046,36.012
					C105,430.947,111.064,424.851,111.064,424.851z"/>
				<path style="opacity:0.5;fill:#FFFFFF;enable-background:new    ;" d="M111.064,424.851c0,0,17.662-34.374-1.606-37.731
					c-19.268-3.357-17.633,28.196-11.046,36.012C105,430.947,111.064,424.851,111.064,424.851z"/>
				<path style="fill:#407BFF;" d="M99.809,389.188c0,0,2.273-29.721-11.147-29.945c-13.42-0.224-22.225,27.695,6.843,36.444
					C95.504,395.686,99.685,392.081,99.809,389.188z"/>
				<path style="opacity:0.4;fill:#FFFFFF;enable-background:new    ;" d="M99.809,389.188c0,0,2.273-29.721-11.147-29.945
					c-13.42-0.224-22.225,27.695,6.843,36.444C95.504,395.686,99.685,392.081,99.809,389.188z"/>
				<path style="fill:none;stroke:#407BFF;stroke-width:0.5;stroke-linecap:round;stroke-linejoin:round;stroke-miterlimit:10;" d="
					M82.815,359.51c0.336,0.444,0.627,0.922,0.867,1.425"/>
				<path style="fill:none;stroke:#407BFF;stroke-width:0.5;stroke-linecap:round;stroke-linejoin:round;stroke-miterlimit:10;" d="
					M77.284,362.76c0.88,0.972,1.871,1.843,2.948,2.592"/>
				<path style="fill:none;stroke:#407BFF;stroke-width:0.5;stroke-linecap:round;stroke-linejoin:round;stroke-miterlimit:10;" d="
					M75.521,367.898c0.792,0.441,1.585,0.883,2.377,1.324"/>
				<path style="fill:none;stroke:#407BFF;stroke-width:0.5;stroke-linecap:round;stroke-linejoin:round;stroke-miterlimit:10;" d="
					M80.618,380.044c0.792,0.441,1.584,0.883,2.377,1.324"/>
				<path style="fill:none;stroke:#407BFF;stroke-width:0.5;stroke-linecap:round;stroke-linejoin:round;stroke-miterlimit:10;" d="
					M76.308,383.348c0.877,0.115,1.798-0.168,2.459-0.756"/>
				<path style="fill:none;stroke:#407BFF;stroke-width:0.5;stroke-linecap:round;stroke-linejoin:round;stroke-miterlimit:10;" d="
					M79.457,388.089c0.53-0.507,0.987-1.089,1.354-1.723"/>
				<path style="fill:none;stroke:#407BFF;stroke-width:0.5;stroke-linecap:round;stroke-linejoin:round;stroke-miterlimit:10;" d="
					M83.696,391.626c0.294-0.687,0.565-1.383,0.813-2.088"/>
				<path style="fill:none;stroke:#407BFF;stroke-width:0.5;stroke-linecap:round;stroke-linejoin:round;stroke-miterlimit:10;" d="
					M86.487,393.429c0.512-0.717,0.941-1.494,1.274-2.31"/>
				<path style="fill:none;stroke:#407BFF;stroke-width:0.5;stroke-linecap:round;stroke-linejoin:round;stroke-miterlimit:10;" d="
					M92.913,396.213c-0.48-0.756-0.644-1.706-0.444-2.58"/>
				<path style="fill:none;stroke:#407BFF;stroke-width:0.5;stroke-linecap:round;stroke-linejoin:round;stroke-miterlimit:10;" d="
					M102.099,385.678c-1.048,0.506-2.203,0.788-3.366,0.822"/>
				<path style="fill:none;stroke:#407BFF;stroke-width:0.5;stroke-linecap:round;stroke-linejoin:round;stroke-miterlimit:10;" d="
					M100.814,381.588c-0.841,0.309-1.762,0.396-2.646,0.251"/>
				<path style="fill:none;stroke:#407BFF;stroke-width:0.5;stroke-linecap:round;stroke-linejoin:round;stroke-miterlimit:10;" d="
					M100.523,376.941c-0.7-0.164-1.399-0.329-2.099-0.493"/>
				<path style="fill:none;stroke:#407BFF;stroke-width:0.5;stroke-linecap:round;stroke-linejoin:round;stroke-miterlimit:10;" d="
					M94.4,376.054c-0.699-0.165-1.399-0.329-2.099-0.494"/>
				<path style="fill:none;stroke:#407BFF;stroke-width:0.5;stroke-linecap:round;stroke-linejoin:round;stroke-miterlimit:10;" d="
					M93.036,370.503c-0.591,0.409-1.183,0.817-1.774,1.226"/>
				<path style="fill:none;stroke:#407BFF;stroke-width:0.5;stroke-linecap:round;stroke-linejoin:round;stroke-miterlimit:10;" d="
					M93.713,359.761c-0.42,0.583-0.839,1.167-1.259,1.75"/>
				<path style="fill:none;stroke:#407BFF;stroke-width:0.5;stroke-linecap:round;stroke-linejoin:round;stroke-miterlimit:10;" d="
					M99.793,372.258c-0.627,0.099-1.254,0.198-1.881,0.297"/>
				<path style="fill:none;stroke:#407BFF;stroke-width:0.5;stroke-linecap:round;stroke-linejoin:round;stroke-miterlimit:10;" d="
					M98.855,368.641c-0.597,0.094-1.195,0.189-1.792,0.283"/>
				<path style="fill:none;stroke:#407BFF;stroke-width:0.5;stroke-linecap:round;stroke-linejoin:round;stroke-miterlimit:10;" d="
					M96.846,364.582c-0.86,0.477-1.719,0.955-2.579,1.432"/>
				<path style="fill:none;stroke:#407BFF;stroke-width:0.5;stroke-linecap:round;stroke-linejoin:round;stroke-miterlimit:10;" d="
					M87.997,358.969c0.16,0.832,0.258,1.676,0.295,2.523"/>
				<path style="fill:none;stroke:#407BFF;stroke-width:0.5;stroke-linecap:round;stroke-linejoin:round;stroke-miterlimit:10;" d="
					M84.256,366.035c0.69,0.515,1.311,1.123,1.839,1.803"/>
				<path style="fill:none;stroke:#407BFF;stroke-width:0.5;stroke-linecap:round;stroke-linejoin:round;stroke-miterlimit:10;" d="
					M83.626,372.091c0.756,0.151,1.53,0.216,2.3,0.193"/>
				<path style="fill:none;stroke:#407BFF;stroke-width:0.5;stroke-linecap:round;stroke-linejoin:round;stroke-miterlimit:10;" d="
					M85.043,377.335c0.062,0.117,0.24,0.032,0.333-0.062c0.475-0.476,0.949-0.953,1.423-1.429"/>
				<path style="fill:none;stroke:#407BFF;stroke-width:0.5;stroke-linecap:round;stroke-linejoin:round;stroke-miterlimit:10;" d="
					M87.133,382.576c0.569-0.503,1.09-1.06,1.554-1.662"/>
				<path style="fill:none;stroke:#407BFF;stroke-width:0.5;stroke-linecap:round;stroke-linejoin:round;stroke-miterlimit:10;" d="
					M93.736,381.168c0.569-0.503,1.09-1.06,1.553-1.662"/>
				<path style="fill:none;stroke:#407BFF;stroke-width:0.5;stroke-linecap:round;stroke-linejoin:round;stroke-miterlimit:10;" d="
					M90.736,387.338c0.271-0.661,0.669-1.268,1.167-1.781"/>
				<path style="fill:none;stroke:#407BFF;stroke-width:0.5;stroke-linecap:round;stroke-linejoin:round;stroke-miterlimit:10;" d="
					M85.224,387.427c0.271-0.66,0.669-1.268,1.166-1.78"/>
				<path style="fill:none;stroke:#407BFF;stroke-width:0.5;stroke-linecap:round;stroke-linejoin:round;stroke-miterlimit:10;" d="
					M95.255,390.788c0.169-0.814,0.109-1.674-0.171-2.457"/>
				<path style="fill:none;stroke:#407BFF;stroke-width:0.5;stroke-linecap:round;stroke-linejoin:round;stroke-miterlimit:10;" d="
					M90.867,365.081c-0.338,0.692-0.675,1.383-1.013,2.075"/>
				<path style="fill:none;stroke:#407BFF;stroke-width:0.5;stroke-linecap:round;stroke-linejoin:round;stroke-miterlimit:10;" d="
					M76.908,372.753c0.52,0.665,1.168,1.23,1.897,1.655"/>
				<path style="fill:none;stroke:#407BFF;stroke-width:0.5;stroke-linecap:round;stroke-linejoin:round;stroke-miterlimit:10;" d="
					M75.03,379.408c0.694-0.039,1.389-0.078,2.083-0.117"/>
				<path style="fill:none;stroke:#407BFF;stroke-width:0.5;stroke-linecap:round;stroke-linejoin:round;stroke-miterlimit:10;" d="
					M107.648,385.146c0.524,0.91,0.828,1.946,0.878,2.995"/>
				<path style="fill:none;stroke:#407BFF;stroke-width:0.5;stroke-linecap:round;stroke-linejoin:round;stroke-miterlimit:10;" d="
					M113.902,386.375c0.208,1.198-0.127,2.479-0.895,3.422"/>
				<path style="fill:none;stroke:#407BFF;stroke-width:0.5;stroke-linecap:round;stroke-linejoin:round;stroke-miterlimit:10;" d="
					M101.156,387.933c0.4,0.605,0.884,1.155,1.434,1.629"/>
				<path style="fill:none;stroke:#407BFF;stroke-width:0.5;stroke-linecap:round;stroke-linejoin:round;stroke-miterlimit:10;" d="
					M92.958,399.824c1.106,0.17,2.207,0.381,3.298,0.631"/>
				<path style="fill:none;stroke:#407BFF;stroke-width:0.5;stroke-linecap:round;stroke-linejoin:round;stroke-miterlimit:10;" d="
					M91.976,406.242c0.919,0.862,2.384,1.08,3.514,0.523"/>
				<path style="fill:none;stroke:#407BFF;stroke-width:0.5;stroke-linecap:round;stroke-linejoin:round;stroke-miterlimit:10;" d="
					M93.418,413.926c0.811-0.412,1.647-0.775,2.502-1.086"/>
				<path style="fill:none;stroke:#407BFF;stroke-width:0.5;stroke-linecap:round;stroke-linejoin:round;stroke-miterlimit:10;" d="
					M94.759,420.554c0.76-0.541,1.521-1.081,2.281-1.622"/>
				<path style="fill:none;stroke:#407BFF;stroke-width:0.5;stroke-linecap:round;stroke-linejoin:round;stroke-miterlimit:10;" d="
					M116.095,418.566c-1.399-0.118-2.781-0.438-4.09-0.945"/>
				<path style="fill:none;stroke:#407BFF;stroke-width:0.5;stroke-linecap:round;stroke-linejoin:round;stroke-miterlimit:10;" d="
					M116.933,415.094c-0.758-0.204-1.509-0.433-2.251-0.688"/>
				<path style="fill:none;stroke:#407BFF;stroke-width:0.5;stroke-linecap:round;stroke-linejoin:round;stroke-miterlimit:10;" d="
					M118.98,409.399c-1.168-0.024-2.336-0.047-3.504-0.071"/>
				<path style="fill:none;stroke:#407BFF;stroke-width:0.5;stroke-linecap:round;stroke-linejoin:round;stroke-miterlimit:10;" d="
					M119.908,404.932c-0.971-0.131-1.928-0.365-2.85-0.696"/>
				<path style="fill:none;stroke:#407BFF;stroke-width:0.5;stroke-linecap:round;stroke-linejoin:round;stroke-miterlimit:10;" d="
					M117.222,387.874c0.682,0.809,1.256,1.71,1.701,2.67"/>
				<path style="fill:none;stroke:#407BFF;stroke-width:0.5;stroke-linecap:round;stroke-linejoin:round;stroke-miterlimit:10;" d="
					M122.67,386.277c0.27,0.816,0.539,1.633,0.809,2.449"/>
				<path style="fill:none;stroke:#407BFF;stroke-width:0.5;stroke-linecap:round;stroke-linejoin:round;stroke-miterlimit:10;" d="
					M130.621,386.426c-0.589,0.997-1.087,2.048-1.484,3.136"/>
				<path style="fill:none;stroke:#407BFF;stroke-width:0.5;stroke-linecap:round;stroke-linejoin:round;stroke-miterlimit:10;" d="
					M133.012,392.053c-0.541,0.793-1.458,1.316-2.416,1.38"/>
				<path style="fill:none;stroke:#407BFF;stroke-width:0.5;stroke-linecap:round;stroke-linejoin:round;stroke-miterlimit:10;" d="
					M131.833,402.074c-1.359-0.344-2.616-1.078-3.583-2.094"/>
				<path style="fill:none;stroke:#407BFF;stroke-width:0.5;stroke-linecap:round;stroke-linejoin:round;stroke-miterlimit:10;" d="
					M124.099,404.418c-0.173-0.953-0.297-1.914-0.373-2.879"/>
				<path style="fill:none;stroke:#407BFF;stroke-width:0.5;stroke-linecap:round;stroke-linejoin:round;stroke-miterlimit:10;" d="
					M122.242,395.16c0.054,0.58,0.046,1.165-0.025,1.743"/>
				<path style="fill:none;stroke:#407BFF;stroke-width:0.5;stroke-linecap:round;stroke-linejoin:round;stroke-miterlimit:10;" d="
					M126.939,392.949c0.21,0.891-0.019,1.875-0.6,2.582"/>
				<path style="fill:none;stroke:#407BFF;stroke-width:0.5;stroke-linecap:round;stroke-linejoin:round;stroke-miterlimit:10;" d="
					M117.73,396.354c-0.735-0.141-1.482-0.221-2.23-0.238"/>
				<path style="fill:none;stroke:#407BFF;stroke-width:0.5;stroke-linecap:round;stroke-linejoin:round;stroke-miterlimit:10;" d="
					M111.462,401.323c0.106-0.741,0.15-1.491,0.132-2.239"/>
				<path style="fill:none;stroke:#407BFF;stroke-width:0.5;stroke-linecap:round;stroke-linejoin:round;stroke-miterlimit:10;" d="
					M106.124,392.142c0.697,0.673,1.311,1.432,1.824,2.254"/>
				<path style="fill:none;stroke:#407BFF;stroke-width:0.5;stroke-linecap:round;stroke-linejoin:round;stroke-miterlimit:10;" d="
					M108.976,397.652c-0.662,0.9-1.691,1.521-2.796,1.687"/>
				<path style="fill:none;stroke:#407BFF;stroke-width:0.5;stroke-linecap:round;stroke-linejoin:round;stroke-miterlimit:10;" d="
					M105.749,403.299c0.337,0.724,0.765,1.405,1.272,2.022"/>
				<path style="fill:none;stroke:#407BFF;stroke-width:0.5;stroke-linecap:round;stroke-linejoin:round;stroke-miterlimit:10;" d="
					M108.842,410.323c-1.382,0.604-2.947,1.216-4.353,0.669"/>
				<path style="fill:none;stroke:#407BFF;stroke-width:0.5;stroke-linecap:round;stroke-linejoin:round;stroke-miterlimit:10;" d="
					M104.938,415.812c0.293-0.379,0.63-0.724,1.002-1.026"/>
				<path style="fill:none;stroke:#407BFF;stroke-width:0.5;stroke-linecap:round;stroke-linejoin:round;stroke-miterlimit:10;" d="
					M110.525,414.565c0.293-0.379,0.63-0.724,1.002-1.026"/>
				<path style="fill:none;stroke:#407BFF;stroke-width:0.5;stroke-linecap:round;stroke-linejoin:round;stroke-miterlimit:10;" d="
					M104.56,420.615c0.425-0.722,0.943-1.389,1.537-1.981"/>
				<path style="fill:none;stroke:#407BFF;stroke-width:0.5;stroke-linecap:round;stroke-linejoin:round;stroke-miterlimit:10;" d="
					M98.324,396.195c0.713,0.538,1.364,1.157,1.937,1.842"/>
				<path style="fill:none;stroke:#407BFF;stroke-width:0.5;stroke-linecap:round;stroke-linejoin:round;stroke-miterlimit:10;" d="
					M97.95,404.762c0.401,0.039,0.803,0.077,1.204,0.115"/>
				<path style="fill:none;stroke:#407BFF;stroke-width:0.5;stroke-linecap:round;stroke-linejoin:round;stroke-miterlimit:10;" d="
					M97.989,410.293c0.508,0.092,1.017,0.184,1.525,0.276"/>
				<path style="fill:none;stroke:#407BFF;stroke-width:0.5;stroke-linecap:round;stroke-linejoin:round;stroke-miterlimit:10;" d="
					M113.037,406.027c-0.342,0.388-0.683,0.775-1.025,1.162"/>
				<path style="fill:none;stroke:#407BFF;stroke-width:0.5;stroke-linecap:round;stroke-linejoin:round;stroke-miterlimit:10;" d="
					M98.797,416.478c0.639-0.188,1.277-0.376,1.916-0.564"/>
			</g>
		</g>
		<g>
			<g>
				<polygon style="fill:#263238;" points="121.437,421.833 88.259,421.833 92.988,446.332 116.628,446.332 				"/>
			</g>
			<rect x="86.359" y="421.833" style="fill:#263238;" width="36.509" height="5.889"/>
			<polygon points="89.396,427.723 90.068,431.204 119.939,429.463 120.281,427.723 			"/>
		</g>
	</g>
</g>
<g id="Character">
	<g>
		<g>
			<path style="fill:#263238;" d="M427.609,324.417c0,0-2.395,48.018-12.736,56.285h11.06c0,0,9.863-16.359,10.599-56.285H427.609z"
				/>
			<path style="opacity:0.6;fill:#FFFFFF;enable-background:new    ;" d="M427.609,324.417c0,0-2.395,48.018-12.736,56.285h11.06
				c0,0,9.863-16.359,10.599-56.285H427.609z"/>
			<path style="fill:#407BFF;" d="M383.015,376.723h48.375c2.481,0,4.493,2.012,4.493,4.493v3.465h-57.36v-3.465
				C378.522,378.735,380.534,376.723,383.015,376.723z"/>
			<path style="opacity:0.3;enable-background:new    ;" d="M383.015,376.723h48.375c2.481,0,4.493,2.012,4.493,4.493v3.465h-57.36
				v-3.465C378.522,378.735,380.534,376.723,383.015,376.723z"/>
			<path style="fill:#263238;" d="M433.888,431.625l-22.112-1.928v-29.04h-7.774v29.033l-22.191,1.935
				c-1.955,0.192-3.445,1.836-3.445,3.801v2.945h28.763h1.441h28.764v-2.945C437.334,433.462,435.843,431.818,433.888,431.625z"/>
			<path style="fill:#263238;" d="M385.523,442.025c0,2.807-2.275,5.082-5.082,5.082c-2.807,0-5.082-2.276-5.082-5.082
				c0-2.807,2.276-5.082,5.082-5.082C383.248,436.942,385.523,439.218,385.523,442.025z"/>
			<path style="fill:#263238;" d="M430.175,442.025c0,2.807,2.275,5.082,5.082,5.082c2.807,0,5.083-2.276,5.083-5.082
				c0-2.807-2.276-5.082-5.083-5.082C432.451,436.942,430.175,439.218,430.175,442.025z"/>
			<path style="fill:#263238;" d="M409.401,406.582h-3.023c-2.051,0-3.714-1.663-3.714-3.714v-21.004h10.451v21.004
				C413.115,404.919,411.452,406.582,409.401,406.582z"/>
			<path style="opacity:0.6;fill:#FFFFFF;enable-background:new    ;" d="M409.401,406.582h-3.023c-2.051,0-3.714-1.663-3.714-3.714
				v-21.004h10.451v21.004C413.115,404.919,411.452,406.582,409.401,406.582z"/>
			<g>
				<path style="fill:#263238;" d="M378.147,380.702h58.111c0.998,0,1.807,0.809,1.807,1.807v0.364c0,0.998-0.809,1.807-1.807,1.807
					h-58.111c-0.998,0-1.807-0.809-1.807-1.807v-0.364C376.339,381.511,377.149,380.702,378.147,380.702z"/>
				<path style="opacity:0.6;fill:#FFFFFF;enable-background:new    ;" d="M378.147,380.702h58.111c0.998,0,1.807,0.809,1.807,1.807
					v0.364c0,0.998-0.809,1.807-1.807,1.807h-58.111c-0.998,0-1.807-0.809-1.807-1.807v-0.364
					C376.339,381.511,377.149,380.702,378.147,380.702z"/>
			</g>
			<path style="fill:#407BFF;" d="M441.683,334.93l-17.718,0c-5.19,0-8.939-4.664-8.373-10.417l0.756-7.68
				c0.566-5.753,5.233-10.417,10.423-10.417h17.718c5.19,0,8.939,4.664,8.373,10.417l-0.756,7.68
				C451.54,330.266,446.873,334.93,441.683,334.93z"/>
			<path style="opacity:0.3;enable-background:new    ;" d="M441.683,334.93l-17.718,0c-5.19,0-8.939-4.664-8.373-10.417l0.756-7.68
				c0.566-5.753,5.233-10.417,10.423-10.417h17.718c5.19,0,8.939,4.664,8.373,10.417l-0.756,7.68
				C451.54,330.266,446.873,334.93,441.683,334.93z"/>
			<polygon style="opacity:0.2;enable-background:new    ;" points="437.906,306.417 432.204,334.93 426.82,334.93 431.125,306.417 
							"/>
			<polygon style="opacity:0.2;enable-background:new    ;" points="436.106,334.93 435.86,338.366 426.484,338.366 426.82,334.93 
							"/>
		</g>
		<g>
			<g>
				<g>
					<g>
						<g>
							<g>
								<polygon style="fill:#E9B376;" points="345.351,423.128 339.548,442.025 330.943,441.279 334.263,420.048 								"/>
							</g>
						</g>
					</g>
				</g>
				<g>
					<g>
						<g>
							<g>
								<g>
									<g>
										<path style="fill:#263238;" d="M338.054,439.475c-1.144,1.061-2.621,1.103-3.741,0.228l-0.234-1.59
											c-0.203-1.368-1.013-2.24-2.485-2.053c-0.721,0.091-1.708,0.89-2.305,2.198c-1.07,2.346-2.736,3.362-2.736,3.362
											s-6.568,3.266-8.925,3.988c-1.406,0.431-3.286,1.081-4.294,2.586c-0.288,0.43-0.548,0.94-0.773,1.542
											c-0.185,0.494-0.181,1.61-0.181,1.635l16.646-0.008c0,0,1.698-0.99,2.419-0.965c1.284,0.046,1.859,1.164,1.859,1.164
											l6.053,0.042c0,0,0.116-0.934,0.283-2.293l0.002-0.001c0.075-0.612,0.16-1.311,0.252-2.048
											c0.39-3.165,1.003-7.154,1.106-8.05C341.179,437.642,338.054,439.475,338.054,439.475z"/>
										<g>
											<g>
												<g>
													<g>
														<path style="fill:#407BFF;" d="M323.013,443.228c0.075-0.067,0.19-0.074,0.276-0.02
															c0.397,0.249,0.728,0.599,0.952,1.036c0.118,0.231-0.244,0.45-0.363,0.217c-0.199-0.389-0.489-0.698-0.836-0.916
															c-0.116-0.073-0.134-0.224-0.033-0.314C323.011,443.23,323.012,443.229,323.013,443.228z"/>
													</g>
												</g>
											</g>
										</g>
										<g>
											<g>
												<g>
													<g>
														<path style="fill:#407BFF;" d="M324.297,442.536c0.075-0.067,0.19-0.074,0.277-0.02
															c0.396,0.249,0.728,0.599,0.952,1.036c0.118,0.231-0.244,0.45-0.363,0.217c-0.199-0.389-0.489-0.698-0.836-0.916
															c-0.116-0.073-0.134-0.224-0.033-0.314C324.295,442.538,324.296,442.537,324.297,442.536z"/>
													</g>
												</g>
											</g>
										</g>
										<g>
											<g>
												<g>
													<g>
														<path style="fill:#407BFF;" d="M325.621,441.891c0.075-0.067,0.19-0.074,0.277-0.02
															c0.396,0.249,0.728,0.599,0.952,1.036c0.118,0.231-0.244,0.45-0.363,0.217c-0.199-0.389-0.489-0.698-0.836-0.916
															c-0.116-0.073-0.134-0.224-0.033-0.314C325.619,441.893,325.62,441.892,325.621,441.891z"/>
													</g>
												</g>
											</g>
										</g>
									</g>
								</g>
							</g>
						</g>
					</g>
				</g>
				<path style="opacity:0.2;fill:#FFFFFF;enable-background:new    ;" d="M312.893,449.019c-0.117,0.239-0.23,0.491-0.333,0.767
					c-0.185,0.494-0.181,1.61-0.181,1.635l16.646-0.008c0,0,1.698-0.99,2.419-0.965c1.284,0.046,1.859,1.164,1.859,1.164
					l6.053,0.042c0,0,0.116-0.934,0.283-2.293l0.002-0.001c0.013-0.107,0.028-0.229,0.042-0.341H312.893z"/>
				<path style="fill:none;stroke:#407BFF;stroke-width:0.25;stroke-miterlimit:10;" d="M325.776,442.084
					c0.05-0.577,0.1-1.158,0.049-1.736c-0.052-0.577-0.211-1.156-0.546-1.629c-0.156-0.22-0.385-0.43-0.654-0.413
					c-0.283,0.018-0.49,0.28-0.588,0.546c-0.189,0.511-0.109,1.095,0.131,1.585C324.406,440.926,325.353,441.74,325.776,442.084"/>
				<path style="fill:none;stroke:#407BFF;stroke-width:0.25;stroke-miterlimit:10;" d="M325.846,442.084
					c0.227-0.533,0.456-1.069,0.773-1.555c0.317-0.485,0.73-0.921,1.249-1.181c0.241-0.121,0.542-0.198,0.771-0.057
					c0.241,0.148,0.301,0.478,0.262,0.759c-0.074,0.54-0.419,1.018-0.861,1.337C327.599,441.707,326.381,441.98,325.846,442.084"/>
			</g>
			<g>
				<g>
					<g>
						<g>
							<g>
								<polygon style="fill:#E9B376;" points="313.514,420.422 302.172,436.612 294.215,433.252 303.913,414.077 								"/>
							</g>
						</g>
					</g>
				</g>
				<g>
					<g>
						<g>
							<g>
								<g>
									<g>
										<g>
											<g>
												<g>
													<g>
														<g>
															<g>
																<path style="fill:#263238;" d="M299.039,445.667l-5.746-1.905c0,0-0.203-1.241-1.41-1.68
																	c-0.678-0.247-2.599,0.173-2.599,0.173l-15.84-5.12c0.008-0.023,0.348-1.087,0.675-1.5
																	c0.4-0.503,0.804-0.908,1.21-1.228c1.423-1.122,3.411-1.161,4.882-1.138c2.465,0.039,9.72-1.045,9.72-1.045
																	s1.898-0.454,3.639-2.356c0.971-1.061,2.156-1.517,2.871-1.382c1.458,0.275,1.96,1.354,1.732,2.719l-0.267,1.584
																	c0.796,1.178,2.214,1.593,3.629,0.936c0,0,3.538-0.782,2.883,0.656c-0.374,0.821-2.186,4.427-3.532,7.318
																	c-0.314,0.674-0.61,1.312-0.87,1.871l-0.002,0C299.438,444.814,299.039,445.667,299.039,445.667z"/>
															</g>
														</g>
													</g>
												</g>
											</g>
										</g>
										<g>
											<g>
												<g>
													<g>
														<path style="fill:#407BFF;" d="M286.07,432.664c0.092-0.041,0.204-0.012,0.269,0.067
															c0.301,0.359,0.508,0.794,0.587,1.279c0.041,0.256-0.371,0.353-0.413,0.094c-0.07-0.431-0.25-0.815-0.513-1.129
															c-0.088-0.105-0.058-0.254,0.065-0.309C286.068,432.665,286.069,432.664,286.07,432.664z"/>
													</g>
												</g>
											</g>
										</g>
										<g>
											<g>
												<g>
													<g>
														<path style="fill:#407BFF;" d="M287.505,432.401c0.092-0.041,0.204-0.012,0.269,0.066
															c0.3,0.359,0.508,0.794,0.587,1.279c0.041,0.256-0.371,0.353-0.413,0.095c-0.07-0.431-0.25-0.815-0.513-1.129
															c-0.088-0.105-0.058-0.254,0.065-0.309C287.503,432.403,287.504,432.402,287.505,432.401z"/>
													</g>
												</g>
											</g>
										</g>
										<g>
											<g>
												<g>
													<g>
														<path style="fill:#407BFF;" d="M288.964,432.196c0.092-0.041,0.204-0.012,0.269,0.067
															c0.301,0.359,0.508,0.794,0.587,1.279c0.041,0.256-0.371,0.353-0.413,0.094c-0.07-0.431-0.25-0.815-0.513-1.129
															c-0.088-0.105-0.058-0.254,0.065-0.309C288.961,432.197,288.962,432.196,288.964,432.196z"/>
													</g>
												</g>
											</g>
										</g>
									</g>
								</g>
							</g>
						</g>
					</g>
				</g>
				<path style="opacity:0.2;fill:#FFFFFF;enable-background:new    ;" d="M274.674,435.009c-0.185,0.191-0.37,0.396-0.554,0.627
					c-0.328,0.413-0.668,1.476-0.675,1.5l15.84,5.12c0,0,1.921-0.419,2.599-0.173c1.207,0.439,1.41,1.68,1.41,1.68l5.746,1.905
					c0,0,0.398-0.853,0.976-2.095l0.002,0c0.045-0.098,0.097-0.21,0.145-0.312L274.674,435.009z"/>
				<path style="fill:none;stroke:#407BFF;stroke-width:0.25;stroke-miterlimit:10;" d="M289.051,432.427
					c0.226-0.534,0.452-1.071,0.581-1.636c0.129-0.565,0.156-1.165-0.018-1.718c-0.08-0.257-0.234-0.527-0.495-0.594
					c-0.274-0.07-0.553,0.116-0.728,0.339c-0.337,0.428-0.441,1.009-0.364,1.548C288.105,430.903,288.754,431.969,289.051,432.427"
					/>
				<path style="fill:none;stroke:#407BFF;stroke-width:0.25;stroke-miterlimit:10;" d="M289.118,432.448
					c0.38-0.437,0.763-0.877,1.215-1.241c0.451-0.364,0.978-0.652,1.552-0.739c0.266-0.041,0.576-0.022,0.751,0.184
					c0.184,0.216,0.139,0.547,0.016,0.802c-0.237,0.491-0.712,0.839-1.231,1.007C290.902,432.629,289.659,432.514,289.118,432.448"
					/>
			</g>
			<g id="_x3C_Group_x3E__00000035505613907293587140000010680175900491586202_">
				<path style="fill:#263238;" d="M383.931,350.768c0,0-49.754,8.041-57.615,14.641c-8.539,7.168-34.143,58.981-34.143,58.981
					l16.374,7.177c0,0,22.867-41.37,26.907-44.172c4.04-2.802,54.966-14.44,54.966-14.44L383.931,350.768z"/>
				<path style="opacity:0.4;enable-background:new    ;" d="M383.714,351.588l-2.829,4.423l-29.793,1.33
					c6.874-1.795,17.932-3.865,30.348-6.212L383.714,351.588z"/>
				<path style="opacity:0.4;enable-background:new    ;" d="M336.357,361.29c0,0-1.512,3.418-2.498,8.123
					c-0.629,3-4.74,26.729-4.532,26.411c0.207-0.318,8.504-10.275,8.504-10.275l4.841-26.19L336.357,361.29z"/>
				<path style="fill:#263238;" d="M323.631,431.32l8.764-40.15l5.57-25.519c0.957-4.382,4.665-7.625,9.136-7.987l34.093-1.448
					l3.713-10.592l40.795,5.568c0,0-0.579,17.843-5.562,24.387c-3.9,5.122-58.294,5.785-62.33,7.111l-14.237,50.629L323.631,431.32z
					"/>
			</g>
			<g>
				<g>
					<path style="fill:#E9B376;" d="M377.831,279.918c-2.529-1.228-5.07-2.411-7.49-3.766c6.136-3.93,15.77-8.498,21.192-11.557
						l-2.028-5.266c-5.246,1.4-10.366,3.009-15.46,4.937c-3.922,1.507-7.812,3.067-11.546,5.244c-2.05,1.256-4.145,2.656-5.045,5.23
						c-1.33,4.059,1.597,6.503,4.455,8.631c7.982,5.744,16.785,9.759,25.831,13.424l4.263-10.566
						C387.305,284.206,382.473,282.08,377.831,279.918z"/>
					<path style="fill:#E9B376;" d="M387.391,261.594l1.48-6.362c0.163-0.702,0.575-1.322,1.16-1.744l7.278-5.26
						c0,0,0.676,0.91,0,1.885l1.802-0.715c0,0,0.601,1.17-0.601,2.08c-1.201,0.91-3.078,2.99-3.078,2.99l4.129-1.95
						c0,0,1.051,0.39,0,1.69c-1.051,1.3-4.355,3.055-4.355,3.055s-0.56,6.722-1.762,7.892c-1.201,1.17-5.267,0.816-5.267,0.816
						L387.391,261.594z"/>
				</g>
				<polygon style="opacity:0.2;enable-background:new    ;" points="373.439,277.673 368.409,287.588 369.662,288.32 
					374.396,278.236 				"/>
			</g>
			<path style="fill:#E9B376;" d="M459.366,278.07c-0.33-4.328-4.421-6.076-7.496-7.847c-6.913-3.566-14.009-6.267-21.368-8.63
				c0,0-2.344,5.133-2.344,5.133c4.393,2.832,11.855,7.129,17.348,10.798c-6.76,3.434-15.094,6.895-21.112,9.675l4.423,10.5
				c7.144-2.932,14.014-6.181,20.738-9.997c2.277-1.304,4.511-2.654,6.863-4.409c0.141-0.103,0.526-0.398,0.661-0.496
				C458.517,281.84,459.516,279.699,459.366,278.07z"/>
			<polygon style="opacity:0.2;enable-background:new    ;" points="445.514,277.526 449.908,276.387 444.213,276.671 			"/>
			<g>
				<g>
					<path style="fill:#407BFF;" d="M380.154,350.009l4.597-28.534l3.982-36.646l14.114-0.133l10.863-0.269l11.674,0.617
						l6.821,18.535c0,0-3.858,25.913-3.975,27.259c-0.143,1.65-1.885,29.948-1.885,29.948
						C407.03,362.056,379.63,351.409,380.154,350.009z"/>
				</g>
				<g>
					<path style="fill:#407BFF;" d="M386.638,304.101c-3.428-1.912-12.23-8.142-15.735-10.097c-3.223-1.797-3.223-1.797-3.223-1.797
						l7.263-15.473c0,0,8.692,3.467,16.777,7.305c0,0,0.66-0.329,1.067-0.305c0.407,0.024,1.821,2.229,1.821,2.229L386.638,304.101z
						"/>
				</g>
				<path style="opacity:0.2;enable-background:new    ;" d="M432.204,303.58l-5.598-6.396c0,0-0.695,6.754,5.03,10.221
					L432.204,303.58z"/>
				<g>
					<path style="fill:#407BFF;" d="M432.204,303.58l17.792-9.15l-7.899-15.417c0.155-0.07-8.32,2.073-16.714,6.031
						C419.907,287.627,424.932,301.261,432.204,303.58z"/>
				</g>
				
					<path style="opacity:0.2;fill:none;stroke:#000000;stroke-width:0.5;stroke-linecap:round;stroke-linejoin:round;stroke-miterlimit:10;" d="
					M394.327,330.839c5.018,7.712,12.569,13.746,21.198,16.939"/>
				<polygon style="opacity:0.2;enable-background:new    ;" points="386.638,304.101 387.494,291.296 383.947,302.468 				"/>
			</g>
			<g>
				<g>
					<path style="fill:#E9B376;" d="M415.672,284.408c0,0-0.729-5.23,2.333-14.296c0-0.01-0.474-0.245-0.474-0.255
						c0.423-1.268,0.865-2.438,1.278-3.45c0.01-0.029,0.01-0.039,0.01-0.039l-12.897,7.216c0.167,2.949-1.134,8.577-1.867,10.946
						c0,0-2.73,5.209,3.034,5.65C411.299,290.501,415.672,284.408,415.672,284.408z"/>
					<path style="opacity:0.2;" d="M405.525,277.702l7.299-1.315c-0.754,2.219-2.859,4.797-7.899,4.796
						C404.926,281.183,405.537,278.689,405.525,277.702z"/>
				</g>
				<g>
					<path style="fill:#263238;" d="M398.184,251.504c-1.605,2.841-2.407,9.209,2.279,8.078
						C405.148,258.452,400.942,246.62,398.184,251.504z"/>
					<path style="fill:#E9B376;" d="M419.181,260.27c-1.194,7.926-1.707,12.42-6.098,16.117c-6.605,5.561-15.913,1.151-17.114-6.995
						c-1.081-7.333,1.052-19.062,9.142-21.468C413.081,245.553,420.374,252.344,419.181,260.27z"/>
					<path style="fill:#263238;" d="M421.67,249.869c-0.706-4.488-6.173-7.411-9.446-5.439c-0.489,0.295,2.878,1.795,2.496,1.616
						l-0.329,6.494c0.482-0.063,1.362,0.571,1.713,2.083c0,0-1.916,8.334,1.233,12.177
						C426.308,263.584,427.419,252.239,421.67,249.869z"/>
					<path style="fill:#E9B376;" d="M421.741,267.191c-0.818,1.996-2.485,3.418-4.135,4.063c-2.482,0.971-4.013-1.195-3.566-3.686
						c0.402-2.242,2.179-5.449,4.787-5.355C421.397,262.305,422.677,264.909,421.741,267.191z"/>
					<path style="fill:#263238;" d="M407.571,261.563c-0.072,0.815-0.563,1.434-1.096,1.382c-0.533-0.052-0.907-0.756-0.835-1.572
						c0.072-0.816,0.563-1.434,1.096-1.382C407.269,260.044,407.643,260.747,407.571,261.563z"/>
					<path style="fill:#263238;" d="M399.559,261.016c-0.072,0.815-0.563,1.434-1.096,1.382c-0.533-0.052-0.907-0.756-0.836-1.572
						c0.072-0.816,0.563-1.434,1.096-1.382C399.257,259.496,399.631,260.2,399.559,261.016z"/>
					<path style="fill:#D58745;" d="M402.201,260.793c0,0-2.939,3.824-3.913,5.401c1.044,1.126,3.042,0.826,3.042,0.826
						L402.201,260.793z"/>
					<path style="fill:#263238;" d="M406.705,256.748c0.133-0.009,0.268,0.052,0.348,0.173c0.951,1.429,2.362,1.442,2.376,1.442
						c0.211,0,0.385,0.171,0.388,0.382c0.002,0.211-0.168,0.383-0.378,0.384c-0.075,0-1.843-0.016-3.023-1.789
						c-0.118-0.177-0.071-0.414,0.105-0.53C406.578,256.772,406.641,256.752,406.705,256.748z"/>
					<path style="fill:#263238;" d="M399.417,255.502c0.072,0.008,0.143,0.037,0.204,0.087c0.163,0.136,0.187,0.378,0.053,0.541
						c-1.345,1.63-3.095,1.427-3.174,1.428c-0.21-0.026-0.361-0.217-0.338-0.427c0.023-0.21,0.21-0.359,0.419-0.336
						c0.073,0.011,1.423,0.151,2.502-1.158C399.167,255.534,399.294,255.488,399.417,255.502z"/>
				</g>
				<path style="fill:#263238;" d="M392.676,247.586c0.386-2.041,2.591-3.648,4.596-3.11c-0.647-1.33-0.066-3.122,1.238-3.819
					c1.304-0.697,3.117-0.186,3.864,1.09c0.074-1.239,1.4-2.152,2.637-2.055c1.238,0.097,2.302,0.988,2.93,2.059
					c0.385,0.657,0.663,1.419,1.28,1.866c0.965,0.7,2.291,0.339,3.48,0.249c1.998-0.152,4.047,0.608,5.463,2.026
					c1.416,1.417,2.174,3.467,2.02,5.465c1.104,0.3,1.652,1.19,2.369,2.082l-6.11,0.977c-1.713-3.199-6.336-0.724-8.65,0.155
					c-1.663,0.632-3.304,0.679-4.568,0.632c-1.263-0.047-1.837-0.973-1.853-2.237c-1.937,0.749-4.21,0.797-6.032-0.199
					C393.519,251.771,392.29,249.626,392.676,247.586z"/>
				<path style="fill:none;stroke:#263238;stroke-width:0.5;stroke-linecap:round;stroke-linejoin:round;stroke-miterlimit:10;" d="
					M421.306,250.042c1.245-0.852,2.682-1.367,3.797-1.387"/>
				<path style="fill:none;stroke:#263238;stroke-width:0.5;stroke-linecap:round;stroke-linejoin:round;stroke-miterlimit:10;" d="
					M421.457,249.956c0.872-1.296,1.243-2.92,1.02-4.467"/>
				<path style="fill:#263238;" d="M402.072,272.151c-0.297-0.952-0.261-2.034,0.35-2.822c0.611-0.788,1.627-1.224,2.624-1.196
					c0.997,0.028,1.961,0.498,2.651,1.217c0.344,0.358,0.637,0.817,0.614,1.313c-0.027,0.571-0.478,1.052-1.001,1.283
					c-0.522,0.231-1.109,0.259-1.68,0.278c-0.571,0.018-1.155,0.033-1.688,0.24c-0.255,0.099-0.501,0.243-0.774,0.259
					C403.169,272.723,402.271,272.789,402.072,272.151z"/>
				<path style="fill:#FFFFFF;" d="M406.872,268.689c-0.239,0.052-3.971,0.853-4.15,0.788c-0.154-0.056-0.129-0.294-0.117-0.374
					c0.099-0.106,0.194-0.214,0.307-0.304c0.029-0.023,0.064-0.048,0.096-0.072c0.582-0.427,1.312-0.658,2.037-0.638
					C405.698,268.107,406.315,268.345,406.872,268.689z"/>
				<path style="fill:#DE5753;" d="M404.303,271.231c1.399-0.665,3.862-0.127,3.889-0.121c-0.17,0.368-0.505,0.668-0.883,0.835
					c-0.522,0.231-1.109,0.259-1.68,0.278c-0.571,0.018-1.155,0.033-1.688,0.24c-0.255,0.099-0.501,0.243-0.774,0.26
					c0,0-0.216,0.015-0.459-0.044C402.888,272.331,403.325,271.696,404.303,271.231z"/>
				
					<path style="opacity:0.2;fill:none;stroke:#000000;stroke-width:0.5;stroke-linecap:round;stroke-linejoin:round;stroke-miterlimit:10;" d="
					M420.116,264.827c-0.279-0.504-0.918-0.737-1.488-0.649c-0.569,0.088-1.067,0.445-1.448,0.878
					c-0.457,0.519-0.776,1.159-0.914,1.837"/>
			</g>
			<path style="fill:#E9B376;" d="M430.827,262.311l-2.426-8.068c-0.141-0.468-0.439-0.876-0.847-1.158l-6.645-4.604
				c0,0-0.676,0.942,0,1.951l-1.802-0.74c0,0-0.601,1.211,0.601,2.152c1.201,0.942,3.078,3.094,3.078,3.094l-4.129-2.018
				c0,0-1.051,0.404,0,1.749c1.051,1.345,4.355,3.161,4.355,3.161s0.748,6.285,1.949,7.496c1.201,1.211,5.08,1.514,5.08,1.514
				L430.827,262.311z"/>
		</g>
	</g>
</g>
<g id="Table">
	<g>
		<g>
			<g>
				<path style="fill:#263238;enable-background:new    ;" d="M357.379,320.733c0.167,2.098-1.167,3.801-2.983,3.801h-57.543
					c-1.825,0-3.437-1.704-3.604-3.801l-3.418-42.348c-0.037-0.437-0.009-0.852,0.074-1.235c0.324-1.491,1.464-2.566,2.909-2.566
					h57.543c1.825,0,3.437,1.704,3.604,3.802L357.379,320.733z"/>
				<path style="opacity:0.7;fill:#FFFFFF;" d="M357.379,320.733c0.167,2.098-1.167,3.801-2.983,3.801h-57.543
					c-1.825,0-3.437-1.704-3.604-3.801l-3.418-42.348c-0.037-0.437-0.009-0.852,0.074-1.235c0.324-1.491,1.464-2.566,2.909-2.566
					h57.543c1.825,0,3.437,1.704,3.604,3.802L357.379,320.733z"/>
				<path style="fill:#263238;enable-background:new    ;" d="M354.193,324.534h-57.34c-1.825,0-3.437-1.704-3.604-3.801
					l-3.418-42.348c-0.037-0.437-0.009-0.852,0.074-1.235h57.34c1.815,0,3.427,1.704,3.603,3.801l3.418,42.348
					C354.304,323.736,354.276,324.151,354.193,324.534z"/>
				<path style="opacity:0.5;fill:#FFFFFF;enable-background:new    ;" d="M354.193,324.534h-57.34
					c-1.825,0-3.437-1.704-3.604-3.801l-3.418-42.348c-0.037-0.437-0.009-0.852,0.074-1.235h57.34c1.815,0,3.427,1.704,3.603,3.801
					l3.418,42.348C354.304,323.736,354.276,324.151,354.193,324.534z"/>
				<polygon style="fill:#263238;enable-background:new    ;" points="315.606,314.659 327.174,314.71 324.935,335.546 
					336.298,335.723 336.298,338.177 305.694,338.25 305.694,335.829 313.07,335.688 				"/>
			</g>
			<path style="opacity:0.3;" d="M327.174,314.71c-0.033,0.311,2.561,9.824,2.561,9.824h-3.617L327.174,314.71z"/>
			<polygon style="opacity:0.3;" points="314.415,324.534 315.606,314.659 312.617,324.534 			"/>
		</g>
		<g>
			<g>
				<rect x="282.952" y="339.309" style="fill:#263238;enable-background:new    ;" width="3.977" height="109.372"/>
				<rect x="282.952" y="339.309" style="opacity:0.3;fill:#FFFFFF;enable-background:new    ;" width="3.977" height="109.372"/>
			</g>
			<g>
				<rect x="254.369" y="339.309" style="fill:#263238;enable-background:new    ;" width="3.977" height="109.372"/>
				<rect x="254.369" y="339.309" style="opacity:0.3;fill:#FFFFFF;enable-background:new    ;" width="3.977" height="109.372"/>
				<polygon style="opacity:0.2;" points="254.369,346.225 254.369,353.284 258.345,351.51 258.345,345.625 				"/>
				<polygon style="opacity:0.2;" points="282.952,346.225 282.952,353.284 286.929,351.51 286.929,345.625 				"/>
			</g>
			<g>
				<rect x="367.68" y="339.309" style="fill:#263238;enable-background:new    ;" width="3.977" height="109.372"/>
				<rect x="367.68" y="339.309" style="opacity:0.3;fill:#FFFFFF;enable-background:new    ;" width="3.977" height="109.372"/>
				<polygon style="opacity:0.2;" points="367.68,346.225 367.68,353.284 371.656,351.51 371.656,345.625 				"/>
			</g>
			<g>
				<rect x="404.187" y="339.309" style="fill:#263238;enable-background:new    ;" width="3.977" height="109.372"/>
				<rect x="404.187" y="339.309" style="opacity:0.3;fill:#FFFFFF;enable-background:new    ;" width="3.977" height="109.372"/>
				<polygon style="opacity:0.2;" points="404.187,346.15 404.187,353.208 408.164,351.434 408.164,345.549 				"/>
			</g>
			<g>
				<rect x="249.215" y="338.13" style="fill:#263238;enable-background:new    ;" width="163.899" height="8.096"/>
				<rect x="374.667" y="338.13" style="opacity:0.3;enable-background:new    ;" width="38.448" height="8.096"/>
			</g>
		</g>
		<polygon style="opacity:0.6;fill:#FFFFFF;enable-background:new    ;" points="315.606,314.659 327.174,314.71 324.935,335.546 
			336.298,335.723 336.298,338.177 305.694,338.25 305.694,335.829 313.07,335.688 		"/>
	</g>
</g>
</svg>
