<svg xmlns="http://www.w3.org/2000/svg" width="93" height="93" viewBox="0 0 93 93" fill="none">
<path d="M45.5042 93.0083L51.2777 83.0083H39.7306L45.5042 93.0083ZM46.5042 10L51.2777 0H39.7306L44.5042 10H46.5042ZM46.5042 84.0083L46.5042 9H44.5042L44.5042 84.0083H46.5042Z" fill="#002761"/>
<path d="M10 44.5042L0 39.7307L0 51.2777L10 46.5042V44.5042ZM93.0083 45.5042L83.0083 39.7307V51.2777L93.0083 45.5042ZM9 46.5042H84.0083V44.5042H9V46.5042Z" fill="#002761"/>
<path d="M19.2775 70.9022L8.83109 74.5979L16.9961 82.7629L20.6917 72.3165L19.2775 70.9022ZM78.6804 12.9136L67.5268 15.9022L75.6918 24.0672L78.6804 12.9136ZM19.9846 73.0236L73.0235 19.9847L71.6093 18.5705L18.5704 71.6094L19.9846 73.0236Z" fill="#002761"/>
<path d="M22.1061 19.2776L18.4104 8.83112L10.2454 16.9961L20.6918 20.6918L22.1061 19.2776ZM80.0947 78.6804L77.1061 67.5269L68.9411 75.6918L80.0947 78.6804ZM19.9847 19.9847L73.0236 73.0235L74.4378 71.6093L21.3989 18.5705L19.9847 19.9847Z" fill="#002761"/>
</svg>