<svg width="32" height="32" viewBox="0 0 32 32" fill="none" xmlns="http://www.w3.org/2000/svg">
<circle cx="16" cy="16" r="16" fill="#33B647"/>
<path d="M15.375 19.75H18.5C18.8315 19.75 19.1495 19.6183 19.3839 19.3839C19.6183 19.1495 19.75 18.8315 19.75 18.5V17.875H17.875C17.7092 17.875 17.5503 17.8092 17.4331 17.6919C17.3158 17.5747 17.25 17.4158 17.25 17.25C17.25 17.0842 17.3158 16.9253 17.4331 16.8081C17.5503 16.6908 17.7092 16.625 17.875 16.625H19.75V14.75H17.875C17.7092 14.75 17.5503 14.6842 17.4331 14.5669C17.3158 14.4497 17.25 14.2908 17.25 14.125C17.25 13.9592 17.3158 13.8003 17.4331 13.6831C17.5503 13.5658 17.7092 13.5 17.875 13.5H19.75V11.625H17.875C17.7092 11.625 17.5503 11.5592 17.4331 11.4419C17.3158 11.3247 17.25 11.1658 17.25 11C17.25 10.8342 17.3158 10.6753 17.4331 10.5581C17.5503 10.4408 17.7092 10.375 17.875 10.375H19.75V9.75C19.75 9.41848 19.6183 9.10054 19.3839 8.86612C19.1495 8.6317 18.8315 8.5 18.5 8.5H13.5C13.1685 8.5 12.8505 8.6317 12.6161 8.86612C12.3817 9.10054 12.25 9.41848 12.25 9.75V10.375H14.125C14.2908 10.375 14.4497 10.4408 14.5669 10.5581C14.6842 10.6753 14.75 10.8342 14.75 11C14.75 11.1658 14.6842 11.3247 14.5669 11.4419C14.4497 11.5592 14.2908 11.625 14.125 11.625H12.25V13.5H14.125C14.2908 13.5 14.4497 13.5658 14.5669 13.6831C14.6842 13.8003 14.75 13.9592 14.75 14.125C14.75 14.2908 14.6842 14.4497 14.5669 14.5669C14.4497 14.6842 14.2908 14.75 14.125 14.75H12.25V16.625H14.125C14.2908 16.625 14.4497 16.6908 14.5669 16.8081C14.6842 16.9253 14.75 17.0842 14.75 17.25C14.75 17.4158 14.6842 17.5747 14.5669 17.6919C14.4497 17.8092 14.2908 17.875 14.125 17.875H12.25V18.5C12.25 18.8315 12.3817 19.1495 12.6161 19.3839C12.8505 19.6183 13.1685 19.75 13.5 19.75H15.375ZM16.625 21V23.5H20.375C20.5408 23.5 20.6997 23.5658 20.8169 23.6831C20.9342 23.8003 21 23.9592 21 24.125C21 24.2908 20.9342 24.4497 20.8169 24.5669C20.6997 24.6842 20.5408 24.75 20.375 24.75H11.625C11.4592 24.75 11.3003 24.6842 11.1831 24.5669C11.0658 24.4497 11 24.2908 11 24.125C11 23.9592 11.0658 23.8003 11.1831 23.6831C11.3003 23.5658 11.4592 23.5 11.625 23.5H15.375V21H13.5C12.837 21 12.2011 20.7366 11.7322 20.2678C11.2634 19.7989 11 19.163 11 18.5V9.75C11 9.08696 11.2634 8.45107 11.7322 7.98223C12.2011 7.51339 12.837 7.25 13.5 7.25H18.5C19.163 7.25 19.7989 7.51339 20.2678 7.98223C20.7366 8.45107 21 9.08696 21 9.75V18.5C21 19.163 20.7366 19.7989 20.2678 20.2678C19.7989 20.7366 19.163 21 18.5 21H16.625Z" fill="white"/>
</svg>
