<svg width="32" height="32" viewBox="0 0 32 32" fill="none" xmlns="http://www.w3.org/2000/svg">
<circle cx="16" cy="16" r="16" fill="#FB8C00"/>
<path d="M15.8992 17.0906H15.943C16.8805 17.1156 17.6305 17.8781 17.6305 18.8156C17.6305 19.6156 17.0867 20.2844 16.3492 20.4844V21.1844C16.3492 21.4344 16.1492 21.6344 15.8992 21.6344C15.6492 21.6344 15.4492 21.4344 15.4492 21.1844V20.4844C15.082 20.3856 14.7575 20.1687 14.5259 19.867C14.2943 19.5654 14.1685 19.1959 14.168 18.8156C14.168 18.5656 14.368 18.3656 14.618 18.3656C14.868 18.3656 15.068 18.5656 15.068 18.8156C15.068 19.2781 15.4367 19.6469 15.893 19.6469C16.3492 19.6469 16.7242 19.2719 16.7242 18.8156C16.7242 18.3594 16.3492 17.9844 15.893 17.9844H15.8492C15.3996 17.9722 14.9725 17.7852 14.6585 17.4631C14.3446 17.141 14.1686 16.7092 14.168 16.2594C14.168 15.4594 14.7117 14.7906 15.4492 14.5906V13.8906C15.4492 13.6406 15.6492 13.4406 15.8992 13.4406C16.1492 13.4406 16.3492 13.6406 16.3492 13.8906V14.5906C17.0867 14.7906 17.6305 15.4594 17.6305 16.2594C17.6305 16.5094 17.4305 16.7094 17.1805 16.7094C16.9305 16.7094 16.7305 16.5094 16.7305 16.2594C16.7305 15.8031 16.3555 15.4281 15.8992 15.4281C15.443 15.4281 15.068 15.8031 15.068 16.2594C15.068 16.7156 15.443 17.0906 15.8992 17.0906Z" fill="white"/>
<path d="M12.5825 8.1875L14.3238 10.225L14.1356 10.435C10.5519 11.2387 7.875 14.4394 7.875 18.2656C7.875 21.6294 10.605 24.3594 13.9688 24.3594H17.825C21.1888 24.3594 23.9188 21.63 23.9188 18.2662C23.925 14.4394 21.2481 11.2387 17.6644 10.435C17.6789 10.3029 17.6551 10.1695 17.5956 10.0506L19.0769 8.355L19.1725 8.2075C19.2842 7.96396 19.3127 7.69047 19.2538 7.42911C19.1949 7.16775 19.0517 6.93298 18.8463 6.76092C18.641 6.58886 18.3848 6.48902 18.1171 6.47677C17.8495 6.46452 17.5852 6.54054 17.365 6.69312L16.8381 6.06812C16.7199 5.93586 16.5752 5.82999 16.4134 5.7574C16.2515 5.68482 16.0762 5.64715 15.8988 5.64686C15.7214 5.64656 15.546 5.68365 15.3839 5.75569C15.2218 5.82774 15.0768 5.93313 14.9581 6.065L14.4062 6.68125C14.1866 6.52549 13.9217 6.44645 13.6526 6.45634C13.3835 6.46624 13.1252 6.56453 12.9176 6.736C12.71 6.90748 12.5646 7.14259 12.5041 7.40497C12.4435 7.66734 12.4711 7.94237 12.5825 8.1875ZM14.9569 9.05312L13.8969 7.82812C14.1431 7.94679 14.4218 7.98048 14.6892 7.92394C14.9567 7.8674 15.1978 7.7238 15.375 7.51562L15.875 6.86687L16.43 7.52437C16.603 7.72561 16.8365 7.86555 17.0955 7.92332C17.3546 7.9811 17.6253 7.95363 17.8675 7.845L16.8125 9.05312H14.9569ZM9.125 18.2656C9.125 14.5231 12.1575 11.4906 15.9 11.4906C19.6425 11.4906 22.675 14.5231 22.6687 18.2644V18.2656C22.6683 19.5501 22.1578 20.7819 21.2495 21.6901C20.3412 22.5984 19.1095 23.1089 17.825 23.1094H13.9688C12.6843 23.1089 11.4525 22.5984 10.5443 21.6901C9.63598 20.7819 9.1255 19.5501 9.125 18.2656Z" fill="white"/>
</svg>
