<?xml version="1.0" encoding="utf-8"?>
<!-- Generator: Adobe Illustrator 27.5.0, SVG Export Plug-In . SVG Version: 6.00 Build 0)  -->
<svg version="1.1" xmlns="http://www.w3.org/2000/svg" xmlns:xlink="http://www.w3.org/1999/xlink" x="0px" y="0px"
	 viewBox="0 0 500 500" style="enable-background:new 0 0 500 500;" xml:space="preserve">
<g id="Background_Complete">
	<rect x="416.779" y="398.494" style="fill:#EBEBEB;" width="33.122" height="0.25"/>
	<rect x="322.527" y="401.208" style="fill:#EBEBEB;" width="8.693" height="0.25"/>
	<rect x="396.586" y="389.208" style="fill:#EBEBEB;" width="19.192" height="0.25"/>
	<rect x="52.459" y="390.888" style="fill:#EBEBEB;" width="43.193" height="0.25"/>
	<rect x="104.556" y="390.888" style="fill:#EBEBEB;" width="6.333" height="0.25"/>
	<rect x="131.471" y="395.111" style="fill:#EBEBEB;" width="93.676" height="0.25"/>
	<g>
		<path style="fill:#EBEBEB;" d="M238.401,337.8H45.302c-3.147,0-5.708-2.561-5.708-5.708V60.66c0-3.147,2.561-5.708,5.708-5.708
			h193.099c3.146,0,5.707,2.561,5.707,5.708v271.432C244.108,335.239,241.547,337.8,238.401,337.8z M45.302,55.203
			c-3.01,0-5.458,2.448-5.458,5.458v271.432c0,3.01,2.448,5.458,5.458,5.458h193.099c3.009,0,5.457-2.448,5.457-5.458V60.66
			c0-3.009-2.448-5.458-5.457-5.458H45.302z"/>
		<path style="fill:#EBEBEB;" d="M454.698,337.8H261.599c-3.146,0-5.707-2.561-5.707-5.708V60.66c0-3.147,2.561-5.708,5.707-5.708
			h193.099c3.148,0,5.708,2.561,5.708,5.708v271.432C460.406,335.239,457.845,337.8,454.698,337.8z M261.599,55.203
			c-3.009,0-5.457,2.448-5.457,5.458v271.432c0,3.01,2.448,5.458,5.457,5.458h193.099c3.01,0,5.458-2.448,5.458-5.458V60.66
			c0-3.009-2.448-5.458-5.458-5.458H261.599z"/>
	</g>
	<rect y="382.398" style="fill:#EBEBEB;" width="500" height="0.25"/>
	<g>
		<g>
			<g>
				<g>
					<g>
						
							<rect x="350.073" y="249.948" transform="matrix(-1 -1.224647e-16 1.224647e-16 -1 795.3231 626.5402)" style="fill:#F5F5F5;" width="95.177" height="126.645"/>
						
							<rect x="331.917" y="249.948" transform="matrix(-1 -1.224647e-16 1.224647e-16 -1 681.9898 626.5402)" style="fill:#E6E6E6;" width="18.156" height="126.645"/>
						
							<rect x="356.25" y="259.345" transform="matrix(-1 -1.224647e-16 1.224647e-16 -1 794.8336 549.4448)" style="fill:#FAFAFA;" width="82.333" height="30.755"/>
						<path style="fill:#EBEBEB;" d="M408.153,259.345l-0.36,4.1c-0.119,1.352-1.251,2.39-2.609,2.39h-15.536
							c-1.357,0-2.49-1.037-2.609-2.39l-0.36-4.1H408.153z"/>
						
							<rect x="356.25" y="293.459" transform="matrix(-1 -1.224647e-16 1.224647e-16 -1 794.8336 617.674)" style="fill:#FAFAFA;" width="82.333" height="30.755"/>
						<path style="fill:#EBEBEB;" d="M408.153,293.459l-0.36,4.1c-0.119,1.352-1.251,2.39-2.609,2.39h-15.536
							c-1.357,0-2.49-1.038-2.609-2.39l-0.36-4.1H408.153z"/>
						
							<rect x="356.25" y="327.574" transform="matrix(-1 -1.224647e-16 1.224647e-16 -1 794.8336 685.9032)" style="fill:#FAFAFA;" width="82.333" height="30.755"/>
						<path style="fill:#EBEBEB;" d="M408.153,327.574l-0.36,4.1c-0.119,1.352-1.251,2.39-2.609,2.39h-15.536
							c-1.357,0-2.49-1.038-2.609-2.39l-0.36-4.1H408.153z"/>
						<polygon style="fill:#E6E6E6;" points="356.25,382.915 437.583,382.915 438.583,376.582 356.25,376.582 						"/>
						<polygon style="fill:#E0E0E0;" points="339.25,382.915 356.25,382.915 356.25,376.582 338.25,376.582 						"/>
					</g>
					<g>
						<polygon style="fill:#FAFAFA;" points="394.482,250.084 426.982,250.084 423.376,208.868 390.876,208.868 						"/>
						<polygon style="fill:#EBEBEB;" points="394.482,250.084 392.93,250.084 389.324,208.868 390.876,208.868 						"/>
						<polygon style="fill:#F0F0F0;" points="397.427,245.882 423.3,245.882 420.43,213.07 394.557,213.07 						"/>
						<polygon style="fill:#E6E6E6;" points="399.321,243.181 420.934,243.181 418.536,215.771 396.923,215.771 						"/>
					</g>
					<g>
						<polygon style="fill:#F0F0F0;" points="385.35,250.084 387.582,224.573 355.229,224.573 352.997,250.084 						"/>
						<polygon style="fill:#E0E0E0;" points="385.35,250.084 387.582,224.573 389.324,224.573 387.092,250.084 						"/>
						<polygon style="fill:#EBEBEB;" points="382.279,247.483 384.056,227.174 358.3,227.174 356.523,247.483 						"/>
						<polygon style="fill:#F5F5F5;" points="380.305,245.811 381.789,228.846 360.274,228.846 358.789,245.811 						"/>
					</g>
				</g>
			</g>
			<g>
				<path style="fill:#EBEBEB;" d="M310.644,365.77c0,6.76-1.061,11.133-2.848,13.938c-1.344,2.111-3.756,3.297-6.259,3.297h-9.788
					c-2.502,0-4.914-1.187-6.259-3.297c-1.787-2.806-2.848-7.178-2.848-13.938c0-9.805,4.275-17.655,5.671-23.923
					c0.503-2.257-1.171-9.174-1.171-9.174h19c0,0-1.674,6.918-1.171,9.174C306.369,348.115,310.644,355.965,310.644,365.77z"/>
				<path style="fill:#F5F5F5;" d="M343,326.087c0-8.513-13.346-4.979-16.71-18.186c-1.275-5.005,9.58-16.332,9.58-16.332h-33.845
					c0,0,10.855,11.327,9.58,16.332c-3.364,13.207-16.71,9.673-16.71,18.186c0,9.376,18.827,28.903,19.734,50.882
					c0.081,1.965-3.541,6.037-3.541,6.037h15.718c0,0-3.622-4.072-3.541-6.037C324.173,354.99,343,335.463,343,326.087z"/>
				<path style="fill:#F0F0F0;" d="M332.771,348.21c1.967-4.138-2.1-18.205-2.1-18.205h14.667c0,0-4.068,14.068-2.101,18.205
					c1.389,2.921,4.548,4.786,4.548,8.242v20.772c0,5.379-4.401,5.781-9.781,5.781s-9.781-0.401-9.781-5.781v-20.772
					C328.223,352.996,331.382,351.131,332.771,348.21z"/>
			</g>
			<g>
				<g>
					<path style="fill:#E6E6E6;" d="M165.152,225.528c-8.426-3.649-13.234-11.349-10.715-17.165
						c2.518-5.816,11.424-7.579,19.85-3.931c8.428,3.649,13.235,11.35,10.717,17.166
						C182.485,227.414,173.58,229.177,165.152,225.528z M171.86,210.037c-3.949-1.71-8.121-0.883-9.301,1.842
						c-1.18,2.725,1.072,6.333,5.021,8.043c3.949,1.71,8.122,0.884,9.302-1.841C178.062,215.356,175.808,211.747,171.86,210.037z"/>
				</g>
				<g>
					<g>
						<path style="fill:#E6E6E6;" d="M175.066,210.36l-4.004-1.734l24.197-55.935c0.479-1.106,1.763-1.615,2.869-1.136l0,0
							c1.105,0.479,1.614,1.762,1.135,2.868L175.066,210.36z"/>
					</g>
					<g>
						<g>
							<polygon style="fill:#E6E6E6;" points="201.117,159.831 193.434,156.474 195.167,152.47 202.851,155.827 							"/>
						</g>
						<g>
							<polygon style="fill:#E6E6E6;" points="197.33,164.308 191.828,161.918 193.562,157.914 199.063,160.304 							"/>
						</g>
						<g>
							
								<rect x="191.366" y="165.542" transform="matrix(0.3974 -0.9177 0.9177 0.3974 -38.3573 279.3987)" style="fill:#E6E6E6;" width="4.363" height="6.723"/>
						</g>
						<g>
							<path style="fill:#E6E6E6;" d="M176.623,204.389l-2.2-0.952c-1.096-0.475-1.6-1.748-1.125-2.844l0.015-0.034
								c0.475-1.096,1.748-1.6,2.844-1.125l2.2,0.952c1.096,0.475,1.6,1.748,1.125,2.844l-0.015,0.034
								C178.992,204.359,177.719,204.863,176.623,204.389z"/>
						</g>
					</g>
				</g>
			</g>
			<g>
				<g>
					<path style="fill:#E6E6E6;" d="M348.469,185.16c6.676,4.448,8.399,13.635,3.838,20.48c-4.56,6.844-13.703,8.794-20.379,4.346
						c-6.677-4.449-8.399-13.637-3.839-20.481C332.65,182.66,341.792,180.712,348.469,185.16z M336.324,203.389
						c3.129,2.084,7.412,1.171,9.549-2.036c2.137-3.207,1.33-7.512-1.799-9.596c-3.129-2.085-7.413-1.172-9.55,2.035
						C332.388,196.999,333.195,201.305,336.324,203.389z"/>
				</g>
				<g>
					<g>
						<path style="fill:#E6E6E6;" d="M334.707,201.614l4.139,2.758l-29.614,45.32c-0.761,1.143-2.306,1.453-3.449,0.691h0
							c-1.143-0.761-1.452-2.305-0.691-3.447L334.707,201.614z"/>
					</g>
					<g>
						<g>
							<path style="fill:#E6E6E6;" d="M305.278,237.054l8.71,5.85l-4.348,6.526l-8.727-5.861c-1.253-0.841-1.589-2.538-0.753-3.794
								l1.31-1.965C302.312,236.547,304.019,236.209,305.278,237.054z"/>
						</g>
					</g>
				</g>
			</g>
			<g>
				<g>
					<g>
						<g>
							<path style="fill:#F0F0F0;" d="M227.537,98.556l-4.597,11.908c-0.414,1.073-1.62,1.607-2.693,1.193
								c-1.073-0.414-1.607-1.62-1.193-2.694l4.597-11.908c1.485-3.845-0.435-8.184-4.281-9.669l-4.26-1.645
								c-3.845-1.485-8.183,0.438-9.667,4.284l-1.877,4.862l-3.886-1.5l1.877-4.862c2.312-5.99,9.067-8.981,15.054-6.67l4.26,1.645
								C226.857,85.812,229.849,92.566,227.537,98.556z"/>
						</g>
						<g>
							<g>
								<path style="fill:#E6E6E6;" d="M226.81,100.432c-0.306-0.395-0.722-0.717-1.221-0.91l-23.201-8.957
									c-0.517-0.2-1.061-0.241-1.566-0.139c-0.927,0.182-1.748,0.823-2.113,1.768l-8.957,23.201
									c-0.567,1.468,0.161,3.112,1.63,3.679l23.201,8.957c1.468,0.567,3.112-0.161,3.679-1.63l8.957-23.201
									C227.591,102.238,227.406,101.195,226.81,100.432z M209.194,118.36l-7.358-2.841l3.89-6.791
									c-0.49-0.985-0.58-2.167-0.152-3.277c0.812-2.102,3.174-3.154,5.277-2.342c2.102,0.812,3.151,3.18,2.34,5.282
									c-0.428,1.11-1.289,1.924-2.32,2.323L209.194,118.36z"/>
							</g>
						</g>
					</g>
				</g>
			</g>
		</g>
		<g>
			
				<rect x="69.158" y="269.824" transform="matrix(-1 -1.224647e-16 1.224647e-16 -1 323.4438 639.2804)" style="fill:#E6E6E6;" width="185.129" height="99.632"/>
			
				<rect x="239.445" y="373.593" transform="matrix(-1 -1.224647e-16 1.224647e-16 -1 490.5247 755.9769)" style="fill:#E6E6E6;" width="11.635" height="8.791"/>
			
				<rect x="55.025" y="262.412" transform="matrix(-1 -1.224647e-16 1.224647e-16 -1 121.6854 644.7964)" style="fill:#E6E6E6;" width="11.635" height="119.972"/>
			<path style="fill:#F0F0F0;" d="M66.521,262.412v119.972h6.205v-6.723H251.08v6.723h6.206V262.412h-3.103h-3.103H72.727h-3.103
				H66.521z M72.727,273.272h86.074v41.669H72.727V273.272z M251.08,364.802h-86.074v-91.53h86.074V364.802z M72.727,364.802
				v-43.656h86.074v43.656H72.727z"/>
			
				<rect x="165.006" y="277.754" transform="matrix(-1 -1.224647e-16 1.224647e-16 -1 410.2685 642.5555)" style="fill:#F5F5F5;" width="80.256" height="87.048"/>
			<path style="fill:#FAFAFA;" d="M168.64,318.669c0,2.059,1.669,3.729,3.729,3.729c2.059,0,3.729-1.669,3.729-3.729
				s-1.669-3.729-3.729-3.729C170.31,314.941,168.64,316.61,168.64,318.669z"/>
			<path style="fill:#E0E0E0;" d="M172.369,322.398c1.504,0,2.792-0.895,3.381-2.177c0.218,0.474,0.347,0.996,0.347,1.551
				c0,2.059-1.669,3.729-3.729,3.729c-2.059,0-3.729-1.669-3.729-3.729c0-0.555,0.13-1.078,0.347-1.551
				C169.577,321.503,170.865,322.398,172.369,322.398z"/>
			<polygon style="fill:#FAFAFA;" points="214.137,364.802 194.99,364.802 185.841,277.754 204.988,277.754 			"/>
			<polygon style="fill:#FAFAFA;" points="190.086,364.802 186.275,364.802 177.126,277.754 180.937,277.754 			"/>
			
				<rect x="139.402" y="277.667" transform="matrix(-1 -1.224647e-16 1.224647e-16 -1 286.3894 592.5673)" style="fill:#FAFAFA;" width="7.584" height="37.232"/>
			
				<rect x="107.956" y="277.667" transform="matrix(-1 -1.224647e-16 1.224647e-16 -1 223.496 592.5673)" style="fill:#F5F5F5;" width="7.584" height="37.232"/>
			
				<rect x="131.818" y="280.284" transform="matrix(-1 -1.224647e-16 1.224647e-16 -1 271.2205 595.1838)" style="fill:#F5F5F5;" width="7.584" height="34.616"/>
			
				<rect x="115.54" y="280.284" transform="matrix(-1 -1.224647e-16 1.224647e-16 -1 238.6649 595.1838)" style="fill:#FAFAFA;" width="7.584" height="34.616"/>
			
				<rect x="123.125" y="277.667" transform="matrix(-1 -1.224647e-16 1.224647e-16 -1 251.1505 592.5673)" style="fill:#EBEBEB;" width="4.901" height="37.232"/>
			
				<rect x="128.026" y="280.284" transform="matrix(-1 -1.224647e-16 1.224647e-16 -1 259.8438 595.1838)" style="fill:#FAFAFA;" width="3.792" height="34.616"/>
			
				<rect x="100.371" y="277.667" transform="matrix(-1 -1.224647e-16 1.224647e-16 -1 208.3272 592.5673)" style="fill:#EBEBEB;" width="7.584" height="37.232"/>
			
				<rect x="92.787" y="280.284" transform="matrix(-1 -1.224647e-16 1.224647e-16 -1 193.1584 595.1838)" style="fill:#E6E6E6;" width="7.584" height="34.616"/>
			
				<rect x="76.509" y="280.284" transform="matrix(-1 -1.224647e-16 1.224647e-16 -1 160.6028 595.1838)" style="fill:#E6E6E6;" width="7.584" height="34.616"/>
			
				<rect x="84.094" y="277.667" transform="matrix(-1 -1.224647e-16 1.224647e-16 -1 173.0884 592.5673)" style="fill:#FAFAFA;" width="4.901" height="37.232"/>
			
				<rect x="88.995" y="280.284" transform="matrix(-1 -1.224647e-16 1.224647e-16 -1 181.7818 595.1838)" style="fill:#EBEBEB;" width="3.792" height="34.616"/>
			
				<rect x="72.717" y="278.549" transform="matrix(-1 -1.224647e-16 1.224647e-16 -1 149.2262 593.4492)" style="fill:#EBEBEB;" width="3.792" height="36.351"/>
			<rect x="72.717" y="327.569" style="fill:#EBEBEB;" width="7.584" height="37.232"/>
			<rect x="104.164" y="327.569" style="fill:#FAFAFA;" width="7.584" height="37.232"/>
			<rect x="80.301" y="330.186" style="fill:#FAFAFA;" width="7.584" height="34.616"/>
			<rect x="96.579" y="330.186" style="fill:#EBEBEB;" width="7.584" height="34.616"/>
			<rect x="91.678" y="327.569" style="fill:#FAFAFA;" width="4.901" height="37.232"/>
			<rect x="87.886" y="330.186" style="fill:#F5F5F5;" width="3.792" height="34.616"/>
			<rect x="111.748" y="327.569" style="fill:#EBEBEB;" width="7.584" height="37.232"/>
			<rect x="119.332" y="330.186" style="fill:#F5F5F5;" width="7.584" height="34.616"/>
			<rect x="135.61" y="330.186" style="fill:#E6E6E6;" width="7.584" height="34.616"/>
			<rect x="130.709" y="327.569" style="fill:#FAFAFA;" width="4.901" height="37.232"/>
			<rect x="146.987" y="327.569" style="fill:#FAFAFA;" width="4.901" height="37.232"/>
			<rect x="126.917" y="330.186" style="fill:#EBEBEB;" width="3.792" height="34.616"/>
			<rect x="143.195" y="328.451" style="fill:#EBEBEB;" width="3.792" height="36.351"/>
		</g>
		<g>
			<g>
				<g>
					<g>
						<g>
							<g>
								<path style="fill:#E6E6E6;" d="M81.18,198.288c0,0-1.273,0.586-1.855,1.77c-0.582,1.184,1.223,3.37,1.223,3.37
									s1.515,1.055,3.021,0.371c1.506-0.684,1.506-0.684,1.506-0.684s-2.575-4.468-3.825-4.513L81.18,198.288z"/>
							</g>
						</g>
						<g>
							<g>
								<path style="fill:#E6E6E6;" d="M87.628,198.253c0.184,2.119-1.13,4.793-3.022,4.957c-1.892,0.164-3.646-2.243-3.83-4.363
									c-0.184-2.119,1.344-2.326,3.236-2.49C85.903,196.193,87.444,196.134,87.628,198.253z"/>
							</g>
							<g>
								<path style="fill:#E6E6E6;" d="M82.085,197.629c0,0,1.446,1.152,4.425,0.479C86.51,198.108,81.811,201.243,82.085,197.629z"
									/>
							</g>
							<g>
								<path style="fill:#E6E6E6;" d="M83.36,197.208c0,0,1.668-0.29,1.692,0.406c0,0,1.415-0.079,1.219-0.671
									C86.076,196.351,83.36,197.208,83.36,197.208z"/>
							</g>
							<g style="opacity:0.2;">
								<path style="fill:#FAFAFA;" d="M82.085,197.629c0,0,1.446,1.152,4.425,0.479C86.51,198.108,81.811,201.243,82.085,197.629z"
									/>
							</g>
							<g style="opacity:0.2;">
								<path style="fill:#FAFAFA;" d="M83.36,197.208c0,0,1.668-0.29,1.692,0.406c0,0,1.415-0.079,1.219-0.671
									C86.076,196.351,83.36,197.208,83.36,197.208z"/>
							</g>
						</g>
						<g>
							<path style="fill:#E6E6E6;" d="M81.429,203.88c0.602,0.976,1.83,1.478,2.968,1.342c1.139-0.136,2.164-0.847,2.821-1.787
								c0.657-0.94,0.97-2.089,1.043-3.233c0.019-0.296,0.042-1.037-0.348-1.152c-0.358-0.105-0.579,0.396-0.745,0.629
								c-0.477,0.672-0.983,1.301-1.59,1.862c-0.589,0.543-1.24,1.019-1.937,1.413C83.445,203.064,81.535,204.052,81.429,203.88z"/>
						</g>
						<g>
							<path style="fill:#E6E6E6;" d="M89.547,199.648c0.358,0.859,0.228,1.904-0.331,2.648c-0.367,0.489-0.887,0.838-1.411,1.154
								c-0.364,0.22-0.833,0.428-1.19,0.197c-0.385-0.249-0.35-0.815-0.262-1.265c0.136-0.693,0.291-1.383,0.465-2.068
								c0.143-0.562,0.229-1.502,0.558-1.979c0.31-0.449,0.749-0.183,1.217,0.143C89.01,198.769,89.351,199.176,89.547,199.648z"/>
						</g>
						<g style="opacity:0.2;">
							<path style="fill:#FAFAFA;" d="M81.913,202.706c-0.731-0.031-1.422-0.526-1.688-1.207c-0.196-0.504-0.193-1.783,0.46-1.945
								C80.974,200.689,81.224,201.721,81.913,202.706z"/>
						</g>
						<g style="opacity:0.2;">
							<path style="fill:#FAFAFA;" d="M86.844,202.655c0.69-0.197,1.264-0.761,1.474-1.447c0.116-0.379-0.031-2.316-0.606-1.502
								c-0.188,0.266-0.153,1.116-0.251,1.46C87.314,201.683,87.107,202.185,86.844,202.655z"/>
						</g>
						<g style="opacity:0.2;">
							<path style="fill:#FAFAFA;" d="M84.202,203.851c0.534,0.454,1.387,0.476,1.943,0.05c-0.073,0.375-1.253,0.688-1.619,0.795
								c-0.953,0.28-1.452-0.139-2.377-0.525C82.149,204.171,83.614,204.394,84.202,203.851z"/>
						</g>
					</g>
					<g>
						<g>
							<polygon style="fill:#E0E0E0;" points="82.547,242.801 82.637,213.949 84.117,205.175 84.679,205.27 83.206,214.004 
								83.102,243.349 							"/>
						</g>
					</g>
					<g>
						<path style="fill:#E0E0E0;" d="M83.148,213.803l-0.452,0.347c-0.453-0.59-0.861-1.36-1.333-2.252
							c-0.73-1.378-1.558-2.941-2.815-4.323l0.422-0.383c1.305,1.436,2.151,3.032,2.897,4.44
							C82.326,212.501,82.724,213.251,83.148,213.803z"/>
					</g>
					<g>
						<path style="fill:#E6E6E6;" d="M83.496,209.933c0.768-0.202,1.456-0.691,1.899-1.35c0.503-0.748,0.678-1.663,0.842-2.549
							c-0.996,0.298-2.066-0.186-3.098-0.067c-0.823,0.095-1.59,0.596-2.006,1.313c-0.539,0.928-0.758,1.981-0.282,2.406
							C81.243,210.035,82.469,210.203,83.496,209.933z"/>
					</g>
					<g>
						<g>
							<path style="fill:#E6E6E6;" d="M79.662,207.941c-0.92,0.583-2.103,0.731-3.138,0.393c-1.035-0.337-1.337-1.893-1.738-2.906
								c0.939-0.193,3.324-0.058,3.864-0.004c0.54,0.054,1.088,0.298,1.379,0.756c0.29,0.458,0.237,1.146-0.203,1.463
								C79.796,207.625,79.662,207.941,79.662,207.941z"/>
						</g>
					</g>
					<g>
						<g>
							<path style="fill:#E6E6E6;" d="M74.929,209.626c0.633-0.766,2.193-1.321,3.17-1.143c0.977,0.178,1.811,0.851,2.161,1.65
								c-0.258,0.62-0.95,0.971-1.62,1.019c-0.67,0.048-1.331-0.15-1.974-0.346c-0.642-0.196-1.303-0.395-1.973-0.347
								L74.929,209.626z"/>
						</g>
					</g>
				</g>
				<g>
					<g>
						<g>
							<g>
								<path style="fill:#E6E6E6;" d="M94.177,204.666c0,0,1.044,0.935,1.252,2.237c0.208,1.303-2.16,2.862-2.16,2.862
									s-1.759,0.563-2.997-0.533c-1.238-1.097-1.238-1.097-1.238-1.097s3.775-3.514,4.982-3.189L94.177,204.666z"/>
							</g>
						</g>
						<g>
							<g>
								<path style="fill:#E6E6E6;" d="M88.024,202.737c-0.799,1.972-0.329,4.913,1.432,5.626c1.76,0.713,4.145-1.072,4.943-3.044
									c0.799-1.971-0.601-2.618-2.361-3.331C90.278,201.275,88.823,200.765,88.024,202.737z"/>
							</g>
							<g>
								<path style="fill:#E6E6E6;" d="M93.506,203.77c0,0-1.721,0.676-4.371-0.843C89.135,202.927,92.704,207.304,93.506,203.77z"
									/>
							</g>
							<g>
								<path style="fill:#E6E6E6;" d="M92.41,202.992c0,0-1.508-0.768-1.737-0.11c0,0-1.329-0.491-0.968-1
									C90.067,201.375,92.41,202.992,92.41,202.992z"/>
							</g>
							<g style="opacity:0.2;">
								<path style="fill:#FAFAFA;" d="M93.506,203.77c0,0-1.721,0.676-4.371-0.843C89.135,202.927,92.704,207.304,93.506,203.77z"
									/>
							</g>
							<g style="opacity:0.2;">
								<path style="fill:#FAFAFA;" d="M92.41,202.992c0,0-1.508-0.768-1.737-0.11c0,0-1.329-0.491-0.968-1
									C90.067,201.375,92.41,202.992,92.41,202.992z"/>
							</g>
						</g>
						<g>
							<path style="fill:#E6E6E6;" d="M92.294,209.937c-0.862,0.756-2.183,0.875-3.232,0.41c-1.048-0.465-1.819-1.446-2.171-2.538
								c-0.352-1.091-0.313-2.282-0.046-3.397c0.069-0.289,0.265-1.004,0.672-0.998c0.374,0.005,0.437,0.548,0.527,0.82
								c0.259,0.783,0.557,1.532,0.973,2.247c0.403,0.692,0.886,1.338,1.436,1.92C90.608,208.565,92.142,210.071,92.294,209.937z"/>
						</g>
						<g>
							<path style="fill:#E6E6E6;" d="M85.78,203.505c-0.595,0.716-0.777,1.753-0.462,2.629c0.207,0.575,0.602,1.062,1.009,1.518
								c0.284,0.317,0.671,0.654,1.08,0.538c0.442-0.125,0.575-0.676,0.622-1.132c0.074-0.703,0.129-1.407,0.164-2.113
								c0.029-0.579,0.223-1.503,0.048-2.055c-0.164-0.52-0.662-0.395-1.205-0.221C86.551,202.823,86.106,203.112,85.78,203.505z"/>
						</g>
						<g style="opacity:0.2;">
							<path style="fill:#FAFAFA;" d="M92.178,208.673c0.708,0.185,1.513-0.084,1.968-0.658c0.336-0.424,0.708-1.647,0.132-1.994
								C93.667,207.021,93.125,207.934,92.178,208.673z"/>
						</g>
						<g style="opacity:0.2;">
							<path style="fill:#FAFAFA;" d="M87.479,207.174c-0.602-0.391-0.985-1.099-0.984-1.817c0-0.396,0.711-2.205,1.021-1.258
								c0.101,0.309-0.182,1.112-0.19,1.469C87.315,206.107,87.366,206.648,87.479,207.174z"/>
						</g>
						<g style="opacity:0.2;">
							<path style="fill:#FAFAFA;" d="M89.652,209.094c-0.643,0.277-1.465,0.047-1.872-0.523c-0.041,0.379,0.995,1.026,1.314,1.236
								c0.829,0.548,1.428,0.294,2.426,0.197C91.521,210.004,90.055,209.786,89.652,209.094z"/>
						</g>
					</g>
					<g>
						<g>
							<polygon style="fill:#E0E0E0;" points="81.727,238.493 82.086,237.311 82.571,235.719 83.132,233.861 87.618,219.09 
								88.179,214.851 88.677,211.09 88.78,210.309 89.059,210.345 89.063,210.349 89.346,210.385 89.338,210.453 89.238,211.189 
								88.709,215.209 88.275,218.485 88.179,219.205 88.144,219.321 83.129,235.819 82.563,237.67 82.304,238.529 81.946,239.704 
															"/>
						</g>
					</g>
					<g>
						<path style="fill:#E0E0E0;" d="M87.734,218.917l0.33,0.465c0.606-0.431,1.223-1.047,1.936-1.76
							c1.103-1.103,2.354-2.352,3.962-3.305l-0.29-0.49c-1.67,0.988-2.947,2.265-4.074,3.392
							C88.902,217.913,88.302,218.514,87.734,218.917z"/>
					</g>
					<g>
						<path style="fill:#E6E6E6;" d="M88.539,215.115c-0.674-0.419-1.188-1.089-1.419-1.848c-0.261-0.863-0.159-1.789-0.055-2.684
							c0.865,0.577,2.029,0.43,2.981,0.847c0.759,0.332,1.344,1.037,1.531,1.844c0.242,1.046,0.142,2.116-0.438,2.383
							C90.663,215.875,89.441,215.675,88.539,215.115z"/>
					</g>
					<g>
						<g>
							<path style="fill:#E6E6E6;" d="M92.79,214.339c0.709,0.827,1.795,1.317,2.884,1.299c1.089-0.018,1.835-1.417,2.516-2.267
								c-0.841-0.46-3.16-1.033-3.692-1.14c-0.532-0.107-1.128-0.035-1.54,0.317c-0.412,0.353-0.563,1.026-0.236,1.458
								C92.754,213.997,92.79,214.339,92.79,214.339z"/>
						</g>
					</g>
					<g>
						<g>
							<path style="fill:#E6E6E6;" d="M96.818,217.341c-0.38-0.918-1.707-1.908-2.694-2.025c-0.986-0.117-1.981,0.281-2.55,0.942
								c0.065,0.669,0.623,1.207,1.249,1.45c0.626,0.243,1.316,0.248,1.988,0.249c0.672,0.001,1.361,0.006,1.988,0.248
								L96.818,217.341z"/>
						</g>
					</g>
				</g>
				<g>
					<g>
						<g>
							<g>
								<path style="fill:#E6E6E6;" d="M73.923,203.513c0,0-1.147,0.806-1.507,2.075c-0.36,1.269,1.809,3.096,1.809,3.096
									s1.68,0.766,3.038-0.178c1.358-0.944,1.358-0.944,1.358-0.944s-3.336-3.933-4.573-3.752L73.923,203.513z"/>
							</g>
						</g>
						<g>
							<g>
								<path style="fill:#E6E6E6;" d="M80.26,202.32c0.561,2.052-0.251,4.918-2.083,5.419c-1.832,0.501-3.99-1.552-4.551-3.604
									c-0.562-2.052,0.904-2.529,2.736-3.031S79.698,200.268,80.26,202.32z"/>
							</g>
							<g>
								<path style="fill:#E6E6E6;" d="M74.695,202.702c0,0,1.63,0.873,4.44-0.324C79.135,202.378,75.075,206.306,74.695,202.702z"
									/>
							</g>
							<g>
								<path style="fill:#E6E6E6;" d="M75.874,202.058c0,0,1.588-0.585,1.737,0.095c0,0,1.378-0.332,1.079-0.879
									C78.391,200.728,75.874,202.058,75.874,202.058z"/>
							</g>
							<g style="opacity:0.2;">
								<path style="fill:#FAFAFA;" d="M74.695,202.702c0,0,1.63,0.873,4.44-0.324C79.135,202.378,75.075,206.306,74.695,202.702z"
									/>
							</g>
							<g style="opacity:0.2;">
								<path style="fill:#FAFAFA;" d="M75.874,202.058c0,0,1.588-0.585,1.737,0.095c0,0,1.378-0.332,1.079-0.879
									C78.391,200.728,75.874,202.058,75.874,202.058z"/>
							</g>
						</g>
						<g>
							<path style="fill:#E6E6E6;" d="M75.173,208.969c0.768,0.852,2.065,1.125,3.161,0.787c1.096-0.338,1.976-1.222,2.454-2.265
								c0.477-1.043,0.579-2.229,0.445-3.368c-0.035-0.295-0.145-1.028-0.55-1.07c-0.371-0.039-0.498,0.493-0.62,0.753
								c-0.349,0.747-0.733,1.456-1.23,2.117c-0.482,0.64-1.037,1.225-1.652,1.738C77.009,207.804,75.309,209.119,75.173,208.969z"
								/>
						</g>
						<g>
							<path style="fill:#E6E6E6;" d="M82.399,203.347c0.507,0.781,0.566,1.832,0.15,2.665c-0.273,0.547-0.722,0.984-1.181,1.388
								c-0.319,0.281-0.743,0.571-1.136,0.408c-0.424-0.176-0.491-0.739-0.485-1.198c0.009-0.706,0.038-1.413,0.086-2.118
								c0.039-0.578-0.045-1.519,0.193-2.047c0.224-0.497,0.704-0.314,1.223-0.078C81.713,202.579,82.121,202.918,82.399,203.347z"
								/>
						</g>
						<g style="opacity:0.2;">
							<path style="fill:#FAFAFA;" d="M75.438,207.727c-0.725,0.101-1.493-0.262-1.877-0.884c-0.284-0.461-0.51-1.719,0.103-1.996
								C74.152,205.912,74.583,206.882,75.438,207.727z"/>
						</g>
						<g style="opacity:0.2;">
							<path style="fill:#FAFAFA;" d="M80.28,206.791c0.644-0.318,1.107-0.975,1.19-1.689c0.046-0.394-0.447-2.273-0.867-1.369
								c-0.137,0.296,0.05,1.126,0.016,1.482C80.568,205.751,80.454,206.281,80.28,206.791z"/>
						</g>
						<g style="opacity:0.2;">
							<path style="fill:#FAFAFA;" d="M77.896,208.442c0.606,0.35,1.45,0.219,1.92-0.3c-0.004,0.381-1.109,0.902-1.45,1.073
								c-0.887,0.447-1.453,0.124-2.433-0.09C75.934,209.126,77.415,209.082,77.896,208.442z"/>
						</g>
					</g>
					<g>
						<g>
							<polygon style="fill:#E0E0E0;" points="83.265,247.056 78.171,218.657 78.049,209.76 78.619,209.752 78.74,218.609 
								83.91,247.495 							"/>
						</g>
					</g>
					<g>
						<path style="fill:#E0E0E0;" d="M78.646,218.422l-0.383,0.423c-0.552-0.499-1.091-1.183-1.716-1.976
							c-0.966-1.225-2.061-2.613-3.546-3.747l0.346-0.453c1.542,1.178,2.661,2.596,3.648,3.847
							C77.604,217.288,78.13,217.955,78.646,218.422z"/>
					</g>
					<g>
						<path style="fill:#E6E6E6;" d="M78.294,214.552c0.719-0.337,1.308-0.942,1.626-1.669c0.361-0.826,0.368-1.757,0.37-2.659
							c-0.926,0.472-2.066,0.188-3.06,0.49c-0.793,0.241-1.457,0.872-1.737,1.652c-0.363,1.01-0.39,2.085,0.155,2.418
							C76.095,215.058,77.332,215.003,78.294,214.552z"/>
					</g>
					<g>
						<g>
							<path style="fill:#E6E6E6;" d="M74.164,213.282c-0.801,0.738-1.938,1.096-3.017,0.951c-1.079-0.146-1.656-1.622-2.232-2.547
								c0.889-0.358,3.26-0.654,3.801-0.698c0.541-0.044,1.124,0.097,1.492,0.496c0.368,0.399,0.439,1.085,0.063,1.476
								C74.24,212.946,74.164,213.282,74.164,213.282z"/>
						</g>
					</g>
					<g>
						<g>
							<path style="fill:#E6E6E6;" d="M69.811,215.79c0.485-0.867,1.92-1.694,2.913-1.694c0.993-0.001,1.934,0.511,2.422,1.235
								c-0.143,0.656-0.761,1.125-1.411,1.293c-0.651,0.168-1.336,0.092-2.003,0.014c-0.667-0.078-1.353-0.154-2.004,0.013
								L69.811,215.79z"/>
						</g>
					</g>
				</g>
			</g>
			<g>
				<path style="fill:#F0F0F0;" d="M85.355,229.633h-5.979c-0.448-0.009-0.848,0.279-0.982,0.707
					c-0.491,1.551-1.536,5.63-1.536,12.055c0,7.059,1.841,16.429,2.42,19.197c0.097,0.466,0.506,0.801,0.982,0.805h4.163
					c0.476-0.004,0.885-0.339,0.982-0.805c0.579-2.768,2.42-12.139,2.42-19.197c0-6.425-1.046-10.504-1.536-12.055
					C86.158,229.93,85.784,229.647,85.355,229.633z"/>
			</g>
		</g>
	</g>
</g>
<g id="Background_Simple" style="display:none;">
	<g style="display:inline;">
		<path style="fill:#407BFF;" d="M88.424,236.439c14.509-3.186,29.737,0.536,44.093,5.21c14.356,4.673,28.69,10.367,43.601,11.223
			c33.89,1.946,63.75-21.265,86.126-47.277c22.377-26.012,40.993-56.34,68.478-76.308c12.081-8.777,27.016-15.491,41.568-11.688
			c11.246,2.939,20.369,11.667,28.252,20.702c14.367,16.466,26.478,35.079,35.823,55.053c7.9,16.885,13.794,36.936,6.535,53.681
			c-6.544,15.095-21.922,23.27-36.473,29.787c-100.891,45.188-211.741,62.412-321.941,72.07c-4.414,0.387-9.104,0.708-13.099-1.448
			c-5.566-3.004-8.1-9.832-9.789-16.123C52.886,298.871,47.521,245.421,88.424,236.439z"/>
		<path style="opacity:0.9;fill:#FFFFFF;" d="M88.424,236.439c14.509-3.186,29.737,0.536,44.093,5.21
			c14.356,4.673,28.69,10.367,43.601,11.223c33.89,1.946,63.75-21.265,86.126-47.277c22.377-26.012,40.993-56.34,68.478-76.308
			c12.081-8.777,27.016-15.491,41.568-11.688c11.246,2.939,20.369,11.667,28.252,20.702c14.367,16.466,26.478,35.079,35.823,55.053
			c7.9,16.885,13.794,36.936,6.535,53.681c-6.544,15.095-21.922,23.27-36.473,29.787c-100.891,45.188-211.741,62.412-321.941,72.07
			c-4.414,0.387-9.104,0.708-13.099-1.448c-5.566-3.004-8.1-9.832-9.789-16.123C52.886,298.871,47.521,245.421,88.424,236.439z"/>
	</g>
</g>
<g id="Shadow">
	<ellipse id="_x3C_Path_x3E__359_" style="fill:#F5F5F5;" cx="250" cy="415.693" rx="193.889" ry="11.323"/>
</g>
<g id="Plant">
	<g>
		<g>
			<g>
				<g>
					<path style="fill:#263238;" d="M120.783,376.773c-0.34-0.022-0.605-0.31-0.597-0.654c0.74-29.39,2.256-77.602,2.335-77.866
						c0.101-0.338,0.457-0.522,0.794-0.43c0.337,0.101,0.531,0.456,0.432,0.794c-0.019,0.065-1.55,48.444-2.283,77.535
						c-0.008,0.352-0.302,0.631-0.655,0.623C120.8,376.774,120.792,376.773,120.783,376.773z"/>
				</g>
				<g>
					<g>
						<path style="fill:#407BFF;" d="M116.833,278.631c0.246,2.264,2.956,10.111,5.22,9.865c2.263-0.246,3.223-8.493,2.977-10.757
							c-0.246-2.263-2.281-3.899-4.544-3.653C118.222,274.333,116.587,276.368,116.833,278.631z"/>
						<path style="fill:#407BFF;" d="M127.819,303.385c-0.246-2.264-2.956-10.111-5.22-9.865c-2.264,0.246-3.224,8.493-2.978,10.757
							c0.246,2.263,2.281,3.899,4.544,3.653C126.43,307.684,128.066,305.65,127.819,303.385z"/>
						<path style="fill:#407BFF;" d="M109.949,296.502c2.264-0.246,10.111-2.956,9.865-5.22c-0.246-2.263-8.493-3.223-10.756-2.977
							c-2.264,0.246-3.899,2.281-3.653,4.544C105.651,295.113,107.685,296.748,109.949,296.502z"/>
						<path style="fill:#407BFF;" d="M134.703,285.515c-2.264,0.246-10.111,2.956-9.865,5.22c0.247,2.264,8.493,3.224,10.757,2.977
							c2.264-0.246,3.899-2.281,3.653-4.544C139.002,286.905,136.966,285.269,134.703,285.515z"/>
						<path style="fill:#407BFF;" d="M109.689,286.141c1.775,1.427,9.24,5.06,10.667,3.285c1.427-1.775-3.726-8.285-5.5-9.712
							c-1.775-1.426-4.37-1.144-5.797,0.631C107.633,282.119,107.915,284.714,109.689,286.141z"/>
						<path style="fill:#407BFF;" d="M134.962,295.876c-1.775-1.427-9.24-5.059-10.667-3.284c-1.426,1.774,3.726,8.284,5.501,9.711
							c1.775,1.426,4.37,1.144,5.796-0.63C137.02,299.898,136.737,297.302,134.962,295.876z"/>
						<path style="fill:#407BFF;" d="M117.459,303.645c1.426-1.775,5.059-9.24,3.284-10.667c-1.775-1.427-8.284,3.726-9.711,5.501
							c-1.427,1.775-1.144,4.37,0.631,5.796C113.437,305.702,116.032,305.42,117.459,303.645z"/>
						<path style="fill:#407BFF;" d="M127.194,278.372c-1.426,1.775-5.059,9.24-3.284,10.667c1.775,1.426,8.285-3.726,9.711-5.501
							c1.427-1.775,1.144-4.37-0.631-5.796C131.216,276.315,128.62,276.598,127.194,278.372z"/>
					</g>
					<g style="opacity:0.6;enable-background:new    ;">
						<path style="fill:#FFFFFF;" d="M116.833,278.631c0.246,2.264,2.956,10.111,5.22,9.865c2.263-0.246,3.223-8.493,2.977-10.757
							c-0.246-2.263-2.281-3.899-4.544-3.653C118.222,274.333,116.587,276.368,116.833,278.631z"/>
						<path style="fill:#FFFFFF;" d="M127.819,303.385c-0.246-2.264-2.956-10.111-5.22-9.865c-2.264,0.246-3.224,8.493-2.978,10.757
							c0.246,2.263,2.281,3.899,4.544,3.653C126.43,307.684,128.066,305.65,127.819,303.385z"/>
						<path style="fill:#FFFFFF;" d="M109.949,296.502c2.264-0.246,10.111-2.956,9.865-5.22c-0.246-2.263-8.493-3.223-10.756-2.977
							c-2.264,0.246-3.899,2.281-3.653,4.544C105.651,295.113,107.685,296.748,109.949,296.502z"/>
						<path style="fill:#FFFFFF;" d="M134.703,285.515c-2.264,0.246-10.111,2.956-9.865,5.22c0.247,2.264,8.493,3.224,10.757,2.977
							c2.264-0.246,3.899-2.281,3.653-4.544C139.002,286.905,136.966,285.269,134.703,285.515z"/>
						<path style="fill:#FFFFFF;" d="M109.689,286.141c1.775,1.427,9.24,5.06,10.667,3.285c1.427-1.775-3.726-8.285-5.5-9.712
							c-1.775-1.426-4.37-1.144-5.797,0.631C107.633,282.119,107.915,284.714,109.689,286.141z"/>
						<path style="fill:#FFFFFF;" d="M134.962,295.876c-1.775-1.427-9.24-5.059-10.667-3.284c-1.426,1.774,3.726,8.284,5.501,9.711
							c1.775,1.426,4.37,1.144,5.796-0.63C137.02,299.898,136.737,297.302,134.962,295.876z"/>
						<path style="fill:#FFFFFF;" d="M117.459,303.645c1.426-1.775,5.059-9.24,3.284-10.667c-1.775-1.427-8.284,3.726-9.711,5.501
							c-1.427,1.775-1.144,4.37,0.631,5.796C113.437,305.702,116.032,305.42,117.459,303.645z"/>
						<path style="fill:#FFFFFF;" d="M127.194,278.372c-1.426,1.775-5.059,9.24-3.284,10.667c1.775,1.426,8.285-3.726,9.711-5.501
							c1.427-1.775,1.144-4.37-0.631-5.796C131.216,276.315,128.62,276.598,127.194,278.372z"/>
					</g>
					<path style="fill:#407BFF;" d="M117.472,291.536c0.291,2.681,2.701,4.618,5.382,4.326c2.681-0.291,4.618-2.701,4.326-5.382
						c-0.292-2.681-2.702-4.618-5.382-4.326C119.117,286.446,117.181,288.855,117.472,291.536z"/>
				</g>
			</g>
			<g>
				<path style="fill:#407BFF;" d="M117.952,355.238c-5.634,0.124-15.274-5.081-19.067-10.161c-3.849-5.155,6.945-1.981,5.826-6.034
					c-1.12-4.053-14.408-1.016-16.879-6.819c-2.471-5.803,7.127-4.495,6.737-7.464c-0.389-2.969-10.327-2.336-13.536-8.503
					c-3.209-6.167,5.544-2.733,4.164-5.288c-1.38-2.556-12.37-13.297-7.79-15.556c4.579-2.259,14.885,8.931,18.33,10.174
					c3.445,1.242,4.227-6.511,8.716-2.817c4.489,3.695,1.185,19.906,6.463,22.028c3.931,1.581,2.239-5.833,6.765-3.974
					C125.605,324.078,120.24,355.188,117.952,355.238z"/>
				<g style="opacity:0.2;">
					<path style="fill:#FFFFFF;" d="M117.952,355.238c-5.634,0.124-15.274-5.081-19.067-10.161
						c-3.849-5.155,6.945-1.981,5.826-6.034c-1.12-4.053-14.408-1.016-16.879-6.819c-2.471-5.803,7.127-4.495,6.737-7.464
						c-0.389-2.969-10.327-2.336-13.536-8.503c-3.209-6.167,5.544-2.733,4.164-5.288c-1.38-2.556-12.37-13.297-7.79-15.556
						c4.579-2.259,14.885,8.931,18.33,10.174c3.445,1.242,4.227-6.511,8.716-2.817c4.489,3.695,1.185,19.906,6.463,22.028
						c3.931,1.581,2.239-5.833,6.765-3.974C125.605,324.078,120.24,355.188,117.952,355.238z"/>
				</g>
			</g>
			<g>
				<g>
					<path style="fill:#407BFF;" d="M126.049,348.089c0.094,0.158-0.749,0.957,2.033,1.072c6.851,0.282,18.964-0.18,23.513-6.409
						c6.495-8.893-8.485-8.077-7.028-12.981c1.457-4.904,17.549-0.899,20.69-7.9c3.141-7.001-8.563-5.634-8.021-9.236
						c0.543-3.602,12.823,1.065,16.87-6.361c4.047-7.426-6.68-3.453-4.942-6.53c1.738-3.076,15.356-15.885,9.839-18.74
						c-5.517-2.855-18.314,10.516-22.534,11.947c-4.22,1.43-5.196-11.684-10.743-7.295c-5.547,4.389-1.907,24.185-8.376,26.643
						c-4.819,1.831-2.19-5.264-8.136-4.992C121.136,307.678,118.48,335.436,126.049,348.089z"/>
				</g>
				<g style="opacity:0.3;">
					<path style="fill:#FFFFFF;" d="M126.049,348.089c0.094,0.158-0.749,0.957,2.033,1.072c6.851,0.282,18.964-0.18,23.513-6.409
						c6.495-8.893-8.485-8.077-7.028-12.981c1.457-4.904,17.549-0.899,20.69-7.9c3.141-7.001-8.563-5.634-8.021-9.236
						c0.543-3.602,12.823,1.065,16.87-6.361c4.047-7.426-6.68-3.453-4.942-6.53c1.738-3.076,15.356-15.885,9.839-18.74
						c-5.517-2.855-18.314,10.516-22.534,11.947c-4.22,1.43-5.196-11.684-10.743-7.295c-5.547,4.389-1.907,24.185-8.376,26.643
						c-4.819,1.831-2.19-5.264-8.136-4.992C121.136,307.678,118.48,335.436,126.049,348.089z"/>
				</g>
			</g>
			<g>
				<g>
					<g>
						<g>
							<g>
								<g>
									<g>
										<g>
											<g>
												<path style="fill:#263238;" d="M120.915,372.332c-0.012-0.001-0.024-0.002-0.037-0.003
													c-0.244-0.029-0.418-0.251-0.388-0.496c5.623-46.016,32.13-64.72,32.396-64.903c0.203-0.138,0.48-0.088,0.619,0.115
													c0.139,0.202,0.088,0.48-0.115,0.619c-0.264,0.181-26.445,18.683-32.016,64.277
													C121.346,372.173,121.145,372.341,120.915,372.332z"/>
											</g>
											<g>
												<path style="fill:#263238;" d="M146.855,313.323c-0.181-0.007-0.347-0.126-0.406-0.307
													c-0.076-0.234,0.052-0.485,0.286-0.561c0.165-0.054,4.112-1.302,10.579,0.071c0.241,0.051,0.395,0.288,0.344,0.528
													c-0.051,0.241-0.288,0.396-0.528,0.344c-6.215-1.318-10.081-0.107-10.119-0.095
													C146.959,313.318,146.906,313.325,146.855,313.323z"/>
											</g>
											<g>
												<path style="fill:#263238;" d="M141.955,318.912c-0.236-0.01-0.424-0.202-0.427-0.441
													c-0.137-13.917,7.919-24.79,8.001-24.898c0.147-0.196,0.427-0.236,0.624-0.088c0.197,0.148,0.236,0.427,0.089,0.624
													c-0.08,0.106-7.956,10.749-7.822,24.354c0.002,0.246-0.195,0.447-0.441,0.45
													C141.971,318.913,141.963,318.912,141.955,318.912z"/>
											</g>
											<g>
												<path style="fill:#263238;" d="M134.061,330.691c-0.112-0.005-0.223-0.051-0.306-0.14
													c-0.169-0.178-0.161-0.46,0.018-0.63c0.06-0.056,6.024-5.57,13.834-2.772c0.231,0.083,0.352,0.338,0.269,0.57
													c-0.083,0.231-0.338,0.353-0.57,0.269c-7.301-2.619-12.866,2.528-12.921,2.581
													C134.295,330.655,134.177,330.695,134.061,330.691z"/>
											</g>
											<g>
												<path style="fill:#263238;" d="M129.935,338.908c-0.166-0.007-0.322-0.107-0.391-0.27
													c-0.125-0.292-3.046-7.289-1.436-17.258c0.04-0.242,0.259-0.412,0.511-0.368c0.243,0.039,0.408,0.267,0.369,0.51
													c-1.566,9.7,1.346,16.697,1.376,16.766c0.096,0.226-0.009,0.488-0.235,0.584
													C130.065,338.899,129.999,338.91,129.935,338.908z"/>
											</g>
										</g>
									</g>
								</g>
							</g>
						</g>
					</g>
					<g>
						<g>
							<g>
								<path style="fill:#263238;" d="M121.094,388.769c-0.231-0.009-0.419-0.197-0.426-0.431l-0.578-12.188
									c-1.705-40.525-29.503-68.088-29.784-68.361c-0.176-0.172-0.18-0.454-0.008-0.63c0.173-0.176,0.454-0.179,0.63-0.008
									c0.283,0.276,28.331,28.074,30.052,68.967l0.578,12.193c0.008,0.246-0.185,0.451-0.431,0.46
									C121.116,388.77,121.105,388.769,121.094,388.769z"/>
							</g>
							<g>
								<path style="fill:#263238;" d="M101.771,323.012c-0.024-0.001-0.049-0.004-0.073-0.009c-0.039-0.008-0.087-0.027-0.13-0.05
									l-0.144-0.058c-3.639-1.512-7.705-2.296-11.447-2.214c-0.25,0.012-0.45-0.189-0.455-0.436
									c-0.006-0.246,0.189-0.449,0.435-0.455c3.864-0.083,8.058,0.724,11.809,2.282l0.148,0.061
									c0.027,0.01,0.052,0.022,0.076,0.036c0.175,0.089,0.276,0.287,0.234,0.488C102.179,322.875,101.984,323.021,101.771,323.012
									z"/>
							</g>
							<g>
								<path style="fill:#263238;" d="M105.702,328.231c-0.007,0-0.015-0.001-0.022-0.002c-0.245-0.021-0.426-0.239-0.404-0.483
									c1.076-11.961-5.118-21.802-5.181-21.9c-0.132-0.207-0.072-0.483,0.135-0.615c0.209-0.132,0.483-0.072,0.615,0.135
									c0.064,0.1,6.423,10.187,5.318,22.46C106.142,328.064,105.938,328.241,105.702,328.231z"/>
							</g>
							<g>
								<path style="fill:#263238;" d="M109.758,335.16c-0.108-0.004-0.216-0.049-0.298-0.131
									c-0.045-0.046-4.559-4.501-11.165-2.741c-0.239,0.065-0.482-0.079-0.545-0.316c-0.063-0.238,0.078-0.482,0.316-0.545
									c7.121-1.9,11.832,2.776,12.028,2.976c0.173,0.175,0.171,0.456-0.004,0.63C109.998,335.122,109.878,335.165,109.758,335.16z
									"/>
							</g>
							<g>
								<path style="fill:#263238;" d="M114.907,346.58c-0.064-0.003-0.128-0.019-0.188-0.05c-0.218-0.114-0.302-0.383-0.188-0.601
									c0.031-0.06,3.09-6.039,2.393-14.665c-0.02-0.245,0.162-0.46,0.408-0.479c0.247-0.03,0.46,0.162,0.48,0.408
									c0.72,8.896-2.36,14.898-2.491,15.15C115.238,346.499,115.074,346.586,114.907,346.58z"/>
							</g>
						</g>
					</g>
				</g>
			</g>
		</g>
		<g>
			<g>
				<path style="fill:#407BFF;" d="M146.157,390.688c0,14.214-6.393,25.742-25.754,25.742c-18.478,0-25.754-11.528-25.754-25.742
					c0-5.361,1.647-10.348,4.45-14.471h42.608C144.51,380.34,146.157,385.327,146.157,390.688z"/>
				<path style="opacity:0.7;fill:#FFFFFF;" d="M146.157,390.688c0,14.214-6.393,25.742-25.754,25.742
					c-18.478,0-25.754-11.528-25.754-25.742c0-5.361,1.647-10.348,4.45-14.471h42.608
					C144.51,380.34,146.157,385.327,146.157,390.688z"/>
			</g>
		</g>
	</g>
</g>
<g id="Character">
	<g>
		<g>
			<g>
				<g>
					<g>
						<g>
							<polygon style="fill:#E8BFBF;" points="294.101,403.863 304.061,402.409 301.546,379.108 291.585,380.562 							"/>
							<g>
								<path style="fill:#407BFF;" d="M311.719,402.758c0.865-0.064,1.683-0.419,2.32-1.008c0.272-0.343,0.358-0.798,0.23-1.216
									c-0.057-0.262-0.246-0.476-0.5-0.564c-1.331-0.475-4.974,2.209-5.381,2.512c-0.079,0.064-0.113,0.167-0.088,0.265
									c0.034,0.094,0.123,0.157,0.223,0.158C309.59,402.953,310.66,402.904,311.719,402.758z M313.12,400.422
									c0.15-0.037,0.307-0.032,0.454,0.012c0.105,0.033,0.183,0.12,0.206,0.228c0.082,0.276,0.027,0.575-0.148,0.804
									c-0.512,0.638-2.138,0.998-4.406,0.997c1.181-0.904,2.508-1.599,3.924-2.056L313.12,400.422z"/>
								<path style="fill:#407BFF;" d="M308.578,402.916l0.082-0.038c1.105-0.728,3.098-3.265,2.724-4.361
									c-0.115-0.245-0.323-0.559-0.991-0.522c-0.483,0.008-0.941,0.222-1.258,0.587c-1.079,1.238-0.865,3.966-0.862,4.077
									c-0.003,0.084,0.034,0.164,0.1,0.215C308.431,402.92,308.507,402.935,308.578,402.916z M310.253,398.496l0.133-0.062
									c0.44-0.018,0.491,0.145,0.505,0.2c0.235,0.663-1.086,2.612-2.186,3.512c-0.102-1.147,0.165-2.297,0.76-3.283
									c0.213-0.222,0.501-0.357,0.808-0.377L310.253,398.496z"/>
							</g>
							<path style="fill:#263238;" d="M303.043,398.284l-8.833,2.105c-0.398,0.082-0.669,0.452-0.626,0.856l0.285,12.781
								c0.123,0.896,0.949,1.522,1.844,1.399c0.062-0.009,0.124-0.021,0.184-0.036c3.826-0.953,5.632-1.603,10.497-2.725
								c2.981-0.686,12.428-1.398,16.298-3.122c3.869-1.723,2.362-5.645,0.597-5.275c-5.676,1.221-12.969-1.209-17.112-4.908
								C305.615,399.084,303.649,398.127,303.043,398.284z"/>
							<polygon style="opacity:0.2;" points="301.546,379.108 302.842,391.118 292.883,392.583 291.576,380.575 							"/>
							<path style="fill:#407BFF;" d="M306.866,386.175l-18.429,3.441c0,0-8.949-12.776-10.638-21.849
								c-1.758-9.447,0.121-41.609,0-42.036c-5.213-17.597-19.375-63.201-26.214-79.981c-3.787-9.3-6.445-15.561-6.445-15.561
								l1.915-0.43l15.043-6.162l10.962,2.066c0,0,33.313,67.362,36.805,92.703C312.471,337.287,306.866,386.175,306.866,386.175z"
								/>
							<path style="opacity:0.3;fill:#FFFFFF;" d="M306.866,386.175l-18.429,3.441c0,0-8.949-12.776-10.638-21.849
								c-1.758-9.447,0.121-41.609,0-42.036c-5.213-17.597-19.375-63.201-26.214-79.981c-3.787-9.3-6.445-15.561-6.445-15.561
								l1.915-0.43l15.043-6.162l10.962,2.066c0,0,33.313,67.362,36.805,92.703C312.471,337.287,306.866,386.175,306.866,386.175z"
								/>
							<path style="opacity:0.2;enable-background:new    ;" d="M273.458,310.491c-5.213-17.597-15.727-44.292-22.567-61.073
								l-4.531-15.99l-0.871-3.076l1.586,2.906l17.854,39.546C272.807,287.946,273.578,310.918,273.458,310.491z"/>
						</g>
						<g>
							<polygon style="fill:#E8BFBF;" points="192.572,398.376 201.449,402.116 210.923,381.789 202.046,378.049 							"/>
							<g>
								<path style="fill:#407BFF;" d="M207.233,406.371c0.704,0.44,1.536,0.628,2.361,0.533c0.404-0.111,0.727-0.414,0.865-0.809
									c0.105-0.235,0.079-0.507-0.067-0.718c-0.759-1.119-5.089-1.105-5.574-1.102c-0.097,0.005-0.182,0.065-0.218,0.155
									c-0.027,0.092,0.006,0.191,0.083,0.248C205.479,405.319,206.333,405.886,207.233,406.371z M209.635,405.359
									c0.136,0.056,0.255,0.148,0.344,0.266c0.062,0.085,0.074,0.197,0.03,0.292c-0.093,0.26-0.304,0.459-0.569,0.537
									c-0.756,0.203-2.215-0.438-3.965-1.72c1.423-0.03,2.841,0.183,4.192,0.63L209.635,405.359z"/>
								<path style="fill:#407BFF;" d="M204.719,404.718l0.085,0.017c1.265,0.063,4.237-0.77,4.568-1.828
									c0.05-0.254,0.066-0.615-0.47-0.963c-0.378-0.267-0.852-0.361-1.303-0.258c-1.533,0.346-2.91,2.574-2.971,2.661
									c-0.05,0.063-0.066,0.146-0.044,0.223C204.602,404.638,204.653,404.692,204.719,404.718z M208.51,402.252l0.138,0.027
									c0.35,0.235,0.298,0.389,0.277,0.44c-0.194,0.645-2.315,1.403-3.673,1.476c0.57-0.943,1.425-1.68,2.442-2.105
									c0.29-0.051,0.589,0.008,0.837,0.166L208.51,402.252z"/>
							</g>
							<path style="fill:#263238;" d="M203.063,398.013l-8.01-3.367c-0.353-0.161-0.772-0.029-0.967,0.307l-7.003,10.029
								c-0.411,0.761-0.128,1.711,0.633,2.123c0.053,0.029,0.107,0.054,0.163,0.076c3.493,1.426,5.254,1.945,9.645,3.829
								c2.69,1.155,10.387,5.945,14.348,6.801c3.961,0.857,5.015-3.024,3.442-3.736c-5.073-2.266-9.331-8.264-10.439-13.461
								C204.596,400.085,203.619,398.235,203.063,398.013z"/>
							<polygon style="opacity:0.2;" points="211.311,382.028 206.175,392.384 197.387,388.44 202.514,378.08 							"/>
							<path style="fill:#407BFF;" d="M213.16,393.314l-17.68-9.425c0,0-3.39-12.587,0-20.616
								c6.524-15.452,23.497-38.171,23.612-38.599c4.529-17.786,12.474-66.492,15.187-84.409c1.507-9.928,2.392-12.07,2.392-12.07
								l1.865,0.611l27.053,0.054c0,0,5.104,40.967-14.456,104.397c-4.867,15.782-13.02,28.904-26.435,46.655
								C219.603,386.652,213.16,393.314,213.16,393.314z"/>
							<path style="opacity:0.3;fill:#FFFFFF;" d="M213.16,393.314l-17.68-9.425c0,0-3.39-12.587,0-20.616
								c6.524-15.452,23.497-38.171,23.612-38.599c4.529-17.786,12.474-66.492,15.187-84.409c1.507-9.928,2.392-12.07,2.392-12.07
								l1.865,0.611l27.053,0.054c0,0,5.104,40.967-14.456,104.397c-4.867,15.782-13.02,28.904-26.435,46.655
								C219.603,386.652,213.16,393.314,213.16,393.314z"/>
						</g>
						<g>
							<g>
								<path style="fill:#E8BFBF;" d="M289.556,195.386c0.198-3.038,2.213-6.951,3.951-8.76c0.558-0.578,2.667-1.458,3.862-2.236
									c5.874-3.854,17.63-8.661,17.63-8.661l3.628,3.163c0,0-7.161,6.922-11.421,10.241c-0.837,0.652-1.807,1.444-2.829,2.281
									c-1.852,1.546-10.575,7.299-12.24,8.741L289.556,195.386z"/>
								<path style="fill:#E8BFBF;" d="M325.342,173.94l-6.71,4.958l-3.765-2.772c0,0,1.536-1.957,3.115-3.473
									c0.693-0.666,1.067-1.583,1.076-2.544c0.013-1.478,0.236-3.193,1.039-4.451c0.02-0.029,0.03-0.059,0.049-0.079
									c1.455-2.192,4.856-1.533,5.544,1.003l0.969,3.577C327.04,171.571,326.518,173.072,325.342,173.94z"/>
							</g>
							<g>
								<path style="fill:#263238;" d="M291.702,196.727l-1.769,1.622c-0.551-0.442-1.425-1.15-2.526-2.064
									c-8.62-7.156-30.23-24.514-21.615-29.468c7.384-4.246,15.226,8.748,19.138,12.65c0.796,0.806,2.978,3.322,4.738,6.478
									C291.505,189.256,292.872,193.267,291.702,196.727z"/>
							</g>
							<path style="fill:#263238;" d="M289.663,184.391c-3.059,2.236-5.671,5.082-7.636,8.321c1.417,4.697,4.986,8.784,9.487,10.736
								c2.466-5.723,3.615-11.876,3.126-18.089C293.079,185.023,291.223,184.727,289.663,184.391z"/>
							<path style="fill:#263238;" d="M242.208,165.805c-3.084,0.991-6.614,0.198-8.593,2.762c-1.979,2.564-2.574,5.948-2.571,9.187
								c0.004,4.505,1.034,8.938,2.059,13.324c1.242,5.319,2.484,10.637,3.726,15.956c0.849,3.636-0.044,20.542,0.862,20.825
								c0,0,28.269-0.554,35.357-1.547c0,0,0.616-17.379,1.185-23.298c0.126-1.313,2.12-6.889,2.354-8.29
								c1.104-6.602-1.06-11.258-3.346-17.55c0,0-5.006-10.079-7.45-10.354C261.44,166.329,250.801,163.044,242.208,165.805z"/>
							<path style="fill:#263238;" d="M241.018,174.145c-0.1-0.587-5.117-10.722-9.925-3.638c-6.693,9.86-7.144,22.24-7.144,22.24
								s-4.113,12.038-1.247,14.667c2.866,2.629,5.957,4.321,7.96,2.83c2.002-1.491,3.301-4.47,3.301-4.47
								S242.776,184.46,241.018,174.145z"/>
							<g>
								<path style="fill:#263238;" d="M240.695,162.046c-2.111,1.647-1.833,5.464,0.494,6.787
									c-0.585,2.044,0.099,4.396,1.689,5.808c1.59,1.412,4.006,1.813,5.967,0.99c-0.848,1.519,0.108,3.524,1.571,4.464
									c1.463,0.94,3.271,1.111,4.994,1.342c1.724,0.231,3.545,0.602,4.796,1.81c1.782-2.564,3.563-5.127,5.345-7.691
									c0.694-0.998,1.413-2.069,1.467-3.283c0.054-1.215-0.87-2.554-2.082-2.465c1.233-1.285,1.258-3.538,0.054-4.85
									c-1.204-1.312-3.451-1.48-4.836-0.362c0.248-1.027-0.354-2.118-1.221-2.722c-0.868-0.604-1.948-0.81-3-0.913
									L240.695,162.046z"/>
							</g>
							<path style="fill:#E8BFBF;" d="M243.902,148.995c1.391,5.103,3.079,14.512-0.296,18.231c0,0,9.548,3.823,16.334,11.495
								c3.158-3.068,2.83-6.515,1.863-9.036c-0.75-1.953-2.361-3.403-4.287-4.221c-3.716-1.579-3.748-5.238-3.13-8.745
								L243.902,148.995z"/>
							<g>
								<path style="opacity:0.2;enable-background:new    ;" d="M245.982,157.685l3.511,0.953c1.504,0.408,3.076,0.501,4.617,0.274
									l0,0c-0.014,0.756-0.15,2.362,0.326,3.209c-2.016,0.973-5.427,0.305-6.934-1.471
									C246.878,159.957,246.322,158.554,245.982,157.685z"/>
								<g>
									<g>
										<path style="fill:#E8BFBF;" d="M237.087,144.651c3.717,7.844,5.123,11.241,10.845,13.738
											c8.621,3.774,17.416-2.527,16.113-11.323c-1.171-7.911-7.056-19.411-16.206-19.452
											c-6.538-0.064-11.891,5.183-11.955,11.722C235.867,141.176,236.278,142.996,237.087,144.651z"/>
										<path style="fill:#263238;" d="M241.171,129.671c-2.708-1.265-6.074-0.233-8.329,1.751
											c-2.295,2.019-3.692,4.843-5.031,7.59c-0.728,1.493-1.463,3.006-1.8,4.633c-0.337,1.627-0.24,3.406,0.62,4.828
											c0.842,1.394,2.41,2.309,4.031,2.404c0.932,0.054,2.023,0.728,2.325,1.612c0.28,0.821,0.147,1.71,0.016,2.563
											c-0.127,0.826-0.248,1.688,0.011,2.481c0.432,1.32,1.844,2.121,3.226,2.255c1.382,0.134,2.755-0.266,4.086-0.662
											c0.844-0.251,1.693-0.106,2.349,0.482c0.164,0.147,0.298,0.323,0.4,0.517c0.414,0.787,1.613,0.663,1.958-0.157
											c1.21-2.875-0.551-7.472-3.174-10.98c-1.392-1.862-1.316-1.387-1.863-3.647c-0.455-1.88,0.234-3.842,1.076-5.584
											c1.124-2.323,2.568-4.589,2.122-7.362C243.005,131.222,242.247,130.173,241.171,129.671z"/>
										<path style="fill:#E8BFBF;" d="M237.322,152.675c1.233,1.312,2.936,2.081,4.736,2.138
											c2.388,0.052,2.994-2.226,1.841-4.169c-1.041-1.752-3.537-3.882-5.699-3.036
											C236.038,148.455,235.818,151.04,237.322,152.675z"/>
										<g>
											<path style="fill:#263238;" d="M252.033,143.255c0.276,0.687,0.822,1.05,1.254,0.873
												c0.432-0.177,0.538-0.829,0.299-1.495c-0.24-0.666-0.82-1.043-1.254-0.873
												C251.899,141.929,251.775,142.602,252.033,143.255z"/>
											<path style="fill:#263238;" d="M259.352,140.105c0.269,0.689,0.822,1.05,1.247,0.875
												c0.425-0.175,0.538-0.829,0.299-1.495s-0.82-1.043-1.247-0.875C259.225,138.777,259.086,139.453,259.352,140.105z"/>
											<path style="fill:#263238;" d="M259.463,138.728l1.39-1.088C260.852,137.64,260.552,139.189,259.463,138.728z"/>
											<path style="fill:#ED847E;" d="M257.452,141.574c1.699,1.677,2.978,1.984,4.818,3.136
												c-0.053,1.634-1.591,2.009-1.591,2.009L257.452,141.574z"/>
											<path style="fill:#263238;" d="M259.903,149.921c0.317-0.119,0.624-0.264,0.918-0.434
												c0.096-0.051,0.132-0.171,0.081-0.266c-0.002-0.003-0.004-0.006-0.005-0.01c-0.057-0.095-0.177-0.132-0.278-0.085
												c-1.551,0.901-3.44,1.001-5.077,0.268c-0.102-0.054-0.229-0.016-0.284,0.087c-0.055,0.102-0.016,0.23,0.087,0.284
												C256.781,150.425,258.423,150.481,259.903,149.921z"/>
											<path style="fill:#263238;" d="M251.76,137.81c-0.01,0.187-0.139,0.347-0.32,0.397c-1.918,0.569-2.769,3.003-2.773,3.023
												c-0.076,0.226-0.32,0.348-0.546,0.272c-0.226-0.076-0.348-0.32-0.273-0.546c0.074-0.092,1.003-2.884,3.34-3.582
												c0.228-0.064,0.466,0.065,0.536,0.292C251.748,137.71,251.76,137.76,251.76,137.81z"/>
											<path style="fill:#263238;" d="M260.609,136.633c-0.16,0.098-0.364,0.083-0.508-0.037
												c-1.561-1.252-4.046-0.564-4.064-0.556c-0.229,0.067-0.469-0.065-0.535-0.294c-0.067-0.229,0.065-0.469,0.294-0.535
												c0.118,0.008,2.941-0.82,4.847,0.704c0.183,0.151,0.212,0.42,0.066,0.607
												C260.684,136.566,260.65,136.604,260.609,136.633z"/>
											<path style="fill:#263238;" d="M252.158,141.875l1.391-1.081C253.549,140.794,253.234,142.34,252.158,141.875z"/>
										</g>
									</g>
									<path style="fill:#263238;" d="M241.768,128.361c-2.184,0.175-4.257,1.418-5.442,3.261c-0.795,1.237-1.075,3.117,0.101,4
										c0.55,0.413,1.275,0.488,1.961,0.548c3.044,0.267,6.796-2.084,6.796-2.084c-1.173-4.97,9.254-8.816,14.394-1.117
										c1.51,2.262,1.102,3.905,3.613,4.95c1.182,0.492,2.74,0.356,3.497,1.389c1.256,1.713-1.158,4.614,0.375,6.085
										c1.049,1.006,3.427,0.622,3.573,2.068c0.069,0.68-0.376,1.664,0.278,1.863c0.362,0.11,0.695-0.221,0.929-0.518
										c0.565-0.718,1.147-1.469,1.341-2.361c0.194-0.893-0.124-1.968-0.955-2.346c-0.639-0.291-2.328,0.034-2.213,0.726
										c0.138,0.833-0.577-3.255-0.257-4.8c0.279-1.345,1.564-2.511,1.174-3.829c-0.415-1.406-2.086-1.967-3.535-2.182
										c-1.45-0.215-3.095-0.391-3.986-1.555c-0.995-1.3-0.543-3.157-0.862-4.763c-0.407-2.042-2.11-3.633-4.021-4.461
										C252.732,120.72,243.764,121.077,241.768,128.361z"/>
								</g>
							</g>
							<g>
								<g>
									<g>
										<path style="fill:#407BFF;" d="M258.235,155.044l-19.995,10.045c-6.574,3.302-9.548,11.067-6.862,17.917l9.643,24.593
											c2.686,6.849,10.148,10.53,17.217,8.491l21.502-6.201c8.058-2.323,12.371-11.068,9.31-18.875L277.9,162.577
											C274.839,154.771,265.728,151.28,258.235,155.044z M254.931,197.28c-4.458,1.745-9.49-0.454-11.238-4.911
											c-1.748-4.457,0.451-9.485,4.909-11.23c4.458-1.745,9.488,0.453,11.236,4.91
											C261.586,190.506,259.389,195.535,254.931,197.28z"/>
										<path style="fill:#407BFF;" d="M258.235,155.044l-19.995,10.045c-6.574,3.302-9.548,11.067-6.862,17.917l9.643,24.593
											c2.686,6.849,10.148,10.53,17.217,8.491l21.502-6.201c8.058-2.323,12.371-11.068,9.31-18.875L277.9,162.577
											C274.839,154.771,265.728,151.28,258.235,155.044z M254.931,197.28c-4.458,1.745-9.49-0.454-11.238-4.911
											c-1.748-4.457,0.451-9.485,4.909-11.23c4.458-1.745,9.488,0.453,11.236,4.91
											C261.586,190.506,259.389,195.535,254.931,197.28z"/>
										<path style="opacity:0.1;fill:#FFFFFF;" d="M289.054,191.018l-11.156-28.436c-3.057-7.814-12.169-11.304-19.659-7.539
											l-5.809,2.919l-3.902,1.956l-10.281,5.17c-6.576,3.303-9.554,11.068-6.871,17.919l9.643,24.593
											c2.693,6.851,10.154,10.527,17.221,8.493l21.507-6.202c1.759-0.511,3.342-1.327,4.708-2.379
											c1.062-0.806,1.986-1.75,2.762-2.801C290.037,200.916,290.922,195.795,289.054,191.018z M254.926,197.279
											c-4.453,1.75-9.486-0.452-11.235-4.915c-1.75-4.453,0.452-9.485,4.915-11.225c4.452-1.75,9.485,0.452,11.235,4.905
											C261.581,190.507,259.389,195.53,254.926,197.279z"/>
										<path style="fill:#407BFF;" d="M258.442,156.915l-18.753,9.42c-6.165,3.097-8.954,10.38-6.435,16.805l9.044,23.064
											c2.519,6.424,9.517,9.876,16.148,7.965l20.166-5.816c7.557-2.179,11.603-10.38,8.732-17.702l-10.458-26.671
											C274.015,156.659,265.469,153.384,258.442,156.915z M243.693,192.369c-1.748-4.457,0.451-9.485,4.909-11.23
											c4.458-1.745,9.488,0.453,11.236,4.91c1.748,4.457-0.449,9.486-4.907,11.231
											C250.473,199.025,245.441,196.826,243.693,192.369z"/>
										<path style="opacity:0.1;fill:#407BFF;" d="M258.442,156.915l-18.753,9.42c-6.165,3.097-8.954,10.38-6.435,16.805
											l9.044,23.064c2.519,6.424,9.517,9.876,16.148,7.965l20.166-5.816c7.557-2.179,11.603-10.38,8.732-17.702l-10.458-26.671
											C274.015,156.659,265.469,153.384,258.442,156.915z M243.693,192.369c-1.748-4.457,0.451-9.485,4.909-11.23
											c4.458-1.745,9.488,0.453,11.236,4.91c1.748,4.457-0.449,9.486-4.907,11.231
											C250.473,199.025,245.441,196.826,243.693,192.369z"/>
										<g>
											<path style="fill:#407BFF;" d="M351.618,148.021l-0.573,1.047l-0.318,0.581l-0.905,1.653l0.379,4.231
												c0.016,0.181-0.005,0.36-0.058,0.525c-0.121,0.366-0.399,0.671-0.773,0.818l-7.904,3.094
												c-0.373,0.146-0.783,0.113-1.121-0.076c-0.109-0.06-0.21-0.135-0.3-0.228l-4.467-4.543l-0.012-0.013l-6.354,2.487
												l0.921,2.348l-6.354,2.487l1.516,3.867l-4.678,1.831c-0.383,0.15-0.806,0.124-1.161-0.061
												c-0.117-0.058-0.225-0.136-0.323-0.227l-2.696-2.536l-6.354,2.487l1.516,3.867l-6.681,2.615l1.523,3.883
												c0.249,0.634-0.064,1.35-0.698,1.598l-18.297,7.163l-7.94-20.248l66.185-25.908l1.035,0.531l3.356,1.723
												C351.911,143.956,352.606,146.219,351.618,148.021z"/>
										</g>
										<g style="opacity:0.1;">
											<path style="fill:#FFFFFF;" d="M351.618,148.021l-0.573,1.047l-0.318,0.581l-0.905,1.653l0.379,4.231
												c0.016,0.181-0.005,0.36-0.058,0.525c-0.121,0.366-0.399,0.671-0.773,0.818l-7.904,3.094
												c-0.373,0.146-0.783,0.113-1.121-0.076c-0.109-0.06-0.21-0.135-0.3-0.228l-4.467-4.543l-0.012-0.013l-6.354,2.487
												l0.921,2.348l-6.354,2.487l1.516,3.867l-4.678,1.831c-0.383,0.15-0.806,0.124-1.161-0.061
												c-0.117-0.058-0.225-0.136-0.323-0.227l-2.696-2.536l-6.354,2.487l1.516,3.867l-6.681,2.615l1.523,3.883
												c0.249,0.634-0.064,1.35-0.698,1.598l-18.297,7.163l-7.94-20.248l66.185-25.908l1.035,0.531l3.356,1.723
												C351.911,143.956,352.606,146.219,351.618,148.021z"/>
										</g>
									</g>
									<path style="fill:#407BFF;" d="M351.358,145.716l-70.761,27.699l-2.062-5.197l67.467-26.41l3.356,1.723
										C350.636,144.187,351.37,144.796,351.358,145.716z"/>
									<path style="opacity:0.1;" d="M351.358,145.716l-70.761,27.699l-2.062-5.197l67.467-26.41l3.356,1.723
										C350.636,144.187,351.37,144.796,351.358,145.716z"/>
									<path style="fill:#407BFF;" d="M349.961,149.618l-0.685,1.538c-0.011,0.025-0.016,0.053-0.013,0.08l0.383,4.189
										c0.014,0.153,0.001,0.305-0.035,0.448c-0.012,0.049-0.05,0.088-0.097,0.107l-8.593,3.382
										c-0.046,0.018-0.099,0.016-0.142-0.011c-0.083-0.052-0.162-0.115-0.232-0.187l-4.915-4.938
										c-0.045-0.046-0.113-0.06-0.173-0.036l-6.976,2.746c-0.083,0.033-0.124,0.126-0.091,0.209l0.83,2.105
										c0.033,0.083-0.008,0.176-0.091,0.209l-5.949,2.342c-0.083,0.033-0.123,0.126-0.091,0.209l1.433,3.634
										c0.033,0.083-0.008,0.176-0.091,0.209l-4.365,1.718c-0.044,0.018-0.095,0.016-0.137-0.008
										c-0.092-0.053-0.178-0.117-0.257-0.191l-3.191-2.941c-0.046-0.042-0.111-0.054-0.168-0.031l-6.93,2.728
										c-0.083,0.033-0.124,0.126-0.091,0.209l1.468,3.724c0.033,0.083-0.008,0.176-0.091,0.209l-26.608,10.471
										c-0.083,0.033-0.176-0.008-0.209-0.09l-2.655-6.665c-0.033-0.083,0.008-0.177,0.091-0.21l69.336-27.29
										c0.135-0.053,0.266,0.085,0.206,0.217L349.961,149.618z"/>
									<path style="opacity:0.1;" d="M349.961,149.618l-0.685,1.538c-0.011,0.025-0.016,0.053-0.013,0.08l0.383,4.189
										c0.014,0.153,0.001,0.305-0.035,0.448c-0.012,0.049-0.05,0.088-0.097,0.107l-8.593,3.382
										c-0.046,0.018-0.099,0.016-0.142-0.011c-0.083-0.052-0.162-0.115-0.232-0.187l-4.915-4.938
										c-0.045-0.046-0.113-0.06-0.173-0.036l-6.976,2.746c-0.083,0.033-0.124,0.126-0.091,0.209l0.83,2.105
										c0.033,0.083-0.008,0.176-0.091,0.209l-5.949,2.342c-0.083,0.033-0.123,0.126-0.091,0.209l1.433,3.634
										c0.033,0.083-0.008,0.176-0.091,0.209l-4.365,1.718c-0.044,0.018-0.095,0.016-0.137-0.008
										c-0.092-0.053-0.178-0.117-0.257-0.191l-3.191-2.941c-0.046-0.042-0.111-0.054-0.168-0.031l-6.93,2.728
										c-0.083,0.033-0.124,0.126-0.091,0.209l1.468,3.724c0.033,0.083-0.008,0.176-0.091,0.209l-26.608,10.471
										c-0.083,0.033-0.176-0.008-0.209-0.09l-2.655-6.665c-0.033-0.083,0.008-0.177,0.091-0.21l69.336-27.29
										c0.135-0.053,0.266,0.085,0.206,0.217L349.961,149.618z"/>
									<line style="opacity:0.1;fill:#407BFF;" x1="310.673" y1="171.268" x2="284.065" y2="181.739"/>
								</g>
								<path style="opacity:0.3;fill:#FFFFFF;" d="M248.073,178.976c-5.592,2.189-8.349,8.496-6.157,14.088
									c2.193,5.592,8.504,8.349,14.096,6.16c5.593-2.189,8.349-8.496,6.157-14.088
									C259.976,179.544,253.666,176.787,248.073,178.976z M254.931,197.28c-4.458,1.745-9.49-0.454-11.238-4.911
									c-1.748-4.457,0.451-9.485,4.909-11.23c4.458-1.745,9.488,0.453,11.236,4.91
									C261.586,190.506,259.389,195.535,254.931,197.28z"/>
							</g>
							<g>
								<path style="opacity:0.1;fill:#FFFFFF;" d="M287.213,204.701c-0.777,1.052-1.701,1.995-2.762,2.801l-35.926-47.594
									l-0.029-0.039c0,0,3.165-1.592,3.882-2.064c0,0.039,0.02,0.089,0.049,0.147
									C253.999,161.323,282.239,197.987,287.213,204.701z"/>
								<path style="opacity:0.1;fill:#FFFFFF;" d="M282.023,209.006c-0.226,0.108-10.694,3.293-10.694,3.293l-11.667-15.452
									c3.017-2.959,4.148-7.539,2.506-11.717c-2.192-5.593-8.502-8.355-14.095-6.163c-0.492,0.187-0.954,0.413-1.396,0.668
									l-10.321-13.673c0,0,9.073-4.325,10.075-4.954C246.696,162.926,282.023,208.603,282.023,209.006z"/>
							</g>
						</g>
					</g>
					<path style="fill:#263238;" d="M239.188,133.941c-1.169,1.39-1.646,3.336-1.252,5.109c0.394,1.773,1.648,3.334,3.296,4.1
						c0.854,0.397,1.794,0.587,2.638,1.003c0.845,0.416,1.628,1.149,1.718,2.086c0.099,1.035-0.664,2.002-0.592,3.039
						c0.066,0.95,0.809,1.704,1.559,2.291c0.75,0.587,1.588,1.141,2.001,1.999c0.413,0.858,0.145,2.129-0.774,2.379
						c-0.194,0.297-0.268,1.005-0.021,1.26c0.247,0.254,0.675,0.308,0.977,0.122c1.411-0.868,2.38-2.505,2.391-4.162
						c0.011-1.657-1.029-3.274-2.541-3.952c-0.272-0.551-0.061-1.25,0.167-1.821c0.458-1.145,0.915-2.29,1.373-3.435
						c0.18-0.45,0.02-1.269-0.287-1.643c-0.307-0.374-0.77-0.578-1.215-0.769l-2.948-1.264c-1.113-0.477-4.415-4.903-0.495-6.195
						c-0.512-1.137-1.397-1.494-2.624-1.718S239.991,132.986,239.188,133.941z"/>
				</g>
				<g>
					<path style="fill:#263238;" d="M244.538,129.18c-0.098,1.164-0.196,2.327-0.294,3.491c0.977-1.604,2.787-4.713,2.725-4.592
						C246.201,128.496,245.307,128.762,244.538,129.18z"/>
				</g>
				<g>
					<path style="fill:#263238;" d="M245.861,131.092c1.366-1.263,2.731-2.526,4.097-3.788c-1.054-0.395-2.33-0.101-3.105,0.716
						C246.876,127.934,246.244,129.874,245.861,131.092z"/>
				</g>
			</g>
			<path style="fill:#263238;" d="M237.533,225.7c-5.334,6.618-3.559,11.694-10.92,23.411c9.284,6.882,19.463,8.022,32.117,7.039
				c1.495-2.649,2.251-5.414,3.747-8.064c2.145,2.661,3.867,4.898,6.011,7.559c6.63-1.039,14.507-2.902,19.75-6.281
				c-4.63-5.31-7.505-11.943-10.47-17.798c-1.39-2.745-0.808-3.901-4.496-7.501c-11.748,0.542-23.399,0.829-35.147,1.371
				C238.436,225.453,237.223,225.684,237.533,225.7z"/>
			<g>
				<g>
					<path style="fill:#407BFF;" d="M238.995,224.594l-0.736,3.089c-0.107,0.243,0.18,0.473,0.575,0.451l32.383-1.433
						c0.31,0.005,0.557-0.179,0.57-0.367l0.172-3.07c0.003-0.206-0.266-0.38-0.605-0.357l-31.818,1.405
						C239.318,224.302,239.112,224.41,238.995,224.594z"/>
					<path style="fill:#407BFF;" d="M238.995,224.594l-0.736,3.089c-0.107,0.243,0.18,0.473,0.575,0.451l32.383-1.433
						c0.31,0.005,0.557-0.179,0.57-0.367l0.172-3.07c0.003-0.206-0.266-0.38-0.605-0.357l-31.818,1.405
						C239.318,224.302,239.112,224.41,238.995,224.594z"/>
				</g>
				<g>
					<path style="fill:#263238;" d="M246.127,228.138l-0.94,0.041c-0.179-0.003-0.328-0.08-0.316-0.193l0.253-3.99
						c0.002-0.113,0.163-0.214,0.351-0.22l0.941-0.051c0.179,0.003,0.328,0.081,0.316,0.203l-0.253,3.98
						C246.468,228.021,246.306,228.132,246.127,228.138z"/>
					<path style="fill:#263238;" d="M269.508,227.13l-0.94,0.041c-0.179-0.003-0.328-0.081-0.316-0.193l0.253-3.981
						c0.002-0.122,0.163-0.223,0.342-0.229l0.94-0.041c0.179,0.003,0.328,0.081,0.316,0.193l-0.253,3.98
						C269.848,227.023,269.696,227.124,269.508,227.13z"/>
				</g>
			</g>
		</g>
		<g>
			<g>
				<g>
					<path style="fill:#E8BFBF;" d="M250.309,208.719c0.061,0.295,2.576,4.296,4.547,4.019c0.016-0.002,0.033-0.005,0.049-0.007
						c0.575-0.081,1.148,0.152,1.502,0.612c0.792,1.031,1.27,1.622,1.805,2.299c0.868,1.099,2.375,1.451,3.645,0.861
						c0.376-0.175,0.748-0.367,1.118-0.563c1.221-0.648,1.844-2.047,1.512-3.389c-0.364-1.471-0.93-2.892-1.682-4.207
						c-0.257-0.45-0.552-0.904-0.999-1.164c-0.447-0.261-4.786-1.572-6.471-1.519C253.58,205.716,251.915,208.013,250.309,208.719z"
						/>
				</g>
				<g>
					<path style="fill:#E8BFBF;" d="M255.378,205.529c0,0-26.582-8.049-32.316-2.69c-3.371,3.151-1.779,6.126,0.105,8.044
						c1.402,1.427,4.456,1.076,6.454,0.983l20.939-2.054L255.378,205.529z"/>
				</g>
			</g>
			<path style="fill:#263238;" d="M240.103,201.852c-0.144-1.439-1.258-2.634-2.552-3.279c-1.294-0.645-2.76-0.836-4.194-1.018
				c-3.34-0.423-6.68-0.847-10.02-1.27c-1.696,2.145-2.916,5.091-2.863,7.825c0.053,2.734,1.082,5.439,2.859,7.517
				c1.598-3.09,3.706-6.271,6.827-7.806C233.282,202.287,236.68,201.232,240.103,201.852z"/>
		</g>
	</g>
	<path style="opacity:0.1;fill:#FFFFFF;" d="M233.25,153.3c-0.03-0.06-0.03-0.09,0-0.1C233.46,153.14,233.43,153.18,233.25,153.3z"
		/>
</g>
<g id="Speech_Bubble">
	<g>
		<path style="fill:#407BFF;" d="M299.289,110.264l7.406,13.732l30.218-25.66c0.266-0.226-0.042-0.635-0.333-0.443l-28.328,18.698
			l-4.367-8.517L299.289,110.264z"/>
		<path style="fill:none;stroke:#407BFF;stroke-width:1.3;stroke-miterlimit:10;" d="M346.965,110.328
			c0,12.238-12.847,22.155-28.692,22.155c-6.084,0-11.717-1.455-16.356-3.961l-16.846,7.323l10.634-11.845
			c-3.833-3.755-6.124-8.502-6.124-13.673c0-12.238,12.847-22.155,28.692-22.155C334.118,88.173,346.965,98.091,346.965,110.328z"/>
	</g>
</g>
</svg>
