<svg width="566" height="555" viewBox="0 0 566 555" fill="none" xmlns="http://www.w3.org/2000/svg">
<path d="M565.088 373.211H348.304V247.762H565.088V373.211ZM349.626 371.888H563.765V249.085H349.626V371.888Z" fill="#E0E0E0"/>
<path d="M520.366 314.653H377.338V318.846H520.366V314.653Z" fill="#F0F0F0"/>
<path d="M530.22 330.288H377.338V334.865H530.22V330.288Z" fill="#F0F0F0"/>
<path d="M530.22 346.108H377.338V350.685H530.22V346.108Z" fill="#F0F0F0"/>
<path d="M427.324 291.942H377.338V302.828H427.324V291.942Z" fill="#F0F0F0"/>
<path d="M564.426 248.424H349.005V268.397H564.426V248.424Z" fill="#E0E0E0"/>
<path d="M547.852 265.408C547.574 265.143 550.352 261.797 554.043 257.934C557.733 254.072 560.974 251.149 561.238 251.4C561.503 251.651 558.738 255.011 555.048 258.887C551.357 262.762 548.117 265.672 547.852 265.408Z" fill="white"/>
<path d="M561.265 265.408C561 265.672 557.773 262.762 554.069 258.887C550.365 255.011 547.601 251.664 547.879 251.4C548.156 251.135 551.371 254.045 555.074 257.934C558.778 261.823 561.516 265.143 561.265 265.408Z" fill="white"/>
<path d="M298.331 0H82.9092V124.139H298.331V0Z" fill="#E6E6E6"/>
<path d="M254.284 66.2428H111.256V70.4359H254.284V66.2428Z" fill="#F0F0F0"/>
<path d="M264.138 81.8776H111.256V86.4543H264.138V81.8776Z" fill="#F0F0F0"/>
<path d="M264.138 97.6976H111.256V102.274H264.138V97.6976Z" fill="#F0F0F0"/>
<path d="M161.242 43.5314H111.256V54.4175H161.242V43.5314Z" fill="#F0F0F0"/>
<path d="M298.331 0H82.9092V19.9734H298.331V0Z" fill="#E0E0E0"/>
<path d="M281.029 16.8914C280.751 16.6401 283.529 13.2803 287.219 9.4179C290.91 5.5555 294.151 2.63225 294.415 2.8968C294.68 3.16135 291.915 6.50788 288.225 10.3703C284.534 14.2327 281.293 17.1295 281.029 16.8914Z" fill="white"/>
<path d="M294.415 16.8914C294.151 17.1559 290.923 14.2459 287.219 10.3703C283.516 6.49465 280.751 3.16135 281.029 2.89681C281.307 2.63226 284.521 5.54228 288.225 9.41791C291.928 13.2935 294.693 16.6401 294.415 16.8914Z" fill="white"/>
<path d="M216.744 230.606H0V105.145H216.744V230.606ZM1.32274 229.284H215.421V106.467H1.32274V229.284Z" fill="#E0E0E0"/>
<path d="M172.036 172.049H29.0078V176.242H172.036V172.049Z" fill="#F0F0F0"/>
<path d="M181.89 187.684H29.0078V192.26H181.89V187.684Z" fill="#F0F0F0"/>
<path d="M181.89 203.503H29.0078V208.08H181.89V203.503Z" fill="#F0F0F0"/>
<path d="M78.9941 149.337H29.0078V160.223H78.9941V149.337Z" fill="#F0F0F0"/>
<path d="M216.083 105.806H0.661133V125.779H216.083V105.806Z" fill="#E0E0E0"/>
<path d="M466.887 259.35H212.524V487.072H466.887V259.35Z" fill="#E6E6E6"/>
<path d="M225.315 187.617H26.0576V394.639H225.315V187.617Z" fill="#F0F0F0"/>
<path d="M225.315 187.617H26.0576V210.17H225.315V187.617Z" fill="#E0E0E0"/>
<path d="M42.5128 198.662C42.4766 199.48 42.2009 200.269 41.7202 200.932C41.2394 201.594 40.5746 202.101 39.8084 202.389C39.0421 202.678 38.2081 202.734 37.4099 202.553C36.6117 202.371 35.8843 201.959 35.3181 201.368C34.752 200.777 34.3719 200.032 34.225 199.227C34.0782 198.421 34.1711 197.591 34.4922 196.838C34.8132 196.085 35.3484 195.442 36.0312 194.991C36.714 194.539 37.5143 194.298 38.333 194.297C39.465 194.325 40.5401 194.8 41.3233 195.618C42.1065 196.435 42.5341 197.53 42.5128 198.662Z" fill="white"/>
<path d="M59.4832 198.662C59.4495 199.484 59.1749 200.278 58.6935 200.944C58.2122 201.611 57.5454 202.122 56.7761 202.413C56.0068 202.703 55.169 202.761 54.3669 202.58C53.5649 202.398 52.834 201.984 52.2652 201.39C51.6964 200.796 51.3148 200.048 51.168 199.239C51.0211 198.43 51.1155 197.595 51.4393 196.839C51.7631 196.083 52.3021 195.439 52.9891 194.987C53.6762 194.535 54.481 194.295 55.3034 194.297C56.4354 194.325 57.5105 194.8 58.2937 195.618C59.0769 196.435 59.5045 197.53 59.4832 198.662Z" fill="white"/>
<path d="M76.4539 198.662C76.4202 199.484 76.1456 200.278 75.6642 200.944C75.1829 201.611 74.5161 202.122 73.7468 202.413C72.9775 202.703 72.1397 202.761 71.3376 202.58C70.5356 202.398 69.8047 201.984 69.2359 201.39C68.6671 200.796 68.2855 200.048 68.1387 199.239C67.9918 198.43 68.0862 197.595 68.41 196.839C68.7338 196.083 69.2728 195.439 69.9598 194.987C70.6469 194.535 71.4517 194.295 72.2741 194.297C73.4061 194.325 74.4812 194.8 75.2644 195.618C76.0476 196.435 76.4752 197.53 76.4539 198.662Z" fill="white"/>
<path d="M536.635 45.2774H282.272V298.794H536.635V45.2774Z" fill="#333333"/>
<path d="M536.635 45.2774H282.272V74.9729H536.635V45.2774Z" fill="#E0E0E0"/>
<path d="M303.939 59.8275C303.892 60.9071 303.529 61.9492 302.896 62.8244C302.262 63.6996 301.385 64.3694 300.374 64.7506C299.363 65.1318 298.262 65.2076 297.208 64.9687C296.154 64.7297 295.194 64.1865 294.446 63.4064C293.698 62.6264 293.196 61.6439 293.002 60.5809C292.808 59.518 292.93 58.4214 293.354 57.4273C293.777 56.4332 294.483 55.5854 295.385 54.9892C296.286 54.393 297.342 54.0746 298.423 54.0736C299.916 54.1083 301.335 54.7332 302.369 55.8116C303.403 56.89 303.967 58.334 303.939 59.8275Z" fill="white"/>
<path d="M324.666 55.9387C325.399 56.735 325.882 57.7295 326.054 58.7983C326.226 59.8671 326.08 60.9629 325.634 61.9491C325.188 62.9354 324.461 63.7685 323.544 64.3447C322.628 64.9208 321.562 65.2146 320.48 65.1894C319.398 65.1641 318.347 64.821 317.458 64.2027C316.57 63.5844 315.883 62.7182 315.483 61.7122C315.083 60.7062 314.988 59.6048 315.21 58.5452C315.431 57.4857 315.96 56.5147 316.73 55.7535C317.808 54.7276 319.249 54.1711 320.736 54.2058C322.224 54.2405 323.637 54.8636 324.666 55.9387Z" fill="white"/>
<path d="M348.621 59.8275C348.575 60.9071 348.212 61.9492 347.578 62.8244C346.944 63.6996 346.068 64.3694 345.056 64.7506C344.045 65.1318 342.945 65.2076 341.891 64.9687C340.837 64.7297 339.877 64.1865 339.129 63.4064C338.381 62.6264 337.879 61.6439 337.685 60.5809C337.49 59.518 337.613 58.4214 338.036 57.4273C338.46 56.4332 339.166 55.5854 340.067 54.9892C340.968 54.393 342.025 54.0746 343.105 54.0736C344.599 54.1083 346.018 54.7332 347.051 55.8116C348.085 56.89 348.65 58.334 348.621 59.8275Z" fill="white"/>
<path d="M481.689 554.334C481.689 554.519 389.838 554.678 276.572 554.678C163.306 554.678 71.415 554.519 71.415 554.334C71.415 554.149 163.253 553.99 276.572 553.99C389.891 553.99 481.689 554.162 481.689 554.334Z" fill="#263238"/>
<path d="M392.193 392.404C371.756 378.132 367.127 351.637 367.934 327.815C368.066 323.846 367.629 319.64 369.521 316.161C371.412 312.682 375.83 310.288 379.389 311.955C382.338 313.344 383.621 316.783 385.275 319.627C387.481 323.415 390.714 326.501 394.6 328.529C397.127 329.852 400.261 330.645 402.761 329.27C406.201 327.378 406.597 322.656 406.571 318.688C406.571 311.307 406.527 303.935 406.439 296.571C406.201 292.618 406.603 288.651 407.629 284.826C408.859 281.069 411.597 277.59 415.341 276.532C419.084 275.474 423.753 277.656 424.6 281.519C424.746 283.155 424.785 284.798 424.719 286.439C424.825 288.093 425.592 289.905 427.139 290.408C428.687 290.91 430.301 289.759 431.491 288.595C435.565 284.627 438.343 279.455 440.922 274.349C443.502 269.244 446.028 263.992 449.732 259.641C453.436 255.289 458.555 251.836 464.282 251.506C470.009 251.175 475.975 254.694 477.404 260.249C478.832 265.805 475.591 271.479 472.113 275.99C466.863 282.685 460.675 288.588 453.74 293.516C452.386 294.255 451.306 295.41 450.658 296.81C449.798 299.455 452.298 302.101 454.904 302.934C457.853 303.913 461.055 303.608 464.163 303.979C467.271 304.349 470.578 305.698 471.755 308.608C473.369 312.656 469.983 316.889 466.663 319.666C459.996 325.222 452.426 329.593 444.282 332.59C441.372 333.648 438.317 334.587 435.962 336.624C433.608 338.661 432.206 342.219 433.621 345.01C435.036 347.801 438.674 348.687 441.729 348.119C444.785 347.55 447.496 345.91 450.406 344.812C455.843 342.762 462.853 343.132 466.279 347.828C467.341 349.445 468.012 351.287 468.242 353.208C468.472 355.129 468.252 357.077 467.602 358.899C466.278 362.525 464.241 365.849 461.61 368.674C452.947 379.025 441.69 386.89 428.991 391.465C416.386 395.83 404.706 397.02 392.179 392.43" fill="#17A1FA"/>
<path d="M471.583 254.773C471.583 254.773 471.464 254.905 471.2 255.143L470.022 256.188C468.991 257.114 467.47 258.463 465.552 260.249C460.114 265.298 455.064 270.75 450.446 276.558C447.496 280.222 444.441 284.376 441.187 288.886C437.933 293.397 434.573 298.265 431.24 303.436C427.686 308.89 424.432 314.534 421.491 320.341C419.957 323.37 418.607 326.532 417.219 329.759L413.118 339.613C407.713 352.026 403.006 364.731 399.018 377.669C395.805 388.254 393.591 399.117 392.404 410.115C391.635 417.538 391.511 425.013 392.034 432.456C392.245 435.102 392.444 437.126 392.629 438.501C392.708 439.163 392.761 439.692 392.814 440.075V440.618C392.757 440.446 392.717 440.269 392.695 440.089C392.629 439.705 392.55 439.189 392.444 438.528C392.206 437.205 391.954 435.115 391.716 432.47C391.078 425.012 391.122 417.512 391.848 410.063C392.962 399.017 395.128 388.104 398.317 377.47C402.271 364.496 406.966 351.759 412.377 339.322L416.584 329.508C417.973 326.293 419.335 323.106 420.883 320.063C423.844 314.238 427.125 308.582 430.711 303.119C434.097 297.828 437.509 293.04 440.724 288.569C443.938 284.098 447.046 279.918 449.983 276.267C454.648 270.474 459.765 265.061 465.287 260.077C467.245 258.318 468.805 256.995 469.864 256.109L471.094 255.117C471.245 254.985 471.409 254.87 471.583 254.773Z" fill="#263238"/>
<path d="M421.055 320.037C420.869 319.492 420.74 318.929 420.672 318.357C420.46 317.259 420.222 315.711 419.944 313.701C419.375 309.733 418.793 304.296 418.172 298.278C417.55 292.259 416.849 286.81 416.267 282.881C415.963 280.923 415.698 279.349 415.513 278.252C415.368 277.69 415.293 277.112 415.288 276.532C415.516 277.062 415.68 277.617 415.777 278.185C416.068 279.27 416.399 280.831 416.77 282.802C417.524 286.77 418.264 292.167 418.886 298.198C419.508 304.23 420.037 309.521 420.447 313.635C420.645 315.487 420.817 317.061 420.949 318.317C421.052 318.884 421.088 319.462 421.055 320.037Z" fill="#263238"/>
<path d="M471.954 310.54C471.31 310.68 470.655 310.759 469.996 310.778C468.674 310.897 466.795 311.055 464.467 311.32C459.811 311.823 453.409 312.749 446.385 314.071C439.362 315.394 433.052 316.889 428.515 318.04C426.253 318.622 424.428 319.151 423.224 319.508C422.582 319.736 421.917 319.896 421.24 319.984C421.852 319.677 422.489 319.424 423.145 319.23C424.388 318.794 426.187 318.185 428.436 317.537C432.946 316.214 439.256 314.64 446.306 313.291C452.278 312.149 458.304 311.31 464.362 310.778C466.703 310.579 468.594 310.5 469.917 310.473C470.597 310.427 471.279 310.449 471.954 310.54Z" fill="#263238"/>
<path d="M398.965 376.544C398.824 376.353 398.708 376.144 398.621 375.923L397.748 374.084C396.994 372.483 395.976 370.116 394.759 367.219C392.299 361.399 389.164 353.251 385.83 344.203C382.497 335.156 379.428 327.008 377.1 321.122C375.963 318.264 375.024 315.923 374.322 314.177L373.582 312.286C373.479 312.067 373.408 311.836 373.37 311.598C373.511 311.789 373.627 311.998 373.714 312.219L374.587 314.058C375.328 315.659 376.359 318.026 377.576 320.923C380.037 326.743 383.172 334.891 386.505 343.939C389.838 352.986 392.907 361.134 395.235 367.021C396.373 369.878 397.312 372.219 398 373.965C398.304 374.719 398.555 375.288 398.753 375.856C398.856 376.075 398.927 376.306 398.965 376.544Z" fill="#263238"/>
<path d="M466.531 354.759C466.319 354.88 466.092 354.974 465.856 355.037L463.899 355.698L456.663 358.039C450.552 360.023 442.113 362.854 432.854 365.976C423.595 369.097 415.116 371.875 408.965 373.727C405.897 374.666 403.397 375.38 401.664 375.856L399.666 376.372C399.434 376.446 399.195 376.495 398.952 376.518C399.164 376.396 399.391 376.303 399.627 376.24L401.584 375.579L408.82 373.237C414.931 371.253 423.37 368.423 432.629 365.301C441.888 362.179 450.354 359.402 456.505 357.55C459.587 356.611 462.073 355.896 463.819 355.42L465.817 354.904C466.049 354.83 466.288 354.782 466.531 354.759Z" fill="#263238"/>
<path d="M438.964 33.9018L432.152 36.3357L429.229 27.4336C423.859 11.0184 406.742 2.30156 391.015 7.84384C375.288 13.3861 366.915 31.3886 372.285 47.8038L375.208 56.7058L368.37 59.1529C365.762 60.1644 363.644 62.1418 362.457 64.6742C361.27 67.2066 361.104 70.0992 361.994 72.7507L380.949 130.673C381.342 131.986 381.996 133.206 382.87 134.261C383.744 135.316 384.822 136.185 386.038 136.816C387.255 137.446 388.586 137.826 389.952 137.932C391.318 138.038 392.692 137.868 393.991 137.433L464.586 112.182C467.228 111.172 469.376 109.177 470.577 106.616C471.778 104.056 471.94 101.129 471.028 98.4515L452.059 40.5287C451.656 39.2198 450.993 38.0056 450.109 36.9587C449.226 35.9117 448.141 35.0533 446.919 34.4348C445.697 33.8163 444.363 33.4504 442.996 33.3588C441.629 33.2672 440.258 33.4519 438.964 33.9018ZM385.155 43.161C383.707 38.8928 383.967 34.2298 385.881 30.149C387.794 26.0682 391.213 22.8862 395.42 21.2697C397.497 20.5589 399.697 20.2738 401.887 20.4315C404.077 20.5893 406.213 21.1866 408.167 22.1877C410.121 23.1889 411.854 24.5735 413.261 26.2588C414.668 27.9441 415.722 29.8957 416.359 31.9971L419.269 40.8991L388.065 52.063L385.155 43.161ZM424.837 94.5627L429.679 109.351C429.768 109.647 429.739 109.967 429.599 110.243C429.458 110.519 429.217 110.73 428.925 110.832L422.139 113.253C421.869 113.328 421.581 113.295 421.334 113.162C421.087 113.029 420.902 112.806 420.816 112.539L415.935 97.8166C413.244 97.67 410.662 96.7046 408.534 95.0499C406.407 93.3951 404.835 91.1299 404.031 88.5574C402.88 85.1566 403.09 81.4425 404.616 78.1929C406.143 74.9433 408.867 72.4101 412.219 71.1237C413.874 70.5583 415.625 70.3318 417.37 70.4578C419.114 70.5838 420.815 71.0597 422.372 71.857C423.928 72.6544 425.308 73.757 426.429 75.099C427.551 76.4411 428.39 77.9952 428.898 79.6686C429.749 82.2817 429.82 85.0864 429.101 87.7389C428.382 90.3914 426.905 92.7766 424.851 94.6023L424.837 94.5627Z" fill="#17A1FA"/>
<path d="M431.849 36.1769C431.849 36.3621 419.216 41.1108 403.502 46.7589C387.788 52.4069 374.971 56.9439 374.905 56.8117C374.838 56.6794 387.537 51.8911 403.264 46.2298C418.991 40.5684 431.782 36.005 431.849 36.1769Z" fill="#263238"/>
<path d="M446.848 38.6108C446.906 38.7256 446.955 38.845 446.993 38.9679C447.099 39.2325 447.218 39.5764 447.377 39.9997C447.721 40.9653 448.197 42.3012 448.792 43.9679L453.871 58.7561C455.988 65.0259 458.514 72.4597 461.318 80.7136C462.641 84.8537 464.202 89.1659 465.657 93.7029C466.436 96.0409 466.772 98.5035 466.649 100.965C466.537 102.245 466.173 103.49 465.578 104.629C464.942 105.764 464.093 106.765 463.078 107.578C461.034 109.07 458.766 110.227 456.358 111.004L449.546 113.451L436.649 118.068L414.811 125.845L400.062 131.031L396.094 132.353L395.036 132.697C394.923 132.748 394.802 132.779 394.679 132.79C394.679 132.79 394.785 132.79 395.009 132.631L396.041 132.221L400.009 130.726L414.679 125.33L436.477 117.393L449.348 112.737L456.16 110.277C458.499 109.531 460.701 108.409 462.681 106.957C463.626 106.202 464.416 105.273 465.009 104.219C465.569 103.165 465.907 102.008 466.001 100.819C466.123 98.4478 465.8 96.0745 465.048 93.8219C463.62 89.3246 462.112 84.9728 460.75 80.8326C457.998 72.5655 455.459 65.1052 453.448 58.8355C451.437 52.5657 449.744 47.526 448.58 43.9811C448.025 42.2483 447.602 40.8991 447.258 39.9203L446.94 38.8621C446.9 38.7819 446.869 38.6977 446.848 38.6108Z" fill="#263238"/>
<path d="M409.6 20.3702C409.6 20.3702 408.899 20.0263 407.603 19.4972C405.755 18.7872 403.801 18.3937 401.822 18.3332C398.89 18.2326 395.971 18.7838 393.277 19.9469C390.001 21.3953 387.2 23.738 385.195 26.7061C383.177 29.6658 382.094 33.1634 382.087 36.7457C382.115 39.6818 382.56 42.5991 383.41 45.4096C384.098 47.817 384.812 49.735 385.288 51.071C385.569 51.7496 385.799 52.4481 385.976 53.1609C385.6 52.5264 385.286 51.8577 385.037 51.1636C384.494 49.8408 383.714 47.9625 382.947 45.5419C382.005 42.7018 381.492 39.7371 381.426 36.7457C381.39 33.028 382.499 29.3894 384.6 26.3225C386.675 23.246 389.591 20.8308 393 19.3649C395.778 18.1954 398.787 17.6795 401.796 17.857C403.817 17.96 405.803 18.4307 407.656 19.2459C408.151 19.4744 408.628 19.7397 409.084 20.0395C409.272 20.1222 409.446 20.2337 409.6 20.3702Z" fill="#263238"/>
<path d="M410.208 72.129C410.419 72.0011 410.64 71.8905 410.869 71.7983C411.532 71.4995 412.217 71.2562 412.92 71.0708C414.035 70.7417 415.185 70.5464 416.346 70.4888C417.925 70.4039 419.505 70.6425 420.988 71.1899C424.375 72.3803 427.483 75.8327 429.017 80.449C429.753 82.9264 429.753 85.5642 429.017 88.0416C428.201 90.7304 426.739 93.1783 424.758 95.1711L424.838 94.814C426.597 99.642 428.515 104.88 430.499 110.343L430.618 110.674L430.287 110.793L427.258 111.798L420.644 114.007L420.314 114.113L420.208 113.782C418.396 108.306 416.412 103.2 414.917 98.187L415.208 98.4118C412.622 98.197 410.157 97.2264 408.118 95.6208C406.274 94.2004 404.762 92.3948 403.687 90.3299C402.717 88.4987 402.234 86.449 402.285 84.3776C402.346 82.2604 402.875 80.1831 403.833 78.2942C404.791 76.4053 406.155 74.7517 407.827 73.4517C408.515 72.893 409.288 72.4466 410.115 72.129C409.368 72.5723 408.644 73.0535 407.946 73.5708C406.109 75.1248 404.702 77.1242 403.859 79.3776C403.135 81.0769 402.797 82.9152 402.868 84.7608C402.939 86.6064 403.417 88.4134 404.269 90.0521C405.326 92.0386 406.802 93.7717 408.594 95.1314C410.539 96.6576 412.89 97.5776 415.354 97.7769H415.578L415.645 97.9753C417.1 102.896 419.097 108.041 420.935 113.544L420.499 113.332L427.113 111.123L430.128 110.105L429.917 110.555C427.946 105.092 426.041 99.8404 424.295 95.0124V94.814L424.454 94.6553C426.377 92.7451 427.811 90.3992 428.634 87.8167C429.335 85.4469 429.335 82.9246 428.634 80.5548C427.192 76.1104 424.216 72.7375 420.988 71.547C419.56 70.9961 418.035 70.7396 416.504 70.793C415.362 70.8192 414.226 70.9745 413.118 71.256C411.147 71.7454 410.221 72.1951 410.208 72.129Z" fill="#263238"/>
<path d="M369.322 454.057L237.193 453.448C229.563 453.406 222.261 450.338 216.892 444.916C211.522 439.495 208.524 432.164 208.556 424.533L209.958 93.306C209.974 89.5257 210.734 85.7855 212.196 82.2993C213.658 78.813 215.793 75.6491 218.478 72.9883C221.163 70.3275 224.347 68.222 227.846 66.7922C231.346 65.3624 235.093 64.6364 238.873 64.6555L370.988 65.264C378.619 65.3025 385.922 68.3679 391.294 73.7869C396.666 79.2059 399.667 86.5355 399.639 94.1658L398.237 425.38C398.221 429.161 397.461 432.903 395.999 436.391C394.538 439.878 392.404 443.044 389.718 445.707C387.033 448.37 383.85 450.478 380.351 451.91C376.851 453.343 373.103 454.073 369.322 454.057Z" fill="#455A64"/>
<path d="M370.79 76.6528H345.181C344.346 76.6683 343.521 76.8482 342.755 77.1823C341.989 77.5165 341.297 77.9982 340.717 78.6001C340.137 79.202 339.682 79.9122 339.376 80.6902C339.071 81.4682 338.922 82.2986 338.938 83.1342V87.777C338.954 88.6119 338.805 89.4418 338.499 90.219C338.194 90.9962 337.738 91.7055 337.158 92.3063C336.578 92.9072 335.885 93.3877 335.12 93.7204C334.354 94.0531 333.53 94.2314 332.695 94.2452L282.774 94.0203C281.086 93.9753 279.484 93.2619 278.321 92.0367C277.158 90.8116 276.528 89.1748 276.571 87.486V82.8432C276.614 81.1566 275.986 79.5218 274.826 78.297C273.665 77.0723 272.067 76.3573 270.38 76.3089H261.373L238.952 76.203C233.619 76.1713 228.491 78.2539 224.691 81.995C220.89 85.736 218.727 90.8306 218.675 96.1632L217.352 419.467C217.34 422.113 217.849 424.735 218.85 427.184C219.851 429.632 221.325 431.86 223.187 433.739C225.049 435.619 227.263 437.113 229.702 438.136C232.142 439.16 234.759 439.693 237.405 439.705L369.255 440.314C371.902 440.326 374.526 439.816 376.977 438.815C379.427 437.813 381.656 436.338 383.537 434.475C385.417 432.611 386.912 430.396 387.936 427.955C388.961 425.514 389.494 422.895 389.506 420.248L390.829 96.9436C390.861 91.596 388.768 86.4546 385.01 82.6497C381.252 78.8448 376.137 76.6877 370.79 76.6528Z" fill="white"/>
<path d="M353.052 397.179L255.01 396.756C253.992 396.756 253.172 395.645 253.185 394.296L253.291 368.648C253.291 367.325 254.124 366.187 255.142 366.187L353.184 366.637C353.748 366.735 354.253 367.046 354.593 367.507C354.933 367.968 355.082 368.542 355.009 369.111L354.917 394.732C354.917 396.094 354.07 397.192 353.052 397.179Z" fill="#17A1FA"/>
<path d="M285.574 377.372C285.54 377.08 285.399 376.853 285.153 376.691C284.906 376.529 284.604 376.448 284.246 376.448C283.984 376.448 283.755 376.491 283.559 376.575C283.364 376.66 283.212 376.777 283.102 376.925C282.995 377.073 282.941 377.241 282.941 377.43C282.941 377.588 282.978 377.724 283.053 377.837C283.13 377.949 283.229 378.042 283.348 378.117C283.467 378.19 283.592 378.251 283.723 378.299C283.854 378.345 283.974 378.383 284.084 378.412L284.685 378.574C284.839 378.614 285.01 378.67 285.199 378.741C285.389 378.812 285.571 378.909 285.745 379.033C285.92 379.154 286.064 379.31 286.178 379.5C286.291 379.691 286.348 379.925 286.348 380.202C286.348 380.522 286.264 380.81 286.097 381.068C285.931 381.326 285.689 381.531 285.369 381.683C285.052 381.835 284.666 381.912 284.211 381.912C283.788 381.912 283.421 381.843 283.111 381.707C282.803 381.57 282.561 381.379 282.383 381.135C282.208 380.89 282.109 380.606 282.086 380.283H282.825C282.844 380.506 282.92 380.691 283.05 380.837C283.183 380.982 283.351 381.09 283.553 381.161C283.757 381.23 283.976 381.265 284.211 381.265C284.485 381.265 284.73 381.22 284.948 381.132C285.165 381.041 285.337 380.916 285.464 380.757C285.591 380.595 285.655 380.406 285.655 380.191C285.655 379.994 285.6 379.834 285.49 379.711C285.381 379.588 285.236 379.488 285.057 379.411C284.878 379.334 284.685 379.267 284.477 379.209L283.749 379.001C283.287 378.868 282.921 378.678 282.652 378.432C282.382 378.186 282.248 377.863 282.248 377.465C282.248 377.134 282.337 376.845 282.516 376.598C282.697 376.35 282.94 376.158 283.244 376.021C283.55 375.882 283.892 375.813 284.269 375.813C284.65 375.813 284.989 375.881 285.285 376.018C285.582 376.153 285.817 376.338 285.99 376.572C286.165 376.807 286.258 377.074 286.267 377.372H285.574ZM288.242 375.894V381.808H287.525V375.894H288.242ZM293.72 377.742C293.656 377.548 293.573 377.373 293.469 377.219C293.367 377.063 293.244 376.931 293.102 376.821C292.961 376.711 292.802 376.627 292.623 376.57C292.444 376.512 292.247 376.483 292.034 376.483C291.683 376.483 291.365 376.573 291.078 376.754C290.791 376.935 290.563 377.202 290.393 377.554C290.224 377.907 290.139 378.339 290.139 378.851C290.139 379.363 290.225 379.795 290.396 380.147C290.568 380.5 290.8 380.766 291.092 380.947C291.385 381.128 291.714 381.219 292.08 381.219C292.419 381.219 292.717 381.146 292.975 381.002C293.235 380.856 293.437 380.65 293.581 380.384C293.728 380.116 293.801 379.802 293.801 379.44L294.02 379.486H292.241V378.851H294.494V379.486C294.494 379.973 294.39 380.397 294.182 380.757C293.976 381.117 293.691 381.396 293.327 381.594C292.965 381.79 292.549 381.888 292.08 381.888C291.556 381.888 291.096 381.765 290.7 381.519C290.305 381.272 289.997 380.922 289.776 380.468C289.556 380.013 289.446 379.474 289.446 378.851C289.446 378.383 289.509 377.962 289.634 377.589C289.761 377.214 289.94 376.894 290.171 376.63C290.402 376.367 290.675 376.164 290.991 376.024C291.307 375.883 291.654 375.813 292.034 375.813C292.345 375.813 292.636 375.86 292.906 375.955C293.177 376.047 293.419 376.179 293.63 376.35C293.844 376.52 294.022 376.723 294.165 376.959C294.307 377.194 294.405 377.455 294.459 377.742H293.72ZM300.41 375.894V381.808H299.717L296.494 377.164H296.436V381.808H295.72V375.894H296.413L299.647 380.549H299.705V375.894H300.41ZM308.01 375.894H308.726V379.809C308.726 380.214 308.631 380.575 308.441 380.892C308.252 381.208 307.985 381.457 307.641 381.64C307.296 381.821 306.892 381.912 306.428 381.912C305.964 381.912 305.56 381.821 305.215 381.64C304.871 381.457 304.603 381.208 304.412 380.892C304.224 380.575 304.129 380.214 304.129 379.809V375.894H304.846V379.752C304.846 380.04 304.909 380.297 305.036 380.523C305.163 380.746 305.344 380.922 305.579 381.051C305.816 381.178 306.099 381.242 306.428 381.242C306.757 381.242 307.04 381.178 307.277 381.051C307.514 380.922 307.695 380.746 307.82 380.523C307.947 380.297 308.01 380.04 308.01 379.752V375.894ZM310.156 381.808V375.894H312.155C312.619 375.894 312.998 375.978 313.292 376.145C313.589 376.311 313.808 376.535 313.951 376.818C314.093 377.101 314.164 377.417 314.164 377.765C314.164 378.113 314.093 378.43 313.951 378.715C313.81 379 313.593 379.227 313.298 379.396C313.004 379.564 312.626 379.648 312.166 379.648H310.734V379.012H312.143C312.461 379.012 312.716 378.958 312.908 378.848C313.101 378.738 313.24 378.59 313.327 378.403C313.415 378.215 313.46 378.002 313.46 377.765C313.46 377.528 313.415 377.317 313.327 377.13C313.24 376.943 313.1 376.797 312.905 376.691C312.711 376.583 312.453 376.529 312.132 376.529H310.873V381.808H310.156Z" fill="#E8E8E3"/>
<path d="M274.566 171.692L240.546 171.537L240.518 177.781L274.538 177.935L274.566 171.692Z" fill="#17A1FA"/>
<path opacity="0.1" d="M274.566 171.692L240.546 171.537L240.518 177.781L274.538 177.935L274.566 171.692Z" fill="black"/>
<path d="M374.295 210.025C374.562 209.998 374.824 209.935 375.075 209.839C375.441 209.696 375.76 209.453 375.994 209.137C376.228 208.821 376.368 208.446 376.398 208.054C376.398 205.951 376.398 202.882 376.398 198.94C376.398 196.969 376.398 194.76 376.398 192.326C376.398 191.731 376.398 191.109 376.398 190.488C376.484 189.884 376.353 189.27 376.028 188.755C375.846 188.508 375.609 188.306 375.335 188.166C375.062 188.026 374.76 187.952 374.454 187.948H372.39H353.277L242.643 187.538C242.359 187.533 242.079 187.597 241.826 187.724C241.573 187.85 241.354 188.036 241.188 188.266C240.868 188.783 240.746 189.398 240.844 189.998C240.844 191.321 240.844 192.644 240.844 193.967C240.844 196.612 240.844 199.258 240.844 201.903C240.844 203.226 240.844 204.548 240.844 205.871C240.789 206.487 240.789 207.107 240.844 207.723C240.913 207.987 241.042 208.232 241.221 208.438C241.4 208.645 241.624 208.807 241.875 208.914C242.136 209.017 242.415 209.067 242.695 209.059H249.428L278.806 209.218L328.541 209.522L362.073 209.787L371.186 209.892H373.554C374.096 209.892 374.361 209.892 374.361 209.892H373.554H371.186H362.073H328.541L278.806 209.734L249.428 209.615H242.695C242.325 209.63 241.955 209.566 241.611 209.429C241.263 209.281 240.953 209.055 240.705 208.768C240.458 208.481 240.279 208.142 240.182 207.776C240.106 207.429 240.079 207.072 240.103 206.718V205.739C240.103 204.416 240.103 203.093 240.103 201.771C240.103 199.125 240.103 196.48 240.103 193.834C240.103 192.512 240.103 191.189 240.103 189.866C240.078 189.514 240.078 189.16 240.103 188.808C240.152 188.419 240.303 188.049 240.539 187.736C240.768 187.417 241.07 187.158 241.42 186.98C241.77 186.803 242.158 186.713 242.55 186.718L353.184 187.326L372.298 187.459H374.361C374.725 187.459 375.083 187.547 375.405 187.715C375.727 187.883 376.004 188.126 376.213 188.424C376.586 188.999 376.736 189.691 376.636 190.369C376.636 190.99 376.636 191.612 376.636 192.207C376.636 194.615 376.636 196.824 376.636 198.821C376.636 202.789 376.543 205.832 376.517 207.948C376.485 208.355 376.337 208.744 376.091 209.07C375.845 209.395 375.511 209.644 375.128 209.787C374.878 209.942 374.589 210.024 374.295 210.025Z" fill="#E0E0E0"/>
<path d="M312.986 194.178H250.765V200.011H312.986V194.178Z" fill="#17A1FA"/>
<path opacity="0.2" d="M312.986 194.178H250.765V200.011H312.986V194.178Z" fill="white"/>
<path d="M274.334 228.647L240.313 228.493L240.285 234.736L274.306 234.891L274.334 228.647Z" fill="#17A1FA"/>
<path opacity="0.1" d="M274.334 228.647L240.313 228.493L240.285 234.736L274.306 234.891L274.334 228.647Z" fill="black"/>
<path d="M373.436 266.982C373.703 266.949 373.968 266.9 374.229 266.836C374.599 266.719 374.939 266.523 375.226 266.263C375.514 266.003 375.742 265.684 375.896 265.328C376.104 264.794 376.186 264.219 376.134 263.648C376.134 263.014 376.134 262.326 376.134 261.559C376.134 260.024 376.134 258.278 376.134 256.268V247.868C376.197 247.26 376.063 246.648 375.75 246.122C375.424 245.583 374.911 245.183 374.309 244.998C373.65 244.88 372.979 244.845 372.311 244.892H353.277L243.027 244.482C242.434 244.483 241.861 244.7 241.416 245.092C240.971 245.484 240.683 246.024 240.606 246.612C240.606 247.868 240.606 249.257 240.606 250.58C240.606 253.225 240.606 255.871 240.606 258.516C240.606 259.839 240.606 261.162 240.606 262.484C240.557 263.103 240.583 263.725 240.685 264.336C240.851 264.873 241.19 265.338 241.651 265.659C242.14 265.969 242.714 266.117 243.291 266.082H245.13H248.953L278.225 266.228L327.788 266.532L361.2 266.797L370.287 266.902H361.2H327.788L278.198 266.849L248.926 266.744H243.172C242.457 266.786 241.747 266.596 241.148 266.201C240.547 265.784 240.107 265.172 239.905 264.469C239.786 263.796 239.751 263.112 239.799 262.432C239.799 261.109 239.799 259.786 239.799 258.463C239.799 255.818 239.799 253.172 239.799 250.527C239.799 249.204 239.799 247.881 239.799 246.559C239.896 245.802 240.265 245.107 240.837 244.603C241.409 244.099 242.145 243.821 242.908 243.821L353.158 244.429L372.192 244.575C372.901 244.531 373.612 244.58 374.309 244.72C374.996 244.945 375.575 245.416 375.936 246.043C376.278 246.625 376.426 247.302 376.359 247.974C376.359 248.596 376.359 249.204 376.359 249.813C376.359 252.207 376.359 254.403 376.359 256.426C376.359 258.45 376.359 260.156 376.359 261.717C376.359 262.471 376.359 263.172 376.359 263.82C376.407 264.412 376.312 265.006 376.081 265.553C375.909 265.918 375.661 266.242 375.353 266.502C375.045 266.762 374.684 266.953 374.295 267.061C374.006 267.085 373.715 267.058 373.436 266.982Z" fill="#E0E0E0"/>
<path d="M274.077 288.076L240.057 287.922L240.028 294.165L274.049 294.32L274.077 288.076Z" fill="#17A1FA"/>
<path opacity="0.1" d="M274.077 288.076L240.057 287.922L240.028 294.165L274.049 294.32L274.077 288.076Z" fill="black"/>
<path d="M373.171 326.386C373.438 326.354 373.703 326.306 373.965 326.241C374.332 326.124 374.671 325.93 374.959 325.672C375.246 325.415 375.475 325.099 375.631 324.746C375.839 324.212 375.92 323.637 375.869 323.066C375.869 322.418 375.869 321.743 375.869 320.963C375.869 319.442 375.869 317.682 375.869 315.672V307.272C375.933 306.664 375.798 306.052 375.486 305.526C375.152 304.997 374.641 304.603 374.044 304.415C373.386 304.293 372.715 304.253 372.047 304.296H353.012L242.762 303.886C242.169 303.888 241.597 304.104 241.152 304.496C240.706 304.888 240.418 305.428 240.342 306.016C240.342 307.339 240.342 308.661 240.342 309.984C240.342 312.63 240.342 315.275 240.342 317.92C240.342 319.243 240.342 320.566 240.342 321.889C240.292 322.502 240.319 323.12 240.421 323.727C240.579 324.267 240.921 324.735 241.386 325.05C241.872 325.367 242.448 325.516 243.027 325.473H248.781L278.053 325.632L327.616 325.936L361.028 326.201L370.115 326.307H361.028H327.616L278.053 326.161L248.781 326.042H243.027C242.311 326.09 241.599 325.9 241.003 325.5C240.401 325.083 239.962 324.471 239.76 323.767C239.641 323.095 239.605 322.411 239.654 321.73C239.654 320.407 239.654 319.084 239.654 317.762C239.654 315.116 239.654 312.471 239.654 309.825C239.654 308.503 239.654 307.18 239.654 305.791C239.747 305.036 240.113 304.341 240.683 303.836C241.253 303.332 241.988 303.054 242.749 303.053L352.999 303.661L372.033 303.807C372.742 303.763 373.454 303.812 374.15 303.952C374.837 304.177 375.417 304.648 375.777 305.275C376.119 305.858 376.267 306.534 376.2 307.206C376.2 307.828 376.2 308.45 376.2 309.045C376.2 311.439 376.2 313.635 376.2 315.659C376.2 317.682 376.2 319.389 376.2 320.95C376.2 321.704 376.2 322.405 376.2 323.053C376.251 323.644 376.155 324.239 375.922 324.785C375.751 325.15 375.502 325.474 375.194 325.734C374.886 325.995 374.525 326.185 374.137 326.293C373.826 326.4 373.496 326.431 373.171 326.386Z" fill="#E0E0E0"/>
<path d="M311.658 252.785L249.437 252.502L249.41 258.335L311.631 258.618L311.658 252.785Z" fill="#17A1FA"/>
<path opacity="0.2" d="M311.658 252.785L249.437 252.502L249.41 258.335L311.631 258.618L311.658 252.785Z" fill="white"/>
<path d="M255.063 315.592C255.024 316.125 254.83 316.633 254.504 317.056C254.179 317.479 253.736 317.796 253.232 317.97C252.727 318.143 252.183 318.165 251.666 318.032C251.15 317.899 250.684 317.617 250.326 317.221C249.968 316.826 249.734 316.334 249.653 315.807C249.572 315.279 249.647 314.74 249.87 314.255C250.093 313.77 250.453 313.362 250.906 313.08C251.359 312.798 251.885 312.655 252.418 312.669C253.155 312.71 253.846 313.04 254.341 313.587C254.836 314.135 255.096 314.855 255.063 315.592Z" fill="#17A1FA"/>
<path d="M263.489 315.632C263.515 316.005 263.464 316.379 263.339 316.732C263.214 317.084 263.018 317.407 262.763 317.68C262.508 317.954 262.2 318.172 261.857 318.321C261.514 318.47 261.145 318.547 260.771 318.547C260.397 318.547 260.027 318.47 259.684 318.321C259.341 318.172 259.033 317.954 258.778 317.68C258.523 317.407 258.327 317.084 258.202 316.732C258.077 316.379 258.026 316.005 258.053 315.632C258.026 315.259 258.077 314.885 258.202 314.533C258.327 314.18 258.523 313.857 258.778 313.584C259.033 313.311 259.341 313.093 259.684 312.944C260.027 312.794 260.397 312.718 260.771 312.718C261.145 312.718 261.514 312.794 261.857 312.944C262.2 313.093 262.508 313.311 262.763 313.584C263.018 313.857 263.214 314.18 263.339 314.533C263.464 314.885 263.515 315.259 263.489 315.632Z" fill="#17A1FA"/>
<path d="M271.929 315.672C271.89 316.204 271.695 316.713 271.37 317.135C271.044 317.558 270.602 317.876 270.097 318.049C269.593 318.223 269.048 318.244 268.532 318.111C268.015 317.978 267.549 317.696 267.191 317.301C266.833 316.905 266.599 316.413 266.518 315.886C266.437 315.359 266.513 314.819 266.735 314.334C266.958 313.85 267.318 313.441 267.771 313.159C268.224 312.877 268.75 312.734 269.283 312.749C270.019 312.793 270.708 313.124 271.202 313.67C271.697 314.217 271.958 314.935 271.929 315.672Z" fill="#17A1FA"/>
<path d="M280.355 315.711C280.315 316.244 280.121 316.752 279.796 317.175C279.47 317.598 279.027 317.915 278.523 318.089C278.018 318.262 277.474 318.284 276.957 318.151C276.441 318.018 275.975 317.736 275.617 317.341C275.259 316.945 275.025 316.453 274.944 315.926C274.863 315.398 274.938 314.859 275.161 314.374C275.384 313.889 275.744 313.481 276.197 313.199C276.65 312.917 277.176 312.774 277.709 312.788C278.445 312.833 279.134 313.164 279.628 313.71C280.123 314.257 280.384 314.975 280.355 315.711Z" fill="#17A1FA"/>
<path d="M288.78 315.738C288.744 316.271 288.551 316.781 288.227 317.206C287.903 317.63 287.461 317.95 286.957 318.125C286.452 318.301 285.908 318.324 285.39 318.193C284.872 318.061 284.405 317.78 284.046 317.385C283.686 316.99 283.451 316.497 283.369 315.97C283.287 315.442 283.362 314.902 283.585 314.416C283.807 313.931 284.168 313.521 284.621 313.239C285.075 312.957 285.601 312.814 286.135 312.828C286.868 312.872 287.555 313.201 288.049 313.745C288.543 314.289 288.806 315.004 288.78 315.738Z" fill="#17A1FA"/>
<path d="M297.219 315.778C297.183 316.308 296.992 316.816 296.671 317.239C296.35 317.662 295.912 317.983 295.412 318.16C294.911 318.338 294.369 318.366 293.853 318.239C293.337 318.113 292.869 317.839 292.507 317.45C292.145 317.061 291.904 316.575 291.814 316.051C291.725 315.528 291.79 314.989 292.003 314.502C292.216 314.015 292.566 313.601 293.011 313.311C293.456 313.02 293.976 312.866 294.507 312.868C295.252 312.895 295.956 313.217 296.464 313.762C296.972 314.308 297.244 315.033 297.219 315.778Z" fill="#17A1FA"/>
<path d="M305.645 315.817C305.671 316.19 305.62 316.564 305.495 316.917C305.371 317.269 305.175 317.592 304.92 317.866C304.665 318.139 304.356 318.357 304.013 318.506C303.671 318.655 303.301 318.732 302.927 318.732C302.553 318.732 302.183 318.655 301.841 318.506C301.498 318.357 301.189 318.139 300.934 317.866C300.679 317.592 300.483 317.269 300.359 316.917C300.234 316.564 300.183 316.19 300.209 315.817C300.183 315.444 300.234 315.07 300.359 314.718C300.483 314.365 300.679 314.042 300.934 313.769C301.189 313.496 301.498 313.278 301.841 313.129C302.183 312.98 302.553 312.903 302.927 312.903C303.301 312.903 303.671 312.98 304.013 313.129C304.356 313.278 304.665 313.496 304.92 313.769C305.175 314.042 305.371 314.365 305.495 314.718C305.62 315.07 305.671 315.444 305.645 315.817Z" fill="#17A1FA"/>
<path d="M314.07 315.857C314.034 316.387 313.844 316.895 313.523 317.318C313.202 317.742 312.764 318.062 312.263 318.24C311.762 318.417 311.221 318.445 310.705 318.319C310.188 318.192 309.72 317.918 309.358 317.529C308.996 317.141 308.755 316.655 308.666 316.131C308.576 315.607 308.642 315.069 308.855 314.582C309.067 314.095 309.417 313.681 309.862 313.39C310.307 313.1 310.827 312.946 311.359 312.947C312.104 312.975 312.807 313.296 313.316 313.842C313.824 314.387 314.095 315.112 314.07 315.857Z" fill="#17A1FA"/>
<path d="M322.497 315.897C322.461 316.43 322.268 316.94 321.944 317.364C321.62 317.789 321.178 318.109 320.674 318.284C320.169 318.46 319.624 318.483 319.107 318.351C318.589 318.22 318.122 317.939 317.762 317.543C317.403 317.148 317.168 316.656 317.086 316.128C317.004 315.601 317.079 315.06 317.302 314.575C317.524 314.089 317.885 313.68 318.338 313.398C318.791 313.115 319.318 312.972 319.852 312.987C320.585 313.031 321.272 313.36 321.766 313.904C322.26 314.447 322.523 315.162 322.497 315.897Z" fill="#17A1FA"/>
<g opacity="0.2">
<path d="M255.063 315.592C255.024 316.125 254.83 316.633 254.504 317.056C254.179 317.479 253.736 317.796 253.232 317.97C252.727 318.143 252.183 318.165 251.666 318.032C251.15 317.899 250.684 317.617 250.326 317.221C249.968 316.826 249.734 316.334 249.653 315.807C249.572 315.279 249.647 314.74 249.87 314.255C250.093 313.77 250.453 313.362 250.906 313.08C251.359 312.798 251.885 312.655 252.418 312.669C253.155 312.71 253.846 313.04 254.341 313.587C254.836 314.135 255.096 314.855 255.063 315.592Z" fill="white"/>
<path d="M263.489 315.632C263.515 316.005 263.464 316.379 263.339 316.732C263.214 317.084 263.018 317.407 262.763 317.68C262.508 317.954 262.2 318.172 261.857 318.321C261.514 318.47 261.145 318.547 260.771 318.547C260.397 318.547 260.027 318.47 259.684 318.321C259.341 318.172 259.033 317.954 258.778 317.68C258.523 317.407 258.327 317.084 258.202 316.732C258.077 316.379 258.026 316.005 258.053 315.632C258.026 315.259 258.077 314.885 258.202 314.533C258.327 314.18 258.523 313.857 258.778 313.584C259.033 313.311 259.341 313.093 259.684 312.944C260.027 312.794 260.397 312.718 260.771 312.718C261.145 312.718 261.514 312.794 261.857 312.944C262.2 313.093 262.508 313.311 262.763 313.584C263.018 313.857 263.214 314.18 263.339 314.533C263.464 314.885 263.515 315.259 263.489 315.632Z" fill="white"/>
<path d="M271.929 315.672C271.89 316.204 271.695 316.713 271.37 317.135C271.044 317.558 270.602 317.876 270.097 318.049C269.593 318.223 269.048 318.244 268.532 318.111C268.015 317.978 267.549 317.696 267.191 317.301C266.833 316.905 266.599 316.413 266.518 315.886C266.437 315.359 266.513 314.819 266.735 314.334C266.958 313.85 267.318 313.441 267.771 313.159C268.224 312.877 268.75 312.734 269.283 312.749C270.019 312.793 270.708 313.124 271.202 313.67C271.697 314.217 271.958 314.935 271.929 315.672Z" fill="white"/>
<path d="M280.355 315.711C280.315 316.244 280.121 316.752 279.796 317.175C279.47 317.598 279.027 317.915 278.523 318.089C278.018 318.262 277.474 318.284 276.957 318.151C276.441 318.018 275.975 317.736 275.617 317.341C275.259 316.945 275.025 316.453 274.944 315.926C274.863 315.398 274.938 314.859 275.161 314.374C275.384 313.889 275.744 313.481 276.197 313.199C276.65 312.917 277.176 312.774 277.709 312.788C278.445 312.833 279.134 313.164 279.628 313.71C280.123 314.257 280.384 314.975 280.355 315.711Z" fill="white"/>
<path d="M288.78 315.738C288.744 316.271 288.551 316.781 288.227 317.206C287.903 317.63 287.461 317.95 286.957 318.125C286.452 318.301 285.908 318.324 285.39 318.193C284.872 318.061 284.405 317.78 284.046 317.385C283.686 316.99 283.451 316.497 283.369 315.97C283.287 315.442 283.362 314.902 283.585 314.416C283.807 313.931 284.168 313.521 284.621 313.239C285.075 312.957 285.601 312.814 286.135 312.828C286.868 312.872 287.555 313.201 288.049 313.745C288.543 314.289 288.806 315.004 288.78 315.738Z" fill="white"/>
<path d="M297.219 315.778C297.183 316.308 296.992 316.816 296.671 317.239C296.35 317.662 295.912 317.983 295.412 318.16C294.911 318.338 294.369 318.366 293.853 318.239C293.337 318.113 292.869 317.839 292.507 317.45C292.145 317.061 291.904 316.575 291.814 316.051C291.725 315.528 291.79 314.989 292.003 314.502C292.216 314.015 292.566 313.601 293.011 313.311C293.456 313.02 293.976 312.866 294.507 312.868C295.252 312.895 295.956 313.217 296.464 313.762C296.972 314.308 297.244 315.033 297.219 315.778Z" fill="white"/>
<path d="M305.645 315.817C305.671 316.19 305.62 316.565 305.495 316.917C305.371 317.269 305.175 317.592 304.92 317.866C304.665 318.139 304.356 318.357 304.013 318.506C303.671 318.655 303.301 318.732 302.927 318.732C302.553 318.732 302.183 318.655 301.841 318.506C301.498 318.357 301.189 318.139 300.934 317.866C300.679 317.592 300.483 317.269 300.359 316.917C300.234 316.565 300.183 316.19 300.209 315.817C300.183 315.444 300.234 315.07 300.359 314.718C300.483 314.365 300.679 314.042 300.934 313.769C301.189 313.496 301.498 313.278 301.841 313.129C302.183 312.98 302.553 312.903 302.927 312.903C303.301 312.903 303.671 312.98 304.013 313.129C304.356 313.278 304.665 313.496 304.92 313.769C305.175 314.042 305.371 314.365 305.495 314.718C305.62 315.07 305.671 315.444 305.645 315.817Z" fill="white"/>
<path d="M314.071 315.857C314.035 316.387 313.845 316.895 313.524 317.318C313.203 317.742 312.765 318.062 312.264 318.24C311.763 318.417 311.222 318.445 310.706 318.319C310.189 318.192 309.721 317.918 309.359 317.529C308.997 317.141 308.756 316.655 308.667 316.131C308.577 315.607 308.643 315.069 308.856 314.582C309.068 314.095 309.418 313.681 309.863 313.39C310.308 313.1 310.828 312.946 311.36 312.947C312.105 312.975 312.808 313.296 313.317 313.842C313.825 314.387 314.096 315.112 314.071 315.857Z" fill="white"/>
<path d="M322.497 315.897C322.461 316.43 322.268 316.94 321.944 317.364C321.62 317.789 321.178 318.109 320.674 318.284C320.169 318.46 319.624 318.483 319.107 318.351C318.589 318.22 318.122 317.939 317.762 317.543C317.403 317.148 317.168 316.656 317.086 316.128C317.004 315.601 317.079 315.06 317.302 314.575C317.524 314.089 317.885 313.68 318.338 313.398C318.791 313.115 319.318 312.972 319.852 312.987C320.585 313.031 321.272 313.36 321.766 313.904C322.26 314.447 322.523 315.162 322.497 315.897Z" fill="white"/>
</g>
<path d="M310.526 124.946C311.445 124.541 312.224 123.875 312.768 123.031C313.311 122.187 313.594 121.201 313.582 120.197C313.616 119.545 313.517 118.892 313.291 118.279C313.064 117.666 312.716 117.105 312.266 116.631C311.816 116.157 311.274 115.779 310.674 115.521C310.074 115.263 309.427 115.13 308.773 115.13C308.12 115.13 307.473 115.263 306.873 115.521C306.272 115.779 305.731 116.157 305.281 116.631C304.831 117.105 304.482 117.666 304.256 118.279C304.03 118.892 303.931 119.545 303.965 120.197C303.945 121.211 304.226 122.209 304.772 123.063C305.318 123.918 306.105 124.591 307.034 124.999C299.627 126.11 299.957 134.152 299.957 134.152L317.47 134.232C317.47 134.232 317.88 126.044 310.526 124.946Z" fill="#17A1FA"/>
<path opacity="0.8" d="M310.526 124.946C311.445 124.541 312.224 123.875 312.768 123.031C313.311 122.187 313.594 121.201 313.582 120.197C313.616 119.545 313.517 118.892 313.291 118.279C313.064 117.666 312.716 117.105 312.266 116.631C311.816 116.157 311.274 115.779 310.674 115.521C310.074 115.263 309.427 115.13 308.773 115.13C308.12 115.13 307.473 115.263 306.873 115.521C306.272 115.779 305.731 116.157 305.281 116.631C304.831 117.105 304.482 117.666 304.256 118.279C304.03 118.892 303.931 119.545 303.965 120.197C303.945 121.211 304.226 122.209 304.772 123.063C305.318 123.918 306.105 124.591 307.034 124.999C299.627 126.11 299.957 134.152 299.957 134.152L317.47 134.232C317.47 134.232 317.88 126.044 310.526 124.946Z" fill="black"/>
<path d="M338.984 139.419L276.564 139.135L276.531 146.596L338.95 146.879L338.984 139.419Z" fill="#17A1FA"/>
<path d="M338.984 139.419L276.564 139.135L276.531 146.596L338.95 146.879L338.984 139.419Z" fill="#455A64"/>
<path d="M109.51 178.08H108.888L107.089 178.213C106.116 178.271 105.148 178.399 104.193 178.596C103.574 178.683 102.96 178.802 102.354 178.953L100.304 179.522C96.8142 180.593 93.5217 182.223 90.5552 184.35C86.6357 187.195 83.363 190.838 80.9521 195.038C79.5351 197.459 78.4074 200.039 77.5923 202.723C76.7358 205.641 76.2427 208.653 76.1241 211.691C76.0453 213.287 76.0718 214.887 76.2035 216.48C76.2035 217.286 76.4283 218.093 76.5341 218.913C76.6232 219.74 76.778 220.558 76.9971 221.36C78.1865 226.668 80.5999 231.625 84.0448 235.834C87.4896 240.044 91.8706 243.39 96.8382 245.606C100.434 247.158 104.287 248.024 108.201 248.159C112.242 248.382 116.288 247.802 120.105 246.453L121.269 246.016H121.428L121.56 246.096L138.24 254.561L137.751 254.985C135.965 249.455 134.245 244.098 132.579 238.953V238.755L132.724 238.609C136.77 234.534 139.774 229.542 141.481 224.059C143.026 219.046 143.477 213.759 142.803 208.556C142.204 203.933 140.717 199.468 138.425 195.408C136.449 191.921 133.901 188.791 130.886 186.149C128.398 184.058 125.645 182.306 122.698 180.938C120.468 179.976 118.145 179.244 115.767 178.755L113.121 178.319L111.203 178.173L110.039 178.094H109.642C109.774 178.079 109.907 178.079 110.039 178.094H111.216L113.134 178.173L115.78 178.557C118.188 179.01 120.542 179.715 122.804 180.66C125.801 182.012 128.604 183.76 131.137 185.858C134.207 188.488 136.81 191.618 138.835 195.117C141.192 199.221 142.725 203.746 143.346 208.437C144.076 213.72 143.656 219.099 142.116 224.204C140.398 229.802 137.348 234.899 133.227 239.059L133.306 238.715C134.973 243.86 136.706 249.217 138.504 254.733L138.756 255.54L138.002 255.156L121.322 246.704H121.613L120.423 247.141C116.532 248.51 112.412 249.103 108.293 248.887C104.295 248.734 100.361 247.837 96.6927 246.241C89.695 243.244 83.873 238.036 80.1188 231.413C78.3912 228.355 77.1295 225.056 76.3754 221.625C76.1689 220.802 76.0143 219.967 75.9125 219.125C75.8066 218.292 75.6347 217.472 75.595 216.652C75.237 211.945 75.7345 207.213 77.0632 202.683C77.8986 199.962 79.0577 197.351 80.5156 194.906C82.984 190.667 86.3249 187.002 90.3171 184.152C93.3325 182.02 96.6802 180.402 100.224 179.364L102.301 178.834C102.912 178.693 103.53 178.582 104.153 178.504C105.118 178.325 106.095 178.219 107.076 178.186L108.888 178.12C109.094 178.092 109.302 178.079 109.51 178.08Z" fill="#17A1FA"/>
<path d="M117.049 208.927H114.602L109.311 201.493V196.612C109.311 196.612 105.528 196.374 105.978 202.763C106.428 209.152 105.978 207.525 105.978 207.525C105.978 207.525 97.9488 207.525 97.2875 208.252C96.6261 208.98 96.5864 216.731 96.4938 221.056C96.4431 222.099 96.7423 223.129 97.3438 223.982C97.9454 224.835 98.8148 225.463 99.8139 225.765C100.094 225.843 100.383 225.883 100.674 225.884C102.684 225.884 112.909 224.257 112.909 224.257H117.129L117.049 208.927Z" fill="#17A1FA"/>
<path d="M124.047 207.617L122.539 224.337H118.359V207.961L124.047 207.617Z" fill="#17A1FA"/>
<path d="M173.901 547.998V536.688L153.623 536.543L153.451 553.646L154.708 553.738C160.303 554.096 183.173 554.625 186.93 553.461C191.11 552.164 173.901 547.998 173.901 547.998Z" fill="black"/>
<path d="M187.405 552.403C187.405 552.588 179.813 552.746 170.461 552.746C161.109 552.746 153.517 552.588 153.517 552.403C153.517 552.217 161.109 552.059 170.461 552.059C179.813 552.059 187.405 552.217 187.405 552.403Z" fill="#263238"/>
<path d="M174.258 550.313C174.086 550.22 174.258 549.625 174.668 548.99C175.078 548.355 175.633 548.09 175.766 548.223C175.898 548.355 175.62 548.858 175.223 549.4C174.826 549.942 174.43 550.405 174.258 550.313Z" fill="#263238"/>
<path d="M175.554 551.053C175.368 551.053 175.461 550.313 175.858 549.611C176.255 548.91 176.784 548.487 176.929 548.593C177.075 548.699 176.837 549.294 176.466 549.916C176.096 550.537 175.726 551.119 175.554 551.053Z" fill="#263238"/>
<path d="M159.628 552.35C159.548 552.35 159.244 552.111 158.808 551.609C158.275 550.963 157.681 550.369 157.035 549.836C156.4 549.329 155.643 548.996 154.839 548.871C154.218 548.791 153.821 548.871 153.781 548.791C153.741 548.712 154.125 548.434 154.853 548.381C155.813 548.361 156.749 548.68 157.498 549.281C158.2 549.853 158.791 550.547 159.244 551.331C159.548 551.913 159.707 552.297 159.628 552.35Z" fill="#263238"/>
<path d="M174.323 548.183C174.416 548.342 174.072 548.739 173.49 548.95C172.908 549.162 172.392 549.082 172.365 548.95C172.339 548.818 172.749 548.54 173.252 548.355C173.754 548.17 174.217 548.024 174.323 548.183Z" fill="#263238"/>
<path d="M174.006 547.085C174.006 547.284 173.477 547.442 172.789 547.455C172.102 547.469 171.559 547.31 171.573 547.125C171.586 546.94 172.128 546.768 172.789 546.754C173.451 546.741 173.98 546.9 174.006 547.085Z" fill="#263238"/>
<path d="M223.833 547.998V536.688L203.556 536.543L203.384 553.474L204.64 553.566C210.236 553.924 233.119 554.625 236.862 553.461C241.042 552.164 223.833 547.998 223.833 547.998Z" fill="black"/>
<path d="M237.339 552.429C237.339 552.614 229.76 552.773 220.395 552.773C211.03 552.773 203.464 552.614 203.464 552.429C203.464 552.244 211.043 552.085 220.395 552.085C229.747 552.085 237.339 552.244 237.339 552.429Z" fill="#263238"/>
<path d="M224.19 550.313C224.032 550.22 224.19 549.625 224.601 548.99C225.011 548.355 225.566 548.09 225.698 548.223C225.831 548.355 225.553 548.858 225.156 549.4C224.759 549.942 224.362 550.405 224.19 550.313Z" fill="#263238"/>
<path d="M225.487 551.053C225.315 551.053 225.394 550.313 225.804 549.611C226.214 548.91 226.73 548.487 226.876 548.593C227.021 548.699 226.77 549.294 226.399 549.916C226.029 550.537 225.672 551.119 225.487 551.053Z" fill="#263238"/>
<path d="M209.561 552.35C209.482 552.35 209.191 552.111 208.741 551.609C208.208 550.963 207.615 550.369 206.969 549.836C206.333 549.329 205.576 548.996 204.773 548.871C204.164 548.791 203.754 548.871 203.715 548.791C203.675 548.712 204.059 548.434 204.786 548.381C205.746 548.361 206.683 548.68 207.432 549.281C208.137 549.849 208.729 550.544 209.178 551.331C209.482 551.913 209.641 552.297 209.561 552.35Z" fill="#263238"/>
<path d="M224.257 548.183C224.349 548.342 224.005 548.739 223.423 548.95C222.841 549.162 222.326 549.082 222.299 548.95C222.273 548.818 222.683 548.54 223.185 548.355C223.688 548.17 224.151 548.024 224.257 548.183Z" fill="#263238"/>
<path d="M223.966 547.085C223.966 547.284 223.437 547.442 222.749 547.455C222.061 547.469 221.532 547.31 221.545 547.125C221.558 546.94 222.087 546.768 222.749 546.754C223.41 546.741 223.966 546.9 223.966 547.085Z" fill="#263238"/>
<path d="M298.542 212.154C298.013 211.612 296.703 211.876 296.703 211.876C296.835 211.115 296.835 210.336 296.703 209.575C296.465 208.834 294.799 208.98 294.799 208.98C294.722 208.356 294.722 207.725 294.799 207.101C294.812 206.963 294.782 206.824 294.714 206.703C294.645 206.583 294.541 206.486 294.415 206.427C293.627 206.105 292.78 205.952 291.928 205.977C290.91 205.25 295.037 199.469 296.571 197.617C298.106 195.765 297.828 194.324 296.465 194.324C295.526 194.324 290.711 199.879 289.23 201.744C287.748 203.609 283.82 208.794 283.688 204.654C283.555 200.514 281.889 197.392 280.844 196.863C279.799 196.334 278.688 197.578 279.257 198.728C279.756 200.036 280.068 201.407 280.182 202.802C280.326 203.914 280.277 205.041 280.037 206.136C279.598 208.172 279.001 210.171 278.251 212.115H278.145C278.145 212.115 249.283 239.799 247.193 241.77C245.328 243.543 207.815 239.667 200.289 238.874C197.731 238.499 195.149 238.322 192.564 238.344C189.297 238.49 188.715 238.953 185.461 238.993C177.243 239.084 169.045 239.805 160.937 241.149C157.266 241.773 153.837 243.393 151.024 245.833C148.211 248.273 146.122 251.439 144.985 254.985C137.406 278.662 120.237 334.706 117.208 366.187C114.919 370.338 112.852 374.608 111.017 378.978C108.888 384.772 109.403 384.97 110.118 385.102C112.049 385.46 114.245 375.063 115.065 377.576C115.885 380.089 110.898 389.97 112.922 390.261C115.567 390.631 117.671 379.679 117.922 378.806C118.173 377.933 119.483 378.211 119.245 379.031C118.861 380.195 115.144 392.536 117.737 392.933C119.165 393.145 119.324 390.539 119.324 390.539C119.324 390.539 121.97 378.727 123.173 378.965C124.377 379.203 123.094 386.174 122.485 388.502C121.877 390.83 122.723 392.007 123.967 391.438C124.813 391.042 126.837 383.965 127.393 381.663C127.948 379.362 129.337 372.986 131.202 376.677C133.067 380.367 135.898 382.51 137.062 382.563C137.324 382.533 137.572 382.424 137.772 382.253C137.972 382.081 138.117 381.853 138.186 381.598C138.256 381.343 138.248 381.074 138.163 380.824C138.078 380.574 137.92 380.355 137.71 380.195C136.709 379.217 135.85 378.104 135.157 376.888C134.54 375.941 134.093 374.894 133.834 373.793C133.301 371.599 132.991 369.356 132.909 367.1L132.697 365.777C135.66 351.108 144.192 308.053 156.506 280.553L161.559 290.95L163.755 298.648L150.289 331.889L207.723 331.135L199.151 298.146L209.561 263.754C220.818 264.006 249.72 264.429 254.535 262.246C260.593 259.601 291.928 220.025 291.928 220.025C293.971 218.437 295.927 216.742 297.788 214.945C297.788 214.945 299.693 213.345 298.542 212.154Z" fill="#FFBE9D"/>
<path d="M147.763 307.325C149.43 301.638 157.988 273.516 157.988 273.516C157.988 273.516 162.194 296.439 161.083 299.204C160.061 301.57 158.854 303.853 157.472 306.029C147.763 320.804 149.033 328.198 149.033 328.198L207.697 326.412C207.829 318.211 202.974 299.138 201.969 296.095C200.964 293.053 204.31 283.093 204.31 283.093C204.31 283.093 210.924 276.36 210.686 272.894C210.56 269.781 210.175 266.684 209.535 263.635L245.249 264.958L244.125 240.752L192.829 235.62C191.043 240.659 174.893 238.186 174.893 238.186C157.459 238.768 156.374 241.969 149.126 247.604C141.877 253.239 129.88 301.598 129.88 301.598L147.763 307.325Z" fill="#17A1FA"/>
<path d="M182.445 301.598C181.428 301.78 180.393 301.833 179.363 301.757C177.445 301.757 174.813 301.624 171.916 301.333C169.019 301.042 166.4 300.632 164.535 300.262C163.506 300.129 162.498 299.872 161.532 299.495C162.566 299.495 163.598 299.593 164.614 299.786C166.493 300.024 169.098 300.354 171.982 300.645C174.865 300.936 177.484 301.135 179.376 301.267C180.407 301.28 181.435 301.391 182.445 301.598Z" fill="#263238"/>
<path d="M186.466 296.611C185.449 297.109 184.374 297.478 183.265 297.709C177.988 299.096 172.543 299.741 167.088 299.627C165.959 299.664 164.83 299.557 163.729 299.31C164.843 299.169 165.966 299.111 167.088 299.138C169.165 299.071 172.022 298.926 175.17 298.556C178.318 298.185 181.123 297.656 183.107 297.233C184.209 296.939 185.332 296.731 186.466 296.611Z" fill="#263238"/>
<path d="M206.202 274.363C206.175 275.371 206.037 276.374 205.792 277.352C205.448 279.191 204.919 281.704 204.244 284.455C203.57 287.206 202.921 289.746 202.339 291.466C202.105 292.45 201.759 293.404 201.308 294.31C201.381 293.304 201.568 292.31 201.863 291.347C202.366 289.283 202.935 286.902 203.57 284.296C204.204 281.691 204.813 279.31 205.316 277.246C205.495 276.253 205.792 275.285 206.202 274.363Z" fill="#263238"/>
<path d="M148.385 303.952C145.325 303.48 142.305 302.777 139.351 301.849C136.332 301.143 133.37 300.215 130.488 299.071C133.547 299.552 136.566 300.255 139.523 301.175C142.542 301.878 145.504 302.806 148.385 303.952Z" fill="#263238"/>
<path d="M210.17 263.344C209.671 263.43 209.161 263.43 208.662 263.344C207.28 263.203 205.924 262.878 204.628 262.379C202.464 261.566 200.494 260.309 198.845 258.689C197.195 257.069 195.903 255.123 195.051 252.974C194.109 250.61 193.707 248.066 193.874 245.527C193.933 243.433 194.559 241.394 195.686 239.628C196.478 238.438 197.662 237.563 199.032 237.154C199.398 237.053 199.777 237.004 200.157 237.008C200.421 237.008 200.554 237.008 200.554 237.008C200.554 237.008 199.998 237.008 199.112 237.366C197.855 237.83 196.789 238.7 196.083 239.839C194.284 242.67 193.781 247.842 195.699 252.67C196.592 254.946 197.989 256.99 199.786 258.648C201.259 260.005 202.955 261.097 204.8 261.876C206.531 262.56 208.332 263.052 210.17 263.344Z" fill="#263238"/>
<path d="M241.003 264.482C240.672 260.426 240.566 256.354 240.685 252.286C240.582 248.222 240.705 244.154 241.056 240.104C241.387 244.156 241.493 248.223 241.373 252.286C241.484 256.355 241.361 260.427 241.003 264.482Z" fill="#263238"/>
<path d="M192.485 237.101C192.63 234.151 192.934 230.818 192.934 230.818C192.934 230.818 200.236 230.011 200.673 222.472C201.109 214.932 200.673 197.538 200.673 197.538L187.445 190.766L172.763 202.313L175.025 240.011L188.49 240.871C189.519 240.899 190.518 240.519 191.267 239.812C192.016 239.105 192.454 238.13 192.485 237.101Z" fill="#FFBE9D"/>
<path d="M193.794 216.506C193.794 216.506 193.794 216.652 193.675 216.823C193.577 216.948 193.449 217.047 193.304 217.112C193.159 217.176 193 217.204 192.842 217.194C191.995 217.194 191.175 216.215 190.884 215.077C190.746 214.526 190.746 213.949 190.884 213.398C190.911 213.157 190.998 212.927 191.137 212.728C191.275 212.529 191.461 212.369 191.678 212.26C191.856 212.187 192.055 212.187 192.233 212.26C192.365 212.326 192.472 212.432 192.537 212.564C192.63 212.789 192.537 212.935 192.537 212.921C192.537 212.908 192.537 212.789 192.405 212.657C192.336 212.562 192.234 212.496 192.12 212.472C192.005 212.447 191.885 212.466 191.783 212.525C191.621 212.623 191.486 212.76 191.392 212.924C191.297 213.089 191.245 213.274 191.241 213.464C191.13 213.956 191.13 214.466 191.241 214.958C191.506 215.99 192.22 216.823 192.855 216.903C192.979 216.92 193.105 216.911 193.226 216.877C193.347 216.842 193.459 216.784 193.556 216.704C193.715 216.599 193.768 216.493 193.794 216.506Z" fill="#EB996E"/>
<path d="M205.209 193.464C204.191 189.998 200.5 188.279 197.141 187.326C192.022 185.871 186.493 185.236 181.493 187.075C176.493 188.914 170.487 192.141 170.487 197.657C167.538 197.419 165.845 199.998 164.681 203.199C163.936 205.149 163.49 207.201 163.358 209.284C162.988 216.506 160.964 226.479 156.281 231.77C153.636 234.72 149.972 236.757 148.464 240.434C147.141 243.622 147.829 247.405 146.599 250.633C145.501 253.477 143.08 255.5 141.308 257.974C139.502 260.78 138.439 263.999 138.22 267.329C138 270.658 138.63 273.989 140.051 277.008C141.483 279.95 143.498 282.569 145.974 284.707C148.451 286.844 151.337 288.456 154.456 289.442C160.634 291.322 167.223 291.386 173.437 289.627C178.101 288.512 182.451 286.355 186.162 283.318C189.959 280.217 192.566 275.899 193.543 271.095C194.482 265.699 192.974 260.209 191.85 254.839C188.331 237.868 189.336 236.982 193.781 221.228C193.887 220.95 193.94 220.659 194.019 220.382C194.098 220.104 194.138 219.972 194.191 219.76C194.317 219.137 194.384 218.504 194.389 217.868C193.74 218.11 193.036 218.161 192.358 218.016C191.681 217.87 191.06 217.535 190.567 217.048C190.072 216.53 189.728 215.887 189.57 215.188C189.411 214.49 189.445 213.761 189.667 213.08C189.979 212.335 190.444 211.664 191.032 211.111C191.62 210.557 192.318 210.133 193.08 209.866C194.548 209.257 196.122 208.94 197.564 208.265C200.619 206.81 202.736 203.794 204.178 200.633C205.363 198.442 205.729 195.9 205.209 193.464Z" fill="#263238"/>
<path d="M194.323 216.863C194.603 217.276 194.833 217.72 195.011 218.186C195.408 219.019 195.937 220.196 196.519 221.559L196.625 221.81H196.347L195.024 221.929C194.111 221.929 193.344 222.101 192.445 222.088C192.366 222.07 192.294 222.033 192.234 221.98C192.174 221.927 192.128 221.859 192.101 221.784C192.061 221.663 192.061 221.534 192.101 221.413C192.131 221.235 192.171 221.058 192.22 220.884L192.458 219.945C192.578 219.319 192.764 218.707 193.014 218.12C192.989 218.758 192.896 219.393 192.736 220.011L192.551 220.95C192.484 221.268 192.365 221.757 192.551 221.718C193.212 221.718 194.151 221.572 195.024 221.519L196.347 221.4L196.175 221.691C195.606 220.368 195.13 219.125 194.852 218.265C194.608 217.826 194.43 217.354 194.323 216.863Z" fill="#17A1FA"/>
<path d="M149.033 328.198L207.696 326.412L233.225 426.068L228.529 540.379H197.511L201.307 428.502L178.622 359.124L182.114 544.81L150.765 545.273L147.472 370.737C147.326 365.883 145.739 354.944 146.334 350.129L149.033 328.198Z" fill="#263238"/>
<path d="M186.427 360.539C185.466 360.6 184.502 360.542 183.556 360.367C181.784 360.156 179.363 359.785 176.704 359.256C174.046 358.727 171.665 358.119 169.945 357.629C169.026 357.427 168.137 357.107 167.3 356.677C167.3 356.478 171.612 357.51 176.903 358.582C182.194 359.653 186.453 360.341 186.427 360.539Z" fill="#455A64"/>
<path d="M228.212 534.109C228.212 534.294 221.188 534.453 212.524 534.453C203.86 534.453 196.823 534.294 196.823 534.109C196.823 533.924 203.847 533.765 212.524 533.765C221.201 533.765 228.212 533.911 228.212 534.109Z" fill="#455A64"/>
<path d="M181.837 539.982C181.837 540.18 175.011 540.326 166.599 540.326C158.186 540.326 151.374 540.18 151.374 539.982C151.374 539.784 158.199 539.638 166.599 539.638C174.998 539.638 181.837 539.797 181.837 539.982Z" fill="#455A64"/>
<path d="M177.789 539.506C177.604 539.506 176.784 498.937 175.951 448.898C175.117 398.859 174.628 358.264 174.8 358.264C174.972 358.264 175.818 398.819 176.638 448.885C177.459 498.951 177.988 539.506 177.789 539.506Z" fill="#455A64"/>
<path d="M224.045 534.109C224.031 533.929 224.031 533.747 224.045 533.567V531.979C224.045 530.551 224.151 528.501 224.23 525.895C224.415 520.604 224.68 512.919 225.011 503.501C225.725 484.559 226.73 458.448 227.828 429.626C227.828 429.348 227.828 429.084 227.828 428.845V428.938C220.884 401.16 214.601 375.949 210.037 357.708L204.746 336.135C204.138 333.608 203.675 331.637 203.344 330.262C203.186 329.614 203.08 329.111 202.987 328.727C202.936 328.555 202.905 328.378 202.895 328.198C202.963 328.365 203.016 328.538 203.053 328.714C203.159 329.084 203.291 329.587 203.477 330.222C203.834 331.545 204.35 333.555 205.011 336.068C206.334 341.174 208.199 348.529 210.527 357.589C215.13 375.817 221.479 400.962 228.516 428.779V428.872C228.516 429.11 228.516 429.388 228.516 429.652C227.339 458.475 226.267 484.572 225.487 503.514C225.077 512.945 224.733 520.577 224.495 525.895C224.363 528.54 224.257 530.551 224.191 531.979C224.191 532.654 224.111 533.183 224.098 533.567C224.1 533.749 224.082 533.931 224.045 534.109Z" fill="#455A64"/>
<path d="M213.926 426.517C211.698 427.25 209.403 427.759 207.074 428.039C204.217 428.528 201.783 428.872 200.685 428.925V428.66C201.043 428.766 201.228 428.832 201.228 428.885C201.228 428.938 201.003 428.885 200.633 428.885H199.839L200.633 428.647C201.664 428.343 204.098 427.84 206.955 427.324C209.247 426.827 211.582 426.557 213.926 426.517Z" fill="#455A64"/>
<path d="M213.384 430.314C211.32 430.408 209.253 430.315 207.206 430.036C205.14 429.994 203.082 429.768 201.056 429.361C205.189 429.024 209.351 429.345 213.384 430.314Z" fill="#455A64"/>
<path opacity="0.2" d="M148.781 330.301C149.476 331.193 150.351 331.929 151.349 332.46C152.348 332.991 153.447 333.306 154.575 333.383C156.938 333.663 159.327 333.619 161.678 333.251C176.823 331.571 192.868 330.024 207.696 326.412C188.503 327.484 168.226 327.127 149.033 328.198L148.834 329.838" fill="black"/>
<g opacity="0.2">
<path d="M168.557 357.351L179.377 399.335L178.623 359.124L168.557 357.351Z" fill="black"/>
</g>
</svg>
