<svg xmlns="http://www.w3.org/2000/svg" width="20" height="20" viewBox="0 0 20 20" fill="none">
<path d="M9.89996 7.6165C10.9666 7.6665 11.2416 8.57484 11.2583 8.99984H12.75C12.6833 7.34984 11.5083 6.3415 9.87496 6.3415C8.03329 6.3415 6.66663 7.49984 6.66663 10.1165C6.66663 11.7332 7.44163 13.6498 9.86663 13.6498C11.7166 13.6498 12.7083 12.2748 12.7333 11.1915H11.2416C11.2166 11.6832 10.8666 12.3415 9.88329 12.3915C8.79163 12.3582 8.33329 11.5082 8.33329 10.1165C8.33329 7.70817 9.39996 7.63317 9.89996 7.6165ZM9.99996 1.6665C5.39996 1.6665 1.66663 5.39984 1.66663 9.99984C1.66663 14.5998 5.39996 18.3332 9.99996 18.3332C14.6 18.3332 18.3333 14.5998 18.3333 9.99984C18.3333 5.39984 14.6 1.6665 9.99996 1.6665ZM9.99996 16.6665C6.32496 16.6665 3.33329 13.6748 3.33329 9.99984C3.33329 6.32484 6.32496 3.33317 9.99996 3.33317C13.675 3.33317 16.6666 6.32484 16.6666 9.99984C16.6666 13.6748 13.675 16.6665 9.99996 16.6665Z" fill="white"/>
</svg>