<svg xmlns="http://www.w3.org/2000/svg" width="20" height="20" viewBox="0 0 20 20" fill="none">
<g clip-path="url(#clip0_364_3309)">
<path d="M20 2.43536C19.2511 2.84175 18.4567 3.1085 17.6433 3.22675C18.4905 2.60474 19.1411 1.61976 19.4474 0.446173C18.642 1.03161 17.7608 1.44409 16.8419 1.66579C16.0934 0.689044 15.027 0.0786133 13.8468 0.0786133C11.5807 0.0786133 9.74344 2.32895 9.74344 5.10445C9.74344 5.49842 9.77977 5.88196 9.84969 6.24991C6.43953 6.04024 3.41609 4.03938 1.39227 0.998613C1.03914 1.74091 0.836797 2.60436 0.836797 3.52531C0.836797 5.26904 1.56125 6.80732 2.66219 7.70866C2.01059 7.68367 1.37332 7.4681 0.803594 7.07995C0.803359 7.10101 0.803359 7.12206 0.803359 7.14321C0.803359 9.57833 2.21773 11.6097 4.09477 12.0714C3.49054 12.2727 2.85674 12.3022 2.2418 12.1576C2.76391 14.1543 4.2793 15.6073 6.07477 15.648C4.67047 16.9959 2.90117 17.7995 0.978828 17.7995C0.647578 17.7995 0.321016 17.7756 0 17.7292C1.81586 19.1553 3.97266 19.9873 6.28984 19.9873C13.8373 19.9873 17.9644 12.3289 17.9644 5.68732C17.9644 5.46933 17.9605 5.25259 17.9525 5.03708C18.7558 4.32578 19.4492 3.44475 20 2.43536Z" fill="#55ACEE"/>
</g>
<defs>
<clipPath id="clip0_364_3309">
<rect width="20" height="20" fill="white"/>
</clipPath>
</defs>
</svg>